  0
SECTION
  2
HEADER
  9
$ACADVER
  1
AC1015
  9
$ACADMAINTVER
 70
    13
  9
$DWGCODEPAGE
  3
ANSI_1252
  9
$INSBASE
 10
0.0
 20
0.0
 30
0.0
  9
$EXTMIN
 10
0.0
 20
0.0
 30
0.0
  9
$EXTMAX
 10
27.94
 20
21.59
 30
0.0
  9
$LIMMIN
 10
0.0
 20
0.0
  9
$LIMMAX
 10
27.94
 20
21.59
  9
$ORTHOMODE
 70
     0
  9
$REGENMODE
 70
     1
  9
$FILLMODE
 70
     1
  9
$QTEXTMODE
 70
     0
  9
$MIRRTEXT
 70
     1
  9
$LTSCALE
 40
0.015748031496063
  9
$ATTMODE
 70
     1
  9
$TEXTSIZE
 40
0.2
  9
$TRACEWID
 40
0.05
  9
$TEXTSTYLE
  7
Standard
  9
$CLAYER
  8
0
  9
$CELTYPE
  6
ByLayer
  9
$CECOLOR
 62
   256
  9
$CELTSCALE
 40
1.0
  9
$DISPSILH
 70
     0
  9
$DIMSCALE
 40
1.0
  9
$DIMASZ
 40
0.0708661417322835
  9
$DIMEXO
 40
0.0625
  9
$DIMDLI
 40
0.38
  9
$DIMRND
 40
0.0
  9
$DIMDLE
 40
0.0
  9
$DIMEXE
 40
0.18
  9
$DIMTP
 40
0.0
  9
$DIMTM
 40
0.0
  9
$DIMTXT
 40
0.3174999952316284
  9
$DIMCEN
 40
0.09
  9
$DIMTSZ
 40
0.0
  9
$DIMTOL
 70
     0
  9
$DIMLIM
 70
     0
  9
$DIMTIH
 70
     1
  9
$DIMTOH
 70
     1
  9
$DIMSE1
 70
     0
  9
$DIMSE2
 70
     0
  9
$DIMTAD
 70
     0
  9
$DIMZIN
 70
     0
  9
$DIMBLK
  1

  9
$DIMASO
 70
     1
  9
$DIMSHO
 70
     1
  9
$DIMPOST
  1

  9
$DIMAPOST
  1

  9
$DIMALT
 70
     0
  9
$DIMALTD
 70
     2
  9
$DIMALTF
 40
25.4
  9
$DIMLFAC
 40
1.0
  9
$DIMTOFL
 70
     0
  9
$DIMTVP
 40
0.0
  9
$DIMTIX
 70
     0
  9
$DIMSOXD
 70
     0
  9
$DIMSAH
 70
     0
  9
$DIMBLK1
  1

  9
$DIMBLK2
  1

  9
$DIMSTYLE
  2
2dTranslatorDimStyle
  9
$DIMCLRD
 70
     0
  9
$DIMCLRE
 70
     0
  9
$DIMCLRT
 70
     0
  9
$DIMTFAC
 40
1.0
  9
$DIMGAP
 40
0.09
  9
$DIMJUST
 70
     0
  9
$DIMSD1
 70
     0
  9
$DIMSD2
 70
     0
  9
$DIMTOLJ
 70
     1
  9
$DIMTZIN
 70
     0
  9
$DIMALTZ
 70
     0
  9
$DIMALTTZ
 70
     0
  9
$DIMUPT
 70
     0
  9
$DIMDEC
 70
     4
  9
$DIMTDEC
 70
     4
  9
$DIMALTU
 70
     2
  9
$DIMALTTD
 70
     2
  9
$DIMTXSTY
  7
Standard
  9
$DIMAUNIT
 70
     0
  9
$DIMADEC
 70
     0
  9
$DIMALTRND
 40
0.0
  9
$DIMAZIN
 70
     0
  9
$DIMDSEP
 70
    46
  9
$DIMATFIT
 70
     3
  9
$DIMFRAC
 70
     0
  9
$DIMLDRBLK
  1

  9
$DIMLUNIT
 70
     2
  9
$DIMLWD
 70
    -2
  9
$DIMLWE
 70
    -2
  9
$DIMTMOVE
 70
     0
  9
$LUNITS
 70
     2
  9
$LUPREC
 70
     4
  9
$SKETCHINC
 40
0.1
  9
$FILLETRAD
 40
0.0
  9
$AUNITS
 70
     0
  9
$AUPREC
 70
     0
  9
$MENU
  1
.
  9
$ELEVATION
 40
0.0
  9
$PELEVATION
 40
0.0
  9
$THICKNESS
 40
0.0
  9
$LIMCHECK
 70
     0
  9
$CHAMFERA
 40
0.0
  9
$CHAMFERB
 40
0.0
  9
$CHAMFERC
 40
0.0
  9
$CHAMFERD
 40
0.0
  9
$SKPOLY
 70
     0
  9
$TDCREATE
 40
2453432.895546226
  9
$TDUCREATE
 40
2453433.103879560
  9
$TDUPDATE
 40
2453432.895546226
  9
$TDUUPDATE
 40
2453433.103879560
  9
$TDINDWG
 40
0.0000487963
  9
$TDUSRTIMER
 40
0.0000487963
  9
$USRTIMER
 70
     1
  9
$ANGBASE
 50
0.0
  9
$ANGDIR
 70
     0
  9
$PDMODE
 70
     0
  9
$PDSIZE
 40
0.0
  9
$PLINEWID
 40
0.0
  9
$SPLFRAME
 70
     0
  9
$SPLINETYPE
 70
     6
  9
$SPLINESEGS
 70
     8
  9
$HANDSEED
  5
1382
  9
$SURFTAB1
 70
     6
  9
$SURFTAB2
 70
     6
  9
$SURFTYPE
 70
     6
  9
$SURFU
 70
     6
  9
$SURFV
 70
     6
  9
$UCSBASE
  2

  9
$UCSNAME
  2

  9
$UCSORG
 10
0.0
 20
0.0
 30
0.0
  9
$UCSXDIR
 10
1.0
 20
0.0
 30
0.0
  9
$UCSYDIR
 10
0.0
 20
1.0
 30
0.0
  9
$UCSORTHOREF
  2

  9
$UCSORTHOVIEW
 70
     0
  9
$UCSORGTOP
 10
0.0
 20
0.0
 30
0.0
  9
$UCSORGBOTTOM
 10
0.0
 20
0.0
 30
0.0
  9
$UCSORGLEFT
 10
0.0
 20
0.0
 30
0.0
  9
$UCSORGRIGHT
 10
0.0
 20
0.0
 30
0.0
  9
$UCSORGFRONT
 10
0.0
 20
0.0
 30
0.0
  9
$UCSORGBACK
 10
0.0
 20
0.0
 30
0.0
  9
$PUCSBASE
  2

  9
$PUCSNAME
  2

  9
$PUCSORG
 10
0.0
 20
0.0
 30
0.0
  9
$PUCSXDIR
 10
1.0
 20
0.0
 30
0.0
  9
$PUCSYDIR
 10
0.0
 20
1.0
 30
0.0
  9
$PUCSORTHOREF
  2

  9
$PUCSORTHOVIEW
 70
     0
  9
$PUCSORGTOP
 10
0.0
 20
0.0
 30
0.0
  9
$PUCSORGBOTTOM
 10
0.0
 20
0.0
 30
0.0
  9
$PUCSORGLEFT
 10
0.0
 20
0.0
 30
0.0
  9
$PUCSORGRIGHT
 10
0.0
 20
0.0
 30
0.0
  9
$PUCSORGFRONT
 10
0.0
 20
0.0
 30
0.0
  9
$PUCSORGBACK
 10
0.0
 20
0.0
 30
0.0
  9
$USERI1
 70
     0
  9
$USERI2
 70
     0
  9
$USERI3
 70
     0
  9
$USERI4
 70
     0
  9
$USERI5
 70
     0
  9
$USERR1
 40
0.0
  9
$USERR2
 40
0.0
  9
$USERR3
 40
0.0
  9
$USERR4
 40
0.0
  9
$USERR5
 40
0.0
  9
$WORLDVIEW
 70
     1
  9
$SHADEDGE
 70
     3
  9
$SHADEDIF
 70
    70
  9
$TILEMODE
 70
     0
  9
$MAXACTVP
 70
    64
  9
$PINSBASE
 10
0.0
 20
0.0
 30
0.0
  9
$PLIMCHECK
 70
     0
  9
$PEXTMIN
 10
0.0
 20
0.0
 30
0.0
  9
$PEXTMAX
 10
27.94
 20
21.59
 30
0.0
  9
$PLIMMIN
 10
0.0
 20
0.0
  9
$PLIMMAX
 10
27.94
 20
21.59
  9
$UNITMODE
 70
     0
  9
$VISRETAIN
 70
     1
  9
$PLINEGEN
 70
     0
  9
$PSLTSCALE
 70
     1
  9
$TREEDEPTH
 70
  3020
  9
$CMLSTYLE
  2
Standard
  9
$CMLJUST
 70
     0
  9
$CMLSCALE
 40
1.0
  9
$PROXYGRAPHICS
 70
     1
  9
$MEASUREMENT
 70
     0
  9
$CELWEIGHT
370
    -1
  9
$ENDCAPS
280
     0
  9
$JOINSTYLE
280
     0
  9
$LWDISPLAY
290
     1
  9
$INSUNITS
 70
     0
  9
$HYPERLINKBASE
  1

  9
$STYLESHEET
  1

  9
$XEDIT
290
     1
  9
$CEPSNTYPE
380
     0
  9
$PSTYLEMODE
290
     1
  9
$FINGERPRINTGUID
  2
{EC25BF57-19EA-4C9E-B2E3-8865D9C40DEE}
  9
$VERSIONGUID
  2
{38E8F655-35F8-4567-8D73-4FC8E263D88B}
  9
$EXTNAMES
290
     1
  9
$PSVPSCALE
 40
0.0
  9
$OLESTARTUP
290
     0
  0
ENDSEC
  0
SECTION
  2
CLASSES
  0
CLASS
  1
ACDBDICTIONARYWDFLT
  2
AcDbDictionaryWithDefault
  3
AutoCAD 2000
 90
        0
280
     0
281
     0
  0
CLASS
  1
ACDBPLACEHOLDER
  2
AcDbPlaceHolder
  3
AutoCAD 2000
 90
        0
280
     0
281
     0
  0
CLASS
  1
LAYOUT
  2
AcDbLayout
  3
AutoCAD 2000
 90
        0
280
     0
281
     0
  0
CLASS
  1
DICTIONARYVAR
  2
AcDbDictionaryVar
  3
AutoCAD 2000
 90
        0
280
     0
281
     0
  0
ENDSEC
  0
SECTION
  2
TABLES
  0
TABLE
  2
VPORT
  5
8
330
0
100
AcDbSymbolTable
 70
     1
  0
VPORT
  5
13
330
8
100
AcDbSymbolTableRecord
100
AcDbViewportTableRecord
  2
*Active
 70
     0
 10
0.0
 20
0.0
 11
1.0
 21
1.0
 12
500.0
 22
500.0
 13
0.0
 23
0.0
 14
1.0
 24
1.0
 15
0.0
 25
0.0
 16
0.0
 26
0.0
 36
1.0
 17
0.0
 27
0.0
 37
0.0
 40
12.0
 41
1.0
 42
50.0
 43
0.0
 44
0.0
 50
0.0
 51
0.0
 71
     0
 72
   100
 73
     1
 74
     1
 75
     0
 76
     0
 77
     0
 78
     0
281
     0
 65
     1
110
0.0
120
0.0
130
0.0
111
1.0
121
0.0
131
0.0
112
0.0
122
1.0
132
0.0
 79
     0
146
0.0
  0
ENDTAB
  0
TABLE
  2
LTYPE
  5
5
330
0
100
AcDbSymbolTable
 70
    46
  0
LTYPE
  5
14
330
5
100
AcDbSymbolTableRecord
100
AcDbLinetypeTableRecord
  2
ByBlock
 70
     0
  3

 72
    65
 73
     0
 40
0.0
  0
LTYPE
  5
15
330
5
100
AcDbSymbolTableRecord
100
AcDbLinetypeTableRecord
  2
ByLayer
 70
     0
  3

 72
    65
 73
     0
 40
0.0
  0
LTYPE
  5
16
330
5
100
AcDbSymbolTableRecord
100
AcDbLinetypeTableRecord
  2
Continuous
 70
     0
  3
Solid line
 72
    65
 73
     0
 40
0.0
  0
LTYPE
  5
28
330
5
100
AcDbSymbolTableRecord
100
AcDbLinetypeTableRecord
  2
BORDER
 70
     0
  3
Border __ __ . __ __ . __ __ . __ __ . __ __ .
 72
    65
 73
     6
 40
1.75
 49
0.5
 74
     0
 49
-0.25
 74
     0
 49
0.5
 74
     0
 49
-0.25
 74
     0
 49
0.0
 74
     0
 49
-0.25
 74
     0
  0
LTYPE
  5
29
330
5
100
AcDbSymbolTableRecord
100
AcDbLinetypeTableRecord
  2
BORDER2
 70
     0
  3
Border (.5x) __.__.__.__.__.__.__.__.__.__.__.
 72
    65
 73
     6
 40
0.875
 49
0.25
 74
     0
 49
-0.125
 74
     0
 49
0.25
 74
     0
 49
-0.125
 74
     0
 49
0.0
 74
     0
 49
-0.125
 74
     0
  0
LTYPE
  5
2A
330
5
100
AcDbSymbolTableRecord
100
AcDbLinetypeTableRecord
  2
BORDERX2
 70
     0
  3
Border (2x) ____  ____  .  ____  ____  .  ___
 72
    65
 73
     6
 40
3.5
 49
1.0
 74
     0
 49
-0.5
 74
     0
 49
1.0
 74
     0
 49
-0.5
 74
     0
 49
0.0
 74
     0
 49
-0.5
 74
     0
  0
LTYPE
  5
2B
330
5
100
AcDbSymbolTableRecord
100
AcDbLinetypeTableRecord
  2
CENTER
 70
     0
  3
Center ____ _ ____ _ ____ _ ____ _ ____ _ ____
 72
    65
 73
     4
 40
2.0
 49
1.25
 74
     0
 49
-0.25
 74
     0
 49
0.25
 74
     0
 49
-0.25
 74
     0
  0
LTYPE
  5
2C
330
5
100
AcDbSymbolTableRecord
100
AcDbLinetypeTableRecord
  2
CENTER2
 70
     0
  3
Center (.5x) ___ _ ___ _ ___ _ ___ _ ___ _ ___
 72
    65
 73
     4
 40
1.125
 49
0.75
 74
     0
 49
-0.125
 74
     0
 49
0.125
 74
     0
 49
-0.125
 74
     0
  0
LTYPE
  5
2D
330
5
100
AcDbSymbolTableRecord
100
AcDbLinetypeTableRecord
  2
CENTERX2
 70
     0
  3
Center (2x) ________  __  ________  __  _____
 72
    65
 73
     4
 40
4.0
 49
2.5
 74
     0
 49
-0.5
 74
     0
 49
0.5
 74
     0
 49
-0.5
 74
     0
  0
LTYPE
  5
2E
330
5
100
AcDbSymbolTableRecord
100
AcDbLinetypeTableRecord
  2
DASHDOT
 70
     0
  3
Dash dot __ . __ . __ . __ . __ . __ . __ . __
 72
    65
 73
     4
 40
1.0
 49
0.5
 74
     0
 49
-0.25
 74
     0
 49
0.0
 74
     0
 49
-0.25
 74
     0
  0
LTYPE
  5
2F
330
5
100
AcDbSymbolTableRecord
100
AcDbLinetypeTableRecord
  2
DASHDOT2
 70
     0
  3
Dash dot (.5x) _._._._._._._._._._._._._._._.
 72
    65
 73
     4
 40
0.5
 49
0.25
 74
     0
 49
-0.125
 74
     0
 49
0.0
 74
     0
 49
-0.125
 74
     0
  0
LTYPE
  5
30
330
5
100
AcDbSymbolTableRecord
100
AcDbLinetypeTableRecord
  2
DASHDOTX2
 70
     0
  3
Dash dot (2x) ____  .  ____  .  ____  .  ___
 72
    65
 73
     4
 40
2.0
 49
1.0
 74
     0
 49
-0.5
 74
     0
 49
0.0
 74
     0
 49
-0.5
 74
     0
  0
LTYPE
  5
31
330
5
100
AcDbSymbolTableRecord
100
AcDbLinetypeTableRecord
  2
DASHED
 70
     0
  3
Dashed __ __ __ __ __ __ __ __ __ __ __ __ __ _
 72
    65
 73
     2
 40
0.75
 49
0.5
 74
     0
 49
-0.25
 74
     0
  0
LTYPE
  5
32
330
5
100
AcDbSymbolTableRecord
100
AcDbLinetypeTableRecord
  2
DASHED2
 70
     0
  3
Dashed (.5x) _ _ _ _ _ _ _ _ _ _ _ _ _ _ _ _ _
 72
    65
 73
     2
 40
0.375
 49
0.25
 74
     0
 49
-0.125
 74
     0
  0
LTYPE
  5
33
330
5
100
AcDbSymbolTableRecord
100
AcDbLinetypeTableRecord
  2
DASHEDX2
 70
     0
  3
Dashed (2x) ____  ____  ____  ____  ____  ___
 72
    65
 73
     2
 40
1.5
 49
1.0
 74
     0
 49
-0.5
 74
     0
  0
LTYPE
  5
34
330
5
100
AcDbSymbolTableRecord
100
AcDbLinetypeTableRecord
  2
DIVIDE
 70
     0
  3
Divide ____ . . ____ . . ____ . . ____ . . ____
 72
    65
 73
     6
 40
1.25
 49
0.5
 74
     0
 49
-0.25
 74
     0
 49
0.0
 74
     0
 49
-0.25
 74
     0
 49
0.0
 74
     0
 49
-0.25
 74
     0
  0
LTYPE
  5
35
330
5
100
AcDbSymbolTableRecord
100
AcDbLinetypeTableRecord
  2
DIVIDE2
 70
     0
  3
Divide (.5x) __..__..__..__..__..__..__..__.._
 72
    65
 73
     6
 40
0.625
 49
0.25
 74
     0
 49
-0.125
 74
     0
 49
0.0
 74
     0
 49
-0.125
 74
     0
 49
0.0
 74
     0
 49
-0.125
 74
     0
  0
LTYPE
  5
36
330
5
100
AcDbSymbolTableRecord
100
AcDbLinetypeTableRecord
  2
DIVIDEX2
 70
     0
  3
Divide (2x) ________  .  .  ________  .  .  _
 72
    65
 73
     6
 40
2.5
 49
1.0
 74
     0
 49
-0.5
 74
     0
 49
0.0
 74
     0
 49
-0.5
 74
     0
 49
0.0
 74
     0
 49
-0.5
 74
     0
  0
LTYPE
  5
37
330
5
100
AcDbSymbolTableRecord
100
AcDbLinetypeTableRecord
  2
DOT
 70
     0
  3
Dot . . . . . . . . . . . . . . . . . . . . . .
 72
    65
 73
     2
 40
0.25
 49
0.0
 74
     0
 49
-0.25
 74
     0
  0
LTYPE
  5
38
330
5
100
AcDbSymbolTableRecord
100
AcDbLinetypeTableRecord
  2
DOT2
 70
     0
  3
Dot (.5x) .....................................
 72
    65
 73
     2
 40
0.125
 49
0.0
 74
     0
 49
-0.125
 74
     0
  0
LTYPE
  5
39
330
5
100
AcDbSymbolTableRecord
100
AcDbLinetypeTableRecord
  2
DOTX2
 70
     0
  3
Dot (2x) .  .  .  .  .  .  .  .  .  .  .  .  . 
 72
    65
 73
     2
 40
0.5
 49
0.0
 74
     0
 49
-0.5
 74
     0
  0
LTYPE
  5
3A
330
5
100
AcDbSymbolTableRecord
100
AcDbLinetypeTableRecord
  2
HIDDEN
 70
     0
  3
Hidden __ __ __ __ __ __ __ __ __ __ __ __ __ _
 72
    65
 73
     2
 40
0.375
 49
0.25
 74
     0
 49
-0.125
 74
     0
  0
LTYPE
  5
3B
330
5
100
AcDbSymbolTableRecord
100
AcDbLinetypeTableRecord
  2
HIDDEN2
 70
     0
  3
Hidden (.5x) _ _ _ _ _ _ _ _ _ _ _ _ _ _ _ _ _
 72
    65
 73
     2
 40
0.1875
 49
0.125
 74
     0
 49
-0.0625
 74
     0
  0
LTYPE
  5
3C
330
5
100
AcDbSymbolTableRecord
100
AcDbLinetypeTableRecord
  2
HIDDENX2
 70
     0
  3
Hidden (2x) ____ ____ ____ ____ ____ ____ ____
 72
    65
 73
     2
 40
0.75
 49
0.5
 74
     0
 49
-0.25
 74
     0
  0
LTYPE
  5
3D
330
5
100
AcDbSymbolTableRecord
100
AcDbLinetypeTableRecord
  2
PHANTOM
 70
     0
  3
Phantom ______  __  __  ______  __  __  ______
 72
    65
 73
     6
 40
2.5
 49
1.25
 74
     0
 49
-0.25
 74
     0
 49
0.25
 74
     0
 49
-0.25
 74
     0
 49
0.25
 74
     0
 49
-0.25
 74
     0
  0
LTYPE
  5
3E
330
5
100
AcDbSymbolTableRecord
100
AcDbLinetypeTableRecord
  2
PHANTOM2
 70
     0
  3
Phantom (.5x) ___ _ _ ___ _ _ ___ _ _ ___ _ _
 72
    65
 73
     6
 40
1.25
 49
0.625
 74
     0
 49
-0.125
 74
     0
 49
0.125
 74
     0
 49
-0.125
 74
     0
 49
0.125
 74
     0
 49
-0.125
 74
     0
  0
LTYPE
  5
3F
330
5
100
AcDbSymbolTableRecord
100
AcDbLinetypeTableRecord
  2
PHANTOMX2
 70
     0
  3
Phantom (2x) ____________    ____    ____   _
 72
    65
 73
     6
 40
5.0
 49
2.5
 74
     0
 49
-0.5
 74
     0
 49
0.5
 74
     0
 49
-0.5
 74
     0
 49
0.5
 74
     0
 49
-0.5
 74
     0
  0
LTYPE
  5
40
330
5
100
AcDbSymbolTableRecord
100
AcDbLinetypeTableRecord
  2
ACAD_ISO02W100
 70
     0
  3
ISO dash __ __ __ __ __ __ __ __ __ __ __ __ __
 72
    65
 73
     2
 40
15.0
 49
12.0
 74
     0
 49
-3.0
 74
     0
  0
LTYPE
  5
41
330
5
100
AcDbSymbolTableRecord
100
AcDbLinetypeTableRecord
  2
ACAD_ISO03W100
 70
     0
  3
ISO dash space __    __    __    __    __    __
 72
    65
 73
     2
 40
30.0
 49
12.0
 74
     0
 49
-18.0
 74
     0
  0
LTYPE
  5
42
330
5
100
AcDbSymbolTableRecord
100
AcDbLinetypeTableRecord
  2
ACAD_ISO04W100
 70
     0
  3
ISO long-dash dot ____ . ____ . ____ . ____ . _
 72
    65
 73
     4
 40
30.0
 49
24.0
 74
     0
 49
-3.0
 74
     0
 49
0.0
 74
     0
 49
-3.0
 74
     0
  0
LTYPE
  5
43
330
5
100
AcDbSymbolTableRecord
100
AcDbLinetypeTableRecord
  2
ACAD_ISO05W100
 70
     0
  3
ISO long-dash double-dot ____ .. ____ .. ____ .
 72
    65
 73
     6
 40
33.0
 49
24.0
 74
     0
 49
-3.0
 74
     0
 49
0.0
 74
     0
 49
-3.0
 74
     0
 49
0.0
 74
     0
 49
-3.0
 74
     0
  0
LTYPE
  5
44
330
5
100
AcDbSymbolTableRecord
100
AcDbLinetypeTableRecord
  2
ACAD_ISO06W100
 70
     0
  3
ISO long-dash triple-dot ____ ... ____ ... ____
 72
    65
 73
     8
 40
36.0
 49
24.0
 74
     0
 49
-3.0
 74
     0
 49
0.0
 74
     0
 49
-3.0
 74
     0
 49
0.0
 74
     0
 49
-3.0
 74
     0
 49
0.0
 74
     0
 49
-3.0
 74
     0
  0
LTYPE
  5
45
330
5
100
AcDbSymbolTableRecord
100
AcDbLinetypeTableRecord
  2
ACAD_ISO07W100
 70
     0
  3
ISO dot . . . . . . . . . . . . . . . . . . . .
 72
    65
 73
     2
 40
3.0
 49
0.0
 74
     0
 49
-3.0
 74
     0
  0
LTYPE
  5
46
330
5
100
AcDbSymbolTableRecord
100
AcDbLinetypeTableRecord
  2
ACAD_ISO08W100
 70
     0
  3
ISO long-dash short-dash ____ __ ____ __ ____ _
 72
    65
 73
     4
 40
36.0
 49
24.0
 74
     0
 49
-3.0
 74
     0
 49
6.0
 74
     0
 49
-3.0
 74
     0
  0
LTYPE
  5
47
330
5
100
AcDbSymbolTableRecord
100
AcDbLinetypeTableRecord
  2
ACAD_ISO09W100
 70
     0
  3
ISO long-dash double-short-dash ____ __ __ ____
 72
    65
 73
     6
 40
45.0
 49
24.0
 74
     0
 49
-3.0
 74
     0
 49
6.0
 74
     0
 49
-3.0
 74
     0
 49
6.0
 74
     0
 49
-3.0
 74
     0
  0
LTYPE
  5
48
330
5
100
AcDbSymbolTableRecord
100
AcDbLinetypeTableRecord
  2
ACAD_ISO10W100
 70
     0
  3
ISO dash dot __ . __ . __ . __ . __ . __ . __ .
 72
    65
 73
     4
 40
18.0
 49
12.0
 74
     0
 49
-3.0
 74
     0
 49
0.0
 74
     0
 49
-3.0
 74
     0
  0
LTYPE
  5
49
330
5
100
AcDbSymbolTableRecord
100
AcDbLinetypeTableRecord
  2
ACAD_ISO11W100
 70
     0
  3
ISO double-dash dot __ __ . __ __ . __ __ . __ 
 72
    65
 73
     6
 40
33.0
 49
12.0
 74
     0
 49
-3.0
 74
     0
 49
12.0
 74
     0
 49
-3.0
 74
     0
 49
0.0
 74
     0
 49
-3.0
 74
     0
  0
LTYPE
  5
4A
330
5
100
AcDbSymbolTableRecord
100
AcDbLinetypeTableRecord
  2
ACAD_ISO12W100
 70
     0
  3
ISO dash double-dot __ . . __ . . __ . . __ . .
 72
    65
 73
     6
 40
21.0
 49
12.0
 74
     0
 49
-3.0
 74
     0
 49
0.0
 74
     0
 49
-3.0
 74
     0
 49
0.0
 74
     0
 49
-3.0
 74
     0
  0
LTYPE
  5
4B
330
5
100
AcDbSymbolTableRecord
100
AcDbLinetypeTableRecord
  2
ACAD_ISO13W100
 70
     0
  3
ISO double-dash double-dot __ __ . . __ __ . . 
 72
    65
 73
     8
 40
36.0
 49
12.0
 74
     0
 49
-3.0
 74
     0
 49
12.0
 74
     0
 49
-3.0
 74
     0
 49
0.0
 74
     0
 49
-3.0
 74
     0
 49
0.0
 74
     0
 49
-3.0
 74
     0
  0
LTYPE
  5
4C
330
5
100
AcDbSymbolTableRecord
100
AcDbLinetypeTableRecord
  2
ACAD_ISO14W100
 70
     0
  3
ISO dash triple-dot __ . . . __ . . . __ . . . 
 72
    65
 73
     8
 40
24.0
 49
12.0
 74
     0
 49
-3.0
 74
     0
 49
0.0
 74
     0
 49
-3.0
 74
     0
 49
0.0
 74
     0
 49
-3.0
 74
     0
 49
0.0
 74
     0
 49
-3.0
 74
     0
  0
LTYPE
  5
4D
330
5
100
AcDbSymbolTableRecord
100
AcDbLinetypeTableRecord
  2
ACAD_ISO15W100
 70
     0
  3
ISO double-dash triple-dot __ __ . . . __ __ . 
 72
    65
 73
    10
 40
39.0
 49
12.0
 74
     0
 49
-3.0
 74
     0
 49
12.0
 74
     0
 49
-3.0
 74
     0
 49
0.0
 74
     0
 49
-3.0
 74
     0
 49
0.0
 74
     0
 49
-3.0
 74
     0
 49
0.0
 74
     0
 49
-3.0
 74
     0
  0
LTYPE
  5
50
330
5
100
AcDbSymbolTableRecord
100
AcDbLinetypeTableRecord
  2
FENCELINE1
 70
     0
  3
Fenceline circle ----0-----0----0-----0----0---
 72
    65
 73
     4
 40
1.45
 49
0.25
 74
     0
 49
-0.1
 74
     4
 75
   133
340
4F
 46
0.1
 50
0.0
 44
-0.1
 45
0.0
 49
-0.1
 74
     0
 49
1.0
 74
     0
  0
LTYPE
  5
51
330
5
100
AcDbSymbolTableRecord
100
AcDbLinetypeTableRecord
  2
FENCELINE2
 70
     0
  3
Fenceline square ----[]-----[]----[]-----[]----
 72
    65
 73
     4
 40
1.45
 49
0.25
 74
     0
 49
-0.1
 74
     4
 75
   132
340
4F
 46
0.1
 50
0.0
 44
-0.1
 45
0.0
 49
-0.1
 74
     0
 49
1.0
 74
     0
  0
LTYPE
  5
52
330
5
100
AcDbSymbolTableRecord
100
AcDbLinetypeTableRecord
  2
TRACKS
 70
     0
  3
Tracks -|-|-|-|-|-|-|-|-|-|-|-|-|-|-|-|-|-|-|-|
 72
    65
 73
     2
 40
0.3
 49
0.15
 74
     4
 75
   130
340
4F
 46
0.25
 50
0.0
 44
0.0
 45
0.0
 49
0.15
 74
     0
  0
LTYPE
  5
53
330
5
100
AcDbSymbolTableRecord
100
AcDbLinetypeTableRecord
  2
BATTING
 70
     0
  3
Batting SSSSSSSSSSSSSSSSSSSSSSSSSSSSSSSSSSSSSSS
 72
    65
 73
     4
 40
0.4001000000000001
 49
0.0001
 74
     0
 49
-0.1
 74
     4
 75
   134
340
4F
 46
0.1
 50
0.0
 44
-0.1
 45
0.0
 49
-0.2
 74
     4
 75
   134
340
4F
 46
0.1
 50
180.0
 44
0.1
 45
0.0
 49
-0.1
 74
     0
  0
LTYPE
  5
54
330
5
100
AcDbSymbolTableRecord
100
AcDbLinetypeTableRecord
  2
HOT_WATER_SUPPLY
 70
     0
  3
Hot water supply ---- HW ---- HW ---- HW ----
 72
    65
 73
     3
 40
0.9
 49
0.5
 74
     0
 49
-0.2
 74
     2
 75
     0
340
11
 46
0.1
 50
0.0
 44
-0.1
 45
-0.05
  9
HW
 49
-0.2
 74
     0
  0
LTYPE
  5
55
330
5
100
AcDbSymbolTableRecord
100
AcDbLinetypeTableRecord
  2
GAS_LINE
 70
     0
  3
Gas line ----GAS----GAS----GAS----GAS----GAS---
 72
    65
 73
     3
 40
0.95
 49
0.5
 74
     0
 49
-0.2
 74
     2
 75
     0
340
11
 46
0.1
 50
0.0
 44
-0.1
 45
-0.05
  9
GAS
 49
-0.25
 74
     0
  0
LTYPE
  5
56
330
5
100
AcDbSymbolTableRecord
100
AcDbLinetypeTableRecord
  2
ZIGZAG
 70
     0
  3
Zig zag /\/\/\/\/\/\/\/\/\/\/\/\/\/\/\/\/\/\/\/
 72
    65
 73
     4
 40
0.8001000000000001
 49
0.0001
 74
     0
 49
-0.2
 74
     4
 75
   131
340
4F
 46
0.2
 50
0.0
 44
-0.2
 45
0.0
 49
-0.4
 74
     4
 75
   131
340
4F
 46
0.2
 50
180.0
 44
0.2
 45
0.0
 49
-0.2
 74
     0
  0
ENDTAB
  0
TABLE
  2
LAYER
  5
2
330
0
100
AcDbSymbolTable
 70
    23
  0
LAYER
  5
10
330
2
100
AcDbSymbolTableRecord
100
AcDbLayerTableRecord
  2
0
 70
     0
 62
     7
  6
Continuous
370
    -3
390
F
  0
LAYER
  5
64
330
2
100
AcDbSymbolTableRecord
100
AcDbLayerTableRecord
  2
Visible Edges
 70
     0
 62
     7
  6
Continuous
370
    50
390
F
  0
LAYER
  5
65
330
2
100
AcDbSymbolTableRecord
100
AcDbLayerTableRecord
  2
Hidden Edges
 70
     0
 62
     7
  6
ACAD_ISO02W100
370
    35
390
F
  0
LAYER
  5
67
330
2
100
AcDbSymbolTableRecord
100
AcDbLayerTableRecord
  2
Tangent Edges
 70
     0
 62
     7
  6
Continuous
370
    50
390
F
  0
LAYER
  5
68
330
2
100
AcDbSymbolTableRecord
100
AcDbLayerTableRecord
  2
Section View Lines
 70
     0
 62
     7
  6
ACAD_ISO09W100
370
    70
390
F
  0
LAYER
  5
6A
330
2
100
AcDbSymbolTableRecord
100
AcDbLayerTableRecord
  2
Detail Circle Lines
 70
     0
 62
     7
  6
ACAD_ISO09W100
370
    50
390
F
  0
LAYER
  5
6C
330
2
100
AcDbSymbolTableRecord
100
AcDbLayerTableRecord
  2
Dimensions
 70
     0
 62
     7
  6
Continuous
370
    25
390
F
  0
LAYER
  5
6D
330
2
100
AcDbSymbolTableRecord
100
AcDbLayerTableRecord
  2
Center Mark
 70
     0
 62
     7
  6
Continuous
370
    25
390
F
  0
LAYER
  5
6E
330
2
100
AcDbSymbolTableRecord
100
AcDbLayerTableRecord
  2
Symbols
 70
     0
 62
     7
  6
Continuous
370
    25
390
F
  0
LAYER
  5
6F
330
2
100
AcDbSymbolTableRecord
100
AcDbLayerTableRecord
  2
Leader Lines
 70
     0
 62
     7
  6
Continuous
370
    25
390
F
  0
LAYER
  5
70
330
2
100
AcDbSymbolTableRecord
100
AcDbLayerTableRecord
  2
Sketch Lines
 70
     0
 62
     7
  6
Continuous
370
    25
390
F
  0
LAYER
  5
71
330
2
100
AcDbSymbolTableRecord
100
AcDbLayerTableRecord
  2
Phantom Lines
 70
     0
 62
     7
  6
ACAD_ISO09W100
370
    70
390
F
  0
LAYER
  5
73
330
2
100
AcDbSymbolTableRecord
100
AcDbLayerTableRecord
  2
Symmetry Lines
 70
     0
 62
     7
  6
ACAD_ISO08W100
370
    25
390
F
  0
LAYER
  5
75
330
2
100
AcDbSymbolTableRecord
100
AcDbLayerTableRecord
  2
Break Lines
 70
     0
 62
     7
  6
Continuous
370
    50
390
F
  0
LAYER
  5
76
330
2
100
AcDbSymbolTableRecord
100
AcDbLayerTableRecord
  2
Chain Lines
 70
     0
 62
     7
  6
ACAD_ISO08W100
370
    50
390
F
  0
LAYER
  5
78
330
2
100
AcDbSymbolTableRecord
100
AcDbLayerTableRecord
  2
Stitch 1 Lines
 70
     0
 62
     7
  6
ACAD_ISO03W100
370
    25
390
F
  0
LAYER
  5
7A
330
2
100
AcDbSymbolTableRecord
100
AcDbLayerTableRecord
  2
Stitch 2 Lines
 70
     0
 62
     7
  6
ACAD_ISO07W100
370
    25
390
F
  0
LAYER
  5
7C
330
2
100
AcDbSymbolTableRecord
100
AcDbLayerTableRecord
  2
Center Line
 70
     0
 62
     7
  6
Continuous
370
    25
390
F
  0
LAYER
  5
7D
330
2
100
AcDbSymbolTableRecord
100
AcDbLayerTableRecord
  2
Sketch Only Lines
 70
     0
 62
     7
  6
Continuous
370
    50
390
F
  0
LAYER
  5
7E
330
2
100
AcDbSymbolTableRecord
100
AcDbLayerTableRecord
  2
07 Lines (Long)
 70
     0
 62
     7
  6
ACAD_ISO06W100
370
    25
390
F
  0
LAYER
  5
80
330
2
100
AcDbSymbolTableRecord
100
AcDbLayerTableRecord
  2
Hatch
 70
     0
 62
     7
  6
Continuous
370
    25
390
F
  0
LAYER
  5
81
330
2
100
AcDbSymbolTableRecord
100
AcDbLayerTableRecord
  2
Text
 70
     0
 62
     7
  6
Continuous
370
    25
390
F
  0
LAYER
  5
154
330
2
100
AcDbSymbolTableRecord
100
AcDbLayerTableRecord
  2
Defpoints
 70
     0
 62
     7
  6
Continuous
290
     0
370
    -3
390
F
  0
ENDTAB
  0
TABLE
  2
STYLE
  5
3
330
0
100
AcDbSymbolTable
 70
    17
  0
STYLE
  5
11
330
3
100
AcDbSymbolTableRecord
100
AcDbTextStyleTableRecord
  2
Standard
 70
     0
 40
0.0
 41
1.0
 50
0.0
 71
     0
 42
0.2
  3
ARIAL.TTF
  4

1001
ACAD
1000
Arial
1071
      256
  0
STYLE
  5
4F
330
3
100
AcDbSymbolTableRecord
100
AcDbTextStyleTableRecord
  2

 70
     1
 40
0.0
 41
1.0
 50
0.0
 71
     0
 42
0.2
  3
ltypeshp.shx
  4

  0
STYLE
  5
58
330
3
100
AcDbSymbolTableRecord
100
AcDbTextStyleTableRecord
  2
TextStyle1
 70
     0
 40
0.0
 41
0.9399999976158142
 50
0.0
 71
     0
 42
0.2
  3
ARIAL.TTF
  4

1001
ACAD
1000
Arial
1071
      256
  0
STYLE
  5
59
330
3
100
AcDbSymbolTableRecord
100
AcDbTextStyleTableRecord
  2
TextStyle2
 70
     0
 40
0.0
 41
0.9399999976158142
 50
0.0
 71
     0
 42
0.2
  3
Aigdt___.ttf
  4

1001
ACAD
1000
AIGDT
1071
      514
  0
STYLE
  5
5A
330
3
100
AcDbSymbolTableRecord
100
AcDbTextStyleTableRecord
  2
TextStyle3
 70
     0
 40
0.0
 41
0.9399999976158142
 50
0.0
 71
     0
 42
0.2
  3
TIMES.TTF
  4

1001
ACAD
1000
Times New Roman
1071
      256
  0
STYLE
  5
5B
330
3
100
AcDbSymbolTableRecord
100
AcDbTextStyleTableRecord
  2
TextStyle4
 70
     0
 40
0.0
 41
0.9399999976158142
 50
0.0
 71
     0
 42
0.2
  3
TIMES.TTF
  4

1001
ACAD
1000
Times New Roman
1071
      256
  0
STYLE
  5
5C
330
3
100
AcDbSymbolTableRecord
100
AcDbTextStyleTableRecord
  2
TextStyle5
 70
     0
 40
0.0
 41
0.9399999976158142
 50
0.0
 71
     0
 42
0.2
  3
ARIAL.TTF
  4

1001
ACAD
1000
Arial
1071
      256
  0
STYLE
  5
5D
330
3
100
AcDbSymbolTableRecord
100
AcDbTextStyleTableRecord
  2
TextStyle6
 70
     0
 40
0.0
 41
0.9399999976158142
 50
0.0
 71
     0
 42
0.2
  3
ARIAL.TTF
  4

1001
ACAD
1000
Arial
1071
      256
  0
STYLE
  5
5E
330
3
100
AcDbSymbolTableRecord
100
AcDbTextStyleTableRecord
  2
TextStyle7
 70
     0
 40
0.0
 41
0.9399999976158142
 50
0.0
 71
     0
 42
0.2
  3
ARIAL.TTF
  4

1001
ACAD
1000
Arial
1071
      256
  0
STYLE
  5
5F
330
3
100
AcDbSymbolTableRecord
100
AcDbTextStyleTableRecord
  2
TextStyle8
 70
     0
 40
0.0
 41
0.9399999976158142
 50
0.0
 71
     0
 42
0.2
  3
ARIAL.TTF
  4

1001
ACAD
1000
Arial
1071
      256
  0
STYLE
  5
60
330
3
100
AcDbSymbolTableRecord
100
AcDbTextStyleTableRecord
  2
TextStyle9
 70
     0
 40
0.0
 41
0.9399999976158142
 50
0.0
 71
     0
 42
0.2
  3
ARIAL.TTF
  4

1001
ACAD
1000
Arial
1071
      256
  0
STYLE
  5
61
330
3
100
AcDbSymbolTableRecord
100
AcDbTextStyleTableRecord
  2
TextStyle10
 70
     0
 40
0.0
 41
0.9399999976158142
 50
0.0
 71
     0
 42
0.2
  3
Aigdt___.ttf
  4

1001
ACAD
1000
AIGDT
1071
      514
  0
STYLE
  5
62
330
3
100
AcDbSymbolTableRecord
100
AcDbTextStyleTableRecord
  2
TextStyle11
 70
     0
 40
0.0
 41
0.9399999976158142
 50
0.0
 71
     0
 42
0.2
  3
ARIAL.TTF
  4

1001
ACAD
1000
Arial
1071
      256
  0
STYLE
  5
63
330
3
100
AcDbSymbolTableRecord
100
AcDbTextStyleTableRecord
  2
TextStyle12
 70
     0
 40
0.0
 41
0.9399999976158142
 50
0.0
 71
     0
 42
0.2
  3
Aigdt___.ttf
  4

1001
ACAD
1000
AIGDT
1071
      514
  0
STYLE
  5
82
330
3
100
AcDbSymbolTableRecord
100
AcDbTextStyleTableRecord
  2
Current-ANSI
 70
     0
 40
0.0
 41
0.9399999976158142
 50
0.0
 71
     0
 42
0.2
  3
ARIAL.TTF
  4

1001
ACAD
1000
Arial
1071
      256
  0
STYLE
  5
83
330
3
100
AcDbSymbolTableRecord
100
AcDbTextStyleTableRecord
  2
DEFAULT-ANSI
 70
     0
 40
0.0
 41
0.9399999976158142
 50
0.0
 71
     0
 42
0.2
  3
ARIAL.TTF
  4

1001
ACAD
1000
Arial
1071
      256
  0
STYLE
  5
CB
330
3
100
AcDbSymbolTableRecord
100
AcDbTextStyleTableRecord
  2
TextStyle13
 70
     0
 40
0.0
 41
0.9399999976158142
 50
0.0
 71
     0
 42
0.2
  3
ARIAL.TTF
  4

1001
ACAD
1000
Arial
1071
      256
  0
ENDTAB
  0
TABLE
  2
VIEW
  5
6
330
0
100
AcDbSymbolTable
 70
     0
  0
ENDTAB
  0
TABLE
  2
UCS
  5
7
330
0
100
AcDbSymbolTable
 70
     0
  0
ENDTAB
  0
TABLE
  2
APPID
  5
9
330
0
100
AcDbSymbolTable
 70
     1
  0
APPID
  5
12
330
9
100
AcDbSymbolTableRecord
100
AcDbRegAppTableRecord
  2
ACAD
 70
     0
  0
ENDTAB
  0
TABLE
  2
DIMSTYLE
  5
A
330
0
100
AcDbSymbolTable
 70
    12
100
AcDbDimStyleTable
 71
     2
340
8D
340
57
  0
DIMSTYLE
105
27
330
A
100
AcDbSymbolTableRecord
100
AcDbDimStyleTableRecord
  2
Standard
 70
     0
340
11
  0
DIMSTYLE
105
57
330
A
100
AcDbSymbolTableRecord
100
AcDbDimStyleTableRecord
  2
2dTranslatorDimStyle
 70
     0
 41
0.0708661417322835
140
0.0708661417322835
340
11
  0
DIMSTYLE
105
84
330
A
100
AcDbSymbolTableRecord
100
AcDbDimStyleTableRecord
  2
1 32 - FRACTION
 70
     0
 41
0.0984251946210861
 43
0.1889763779527559
 44
0.125
 45
0.00000001
 46
0.3937007874015748
 73
     0
 74
     0
140
0.1200000047683716
147
0.031496062992126
176
   172
177
   172
178
    47
271
     5
272
     2
277
     5
340
5F
344
85
371
    25
372
    25
  0
DIMSTYLE
105
8C
330
A
100
AcDbSymbolTableRecord
100
AcDbDimStyleTableRecord
  2
1 64 - FRACTION
 70
     0
 41
0.0984251946210861
 43
0.1889763779527559
 44
0.125
 45
0.00000001
 46
0.3937007874015748
 73
     0
 74
     0
140
0.1200000047683716
147
0.031496062992126
176
   172
177
   172
178
    47
271
     6
272
     2
277
     5
340
5F
344
85
371
    25
372
    25
  0
DIMSTYLE
105
8D
102
{ACAD_REACTORS
330
153
330
1F8
330
29C
330
340
330
3E9
330
458
330
4C7
330
536
330
5DA
330
67E
330
722
330
7C6
330
86A
330
90E
330
9B7
330
A5B
330
ACA
330
B6E
330
C12
330
CB6
330
D25
330
D94
330
E03
330
EA7
330
F4B
330
FBA
330
1029
330
10D2
330
117C
330
1226
330
12CF
102
}
330
A
100
AcDbSymbolTableRecord
100
AcDbDimStyleTableRecord
  2
ANSI - ALIGNED
 70
     0
 41
0.0984251946210861
 43
0.1889763779527559
 44
0.125
 45
0.00000001
 46
0.3937007874015748
 73
     0
140
0.1200000047683716
147
0.031496062992126
176
    47
177
    47
178
    47
271
     3
272
     2
340
5F
344
85
371
    25
372
    25
  0
DIMSTYLE
105
8E
330
A
100
AcDbSymbolTableRecord
100
AcDbDimStyleTableRecord
  2
ANSI FRACTION - ALIGNED
 70
     0
 41
0.0984251946210861
 43
0.1889763779527559
 44
0.125
 45
0.00000001
 46
0.3937007874015748
 73
     0
140
0.1200000047683716
147
0.031496062992126
176
    47
177
    47
178
    47
272
     2
277
     5
340
5F
344
85
371
    25
372
    25
  0
DIMSTYLE
105
8F
330
A
100
AcDbSymbolTableRecord
100
AcDbDimStyleTableRecord
  2
DEFAULT-ANSI
 70
     0
 41
0.0984251946210861
 43
0.1889763779527559
 44
0.125
 45
0.00000001
 46
0.3937007874015748
140
0.1200000047683716
147
0.031496062992126
176
    47
177
    47
178
    47
271
     2
272
     2
340
5F
344
85
371
    25
372
    25
  0
DIMSTYLE
105
90
330
A
100
AcDbSymbolTableRecord
100
AcDbDimStyleTableRecord
  2
DEFAULT-ANSI FRACTION
 70
     0
 41
0.0984251946210861
 43
0.1889763779527559
 44
0.125
 45
0.00000001
 46
0.3937007874015748
140
0.1200000047683716
147
0.031496062992126
176
    47
177
    47
178
    47
272
     2
277
     5
340
5F
344
85
371
    25
372
    25
  0
DIMSTYLE
105
91
330
A
100
AcDbSymbolTableRecord
100
AcDbDimStyleTableRecord
  2
MM-ANSI
 70
     0
 41
0.0984251946210861
 43
0.1889763779527559
 44
0.125
 45
0.00000001
 46
0.3937007874015748
 73
     0
140
0.1200000047683716
147
0.063
176
   250
177
   250
178
    47
179
     1
271
     2
272
     2
340
5F
344
85
371
    25
372
    25
  0
DIMSTYLE
105
92
330
A
100
AcDbSymbolTableRecord
100
AcDbDimStyleTableRecord
  2
X . XX mm [in]
 70
     0
 41
0.0984251946210861
 42
0.094
 43
0.2
 44
0.125
 45
0.00000001
 46
0.3937007874015748
 73
     0
 74
     0
140
0.1200000047683716
147
0.063
176
   250
177
   250
178
    18
179
     1
271
     2
272
     2
340
5F
344
85
371
    25
372
    25
  0
DIMSTYLE
105
93
330
A
100
AcDbSymbolTableRecord
100
AcDbDimStyleTableRecord
  2
X . XXX
 70
     0
 41
0.0984251946210861
 42
0.094
 43
0.2
 44
0.125
 45
0.00000001
 46
0.3937007874015748
 73
     0
 74
     0
140
0.1200000047683716
147
0.063
176
   250
177
   250
178
    18
179
     1
271
     3
272
     2
340
5F
344
85
371
    25
372
    25
  0
DIMSTYLE
105
94
330
A
100
AcDbSymbolTableRecord
100
AcDbDimStyleTableRecord
  2
X . XXX in [mm]
 70
     0
 41
0.0984251946210861
 42
0.094
 43
0.2
 44
0.125
 45
0.00000001
 46
0.3937007874015748
 73
     0
 74
     0
140
0.1200000047683716
147
0.063
176
   250
177
   250
178
    18
179
     1
271
     3
272
     2
340
5F
344
85
371
    25
372
    25
  0
ENDTAB
  0
TABLE
  2
BLOCK_RECORD
  5
1
330
0
100
AcDbSymbolTable
 70
    35
  0
BLOCK_RECORD
  5
1F
330
1
100
AcDbSymbolTableRecord
100
AcDbBlockTableRecord
  2
*Model_Space
340
22
  0
BLOCK_RECORD
  5
1B
330
1
100
AcDbSymbolTableRecord
100
AcDbBlockTableRecord
  2
*Paper_Space
340
1E
  0
BLOCK_RECORD
  5
23
330
1
100
AcDbSymbolTableRecord
100
AcDbBlockTableRecord
  2
*Paper_Space0
340
26
  0
BLOCK_RECORD
  5
85
330
1
100
AcDbSymbolTableRecord
100
AcDbBlockTableRecord
  2
_Closed
340
0
  0
BLOCK_RECORD
  5
95
330
1
100
AcDbSymbolTableRecord
100
AcDbBlockTableRecord
  2
2dTransBorder1
340
0
102
{BLKREFS
331
ED
102
}
  0
BLOCK_RECORD
  5
EE
330
1
100
AcDbSymbolTableRecord
100
AcDbBlockTableRecord
  2
2dTransTitleBlock1
340
0
102
{BLKREFS
331
122
102
}
  0
BLOCK_RECORD
  5
155
330
1
100
AcDbSymbolTableRecord
100
AcDbBlockTableRecord
  2
*D4
340
0
  0
BLOCK_RECORD
  5
1F9
330
1
100
AcDbSymbolTableRecord
100
AcDbBlockTableRecord
  2
*D5
340
0
  0
BLOCK_RECORD
  5
29D
330
1
100
AcDbSymbolTableRecord
100
AcDbBlockTableRecord
  2
*D6
340
0
  0
BLOCK_RECORD
  5
341
330
1
100
AcDbSymbolTableRecord
100
AcDbBlockTableRecord
  2
*D7
340
0
  0
BLOCK_RECORD
  5
3EA
330
1
100
AcDbSymbolTableRecord
100
AcDbBlockTableRecord
  2
*D8
340
0
  0
BLOCK_RECORD
  5
459
330
1
100
AcDbSymbolTableRecord
100
AcDbBlockTableRecord
  2
*D9
340
0
  0
BLOCK_RECORD
  5
4C8
330
1
100
AcDbSymbolTableRecord
100
AcDbBlockTableRecord
  2
*D10
340
0
  0
BLOCK_RECORD
  5
537
330
1
100
AcDbSymbolTableRecord
100
AcDbBlockTableRecord
  2
*D11
340
0
  0
BLOCK_RECORD
  5
5DB
330
1
100
AcDbSymbolTableRecord
100
AcDbBlockTableRecord
  2
*D12
340
0
  0
BLOCK_RECORD
  5
67F
330
1
100
AcDbSymbolTableRecord
100
AcDbBlockTableRecord
  2
*D13
340
0
  0
BLOCK_RECORD
  5
723
330
1
100
AcDbSymbolTableRecord
100
AcDbBlockTableRecord
  2
*D14
340
0
  0
BLOCK_RECORD
  5
7C7
330
1
100
AcDbSymbolTableRecord
100
AcDbBlockTableRecord
  2
*D15
340
0
  0
BLOCK_RECORD
  5
86B
330
1
100
AcDbSymbolTableRecord
100
AcDbBlockTableRecord
  2
*D16
340
0
  0
BLOCK_RECORD
  5
90F
330
1
100
AcDbSymbolTableRecord
100
AcDbBlockTableRecord
  2
*D17
340
0
  0
BLOCK_RECORD
  5
9B8
330
1
100
AcDbSymbolTableRecord
100
AcDbBlockTableRecord
  2
*D18
340
0
  0
BLOCK_RECORD
  5
A5C
330
1
100
AcDbSymbolTableRecord
100
AcDbBlockTableRecord
  2
*D19
340
0
  0
BLOCK_RECORD
  5
ACB
330
1
100
AcDbSymbolTableRecord
100
AcDbBlockTableRecord
  2
*D20
340
0
  0
BLOCK_RECORD
  5
B6F
330
1
100
AcDbSymbolTableRecord
100
AcDbBlockTableRecord
  2
*D21
340
0
  0
BLOCK_RECORD
  5
C13
330
1
100
AcDbSymbolTableRecord
100
AcDbBlockTableRecord
  2
*D22
340
0
  0
BLOCK_RECORD
  5
CB7
330
1
100
AcDbSymbolTableRecord
100
AcDbBlockTableRecord
  2
*D23
340
0
  0
BLOCK_RECORD
  5
D26
330
1
100
AcDbSymbolTableRecord
100
AcDbBlockTableRecord
  2
*D24
340
0
  0
BLOCK_RECORD
  5
D95
330
1
100
AcDbSymbolTableRecord
100
AcDbBlockTableRecord
  2
*D25
340
0
  0
BLOCK_RECORD
  5
E04
330
1
100
AcDbSymbolTableRecord
100
AcDbBlockTableRecord
  2
*D26
340
0
  0
BLOCK_RECORD
  5
EA8
330
1
100
AcDbSymbolTableRecord
100
AcDbBlockTableRecord
  2
*D27
340
0
  0
BLOCK_RECORD
  5
F4C
330
1
100
AcDbSymbolTableRecord
100
AcDbBlockTableRecord
  2
*D28
340
0
  0
BLOCK_RECORD
  5
FBB
330
1
100
AcDbSymbolTableRecord
100
AcDbBlockTableRecord
  2
*D29
340
0
  0
BLOCK_RECORD
  5
102A
330
1
100
AcDbSymbolTableRecord
100
AcDbBlockTableRecord
  2
*D30
340
0
  0
BLOCK_RECORD
  5
10D3
330
1
100
AcDbSymbolTableRecord
100
AcDbBlockTableRecord
  2
*D31
340
0
  0
BLOCK_RECORD
  5
117D
330
1
100
AcDbSymbolTableRecord
100
AcDbBlockTableRecord
  2
*D32
340
0
  0
BLOCK_RECORD
  5
1227
330
1
100
AcDbSymbolTableRecord
100
AcDbBlockTableRecord
  2
*D33
340
0
  0
BLOCK_RECORD
  5
12D0
330
1
100
AcDbSymbolTableRecord
100
AcDbBlockTableRecord
  2
*D34
340
0
  0
ENDTAB
  0
ENDSEC
  0
SECTION
  2
BLOCKS
  0
BLOCK
  5
20
330
1F
100
AcDbEntity
  8
0
100
AcDbBlockBegin
  2
*Model_Space
 70
     0
 10
0.0
 20
0.0
 30
0.0
  3
*Model_Space
  1

  0
ENDBLK
  5
21
330
1F
100
AcDbEntity
  8
0
100
AcDbBlockEnd
  0
BLOCK
  5
1C
330
1B
100
AcDbEntity
 67
     1
  8
0
100
AcDbBlockBegin
  2
*Paper_Space
 70
     0
 10
0.0
 20
0.0
 30
0.0
  3
*Paper_Space
  1

  0
ENDBLK
  5
1D
330
1B
100
AcDbEntity
 67
     1
  8
0
100
AcDbBlockEnd
  0
BLOCK
  5
24
330
23
100
AcDbEntity
  8
0
100
AcDbBlockBegin
  2
*Paper_Space0
 70
     0
 10
0.0
 20
0.0
 30
0.0
  3
*Paper_Space0
  1

  0
ENDBLK
  5
25
330
23
100
AcDbEntity
  8
0
100
AcDbBlockEnd
  0
BLOCK
  5
8A
330
85
100
AcDbEntity
  8
0
100
AcDbBlockBegin
  2
_Closed
 70
     0
 10
0.0
 20
0.0
 30
0.0
  3
_Closed
  1

  0
LINE
  5
86
330
85
100
AcDbEntity
  8
0
  6
ByBlock
 62
     0
370
    -2
100
AcDbLine
 10
-1.0
 20
0.1666666666666666
 30
0.0
 11
0.0
 21
0.0
 31
0.0
  0
LINE
  5
87
330
85
100
AcDbEntity
  8
0
  6
ByBlock
 62
     0
370
    -2
100
AcDbLine
 10
0.0
 20
0.0
 30
0.0
 11
-1.0
 21
-0.1666666666666666
 31
0.0
  0
LINE
  5
88
330
85
100
AcDbEntity
  8
0
  6
ByBlock
 62
     0
370
    -2
100
AcDbLine
 10
-1.0
 20
0.1666666666666666
 30
0.0
 11
-1.0
 21
-0.1666666666666666
 31
0.0
  0
LINE
  5
89
330
85
100
AcDbEntity
  8
0
  6
ByBlock
 62
     0
370
    -2
100
AcDbLine
 10
0.0
 20
0.0
 30
0.0
 11
-1.0
 21
0.0
 31
0.0
  0
ENDBLK
  5
8B
330
85
100
AcDbEntity
  8
0
100
AcDbBlockEnd
  0
BLOCK
  5
96
330
95
100
AcDbEntity
  8
0
100
AcDbBlockBegin
  2
2dTransBorder1
 70
     0
 10
0.0
 20
0.0
 30
0.0
  3
2dTransBorder1
  1

  0
POLYLINE
  5
98
330
95
100
AcDbEntity
  8
Sketch Lines
  6
Continuous
 62
     7
370
    50
100
AcDb2dPolyline
 66
     1
 10
0.0
 20
0.0
 30
0.0
  0
VERTEX
  5
99
330
98
100
AcDbEntity
  8
Sketch Lines
  6
Continuous
 62
     7
370
    50
100
AcDbVertex
100
AcDb2dVertex
 10
1.90499997138977
 20
1.269999980926513
 30
0.0
  0
VERTEX
  5
9A
330
98
100
AcDbEntity
  8
Sketch Lines
  6
Continuous
 62
     7
370
    50
100
AcDbVertex
100
AcDb2dVertex
 10
1.90499997138977
 20
41.9099998474121
 30
0.0
  0
VERTEX
  5
9C
330
98
100
AcDbEntity
  8
Sketch Lines
  6
Continuous
 62
     7
370
    50
100
AcDbVertex
100
AcDb2dVertex
 10
53.9749984741211
 20
41.9099998474121
 30
0.0
  0
VERTEX
  5
9D
330
98
100
AcDbEntity
  8
Sketch Lines
  6
Continuous
 62
     7
370
    50
100
AcDbVertex
100
AcDb2dVertex
 10
53.9749984741211
 20
1.269999980926513
 30
0.0
  0
VERTEX
  5
9E
330
98
100
AcDbEntity
  8
Sketch Lines
  6
Continuous
 62
     7
370
    50
100
AcDbVertex
100
AcDb2dVertex
 10
1.90499997138977
 20
1.269999980926513
 30
0.0
  0
SEQEND
  5
9B
330
98
100
AcDbEntity
  8
Sketch Lines
  6
Continuous
 62
     7
370
    50
  0
POLYLINE
  5
9F
330
95
100
AcDbEntity
  8
Sketch Lines
  6
Continuous
 62
     7
370
    50
100
AcDb2dPolyline
 66
     1
 10
0.0
 20
0.0
 30
0.0
  0
VERTEX
  5
A0
330
9F
100
AcDbEntity
  8
Sketch Lines
  6
Continuous
 62
     7
370
    50
100
AcDbVertex
100
AcDb2dVertex
 10
27.94000053405762
 20
0.6349999904632569
 30
0.0
  0
VERTEX
  5
A1
330
9F
100
AcDbEntity
  8
Sketch Lines
  6
Continuous
 62
     7
370
    50
100
AcDbVertex
100
AcDb2dVertex
 10
27.94000053405762
 20
1.269999980926513
 30
0.0
  0
VERTEX
  5
A3
330
9F
100
AcDbEntity
  8
Sketch Lines
  6
Continuous
 62
     7
370
    50
100
AcDbVertex
100
AcDb2dVertex
 10
27.72002983093261
 20
0.8889999985694885
 30
0.0
  0
VERTEX
  5
A4
330
9F
100
AcDbEntity
  8
Sketch Lines
  6
Continuous
 62
     7
370
    50
100
AcDbVertex
100
AcDb2dVertex
 10
28.15997123718261
 20
0.8889999985694885
 30
0.0
  0
VERTEX
  5
A5
330
9F
100
AcDbEntity
  8
Sketch Lines
  6
Continuous
 62
     7
370
    50
100
AcDbVertex
100
AcDb2dVertex
 10
27.94000053405762
 20
1.269999980926513
 30
0.0
  0
SEQEND
  5
A2
330
9F
100
AcDbEntity
  8
Sketch Lines
  6
Continuous
 62
     7
370
    50
  0
POLYLINE
  5
A6
330
95
100
AcDbEntity
  8
Sketch Lines
  6
Continuous
 62
     7
370
    50
100
AcDb2dPolyline
 66
     1
 10
0.0
 20
0.0
 30
0.0
  0
VERTEX
  5
A7
330
A6
100
AcDbEntity
  8
Sketch Lines
  6
Continuous
 62
     7
370
    50
100
AcDbVertex
100
AcDb2dVertex
 10
27.94000053405762
 20
42.54499816894531
 30
0.0
  0
VERTEX
  5
A8
330
A6
100
AcDbEntity
  8
Sketch Lines
  6
Continuous
 62
     7
370
    50
100
AcDbVertex
100
AcDb2dVertex
 10
27.94000053405762
 20
41.9099998474121
 30
0.0
  0
VERTEX
  5
AA
330
A6
100
AcDbEntity
  8
Sketch Lines
  6
Continuous
 62
     7
370
    50
100
AcDbVertex
100
AcDb2dVertex
 10
27.72002983093261
 20
42.29100036621093
 30
0.0
  0
VERTEX
  5
AB
330
A6
100
AcDbEntity
  8
Sketch Lines
  6
Continuous
 62
     7
370
    50
100
AcDbVertex
100
AcDb2dVertex
 10
28.15997123718261
 20
42.29100036621093
 30
0.0
  0
VERTEX
  5
AC
330
A6
100
AcDbEntity
  8
Sketch Lines
  6
Continuous
 62
     7
370
    50
100
AcDbVertex
100
AcDb2dVertex
 10
27.94000053405762
 20
41.9099998474121
 30
0.0
  0
SEQEND
  5
A9
330
A6
100
AcDbEntity
  8
Sketch Lines
  6
Continuous
 62
     7
370
    50
  0
POLYLINE
  5
AD
330
95
100
AcDbEntity
  8
Sketch Lines
  6
Continuous
 62
     7
370
    50
100
AcDb2dPolyline
 66
     1
 10
0.0
 20
0.0
 30
0.0
  0
VERTEX
  5
AE
330
AD
100
AcDbEntity
  8
Sketch Lines
  6
Continuous
 62
     7
370
    50
100
AcDbVertex
100
AcDb2dVertex
 10
1.269999980926513
 20
21.59000015258789
 30
0.0
  0
VERTEX
  5
AF
330
AD
100
AcDbEntity
  8
Sketch Lines
  6
Continuous
 62
     7
370
    50
100
AcDbVertex
100
AcDb2dVertex
 10
1.90499997138977
 20
21.59000015258789
 30
0.0
  0
VERTEX
  5
B1
330
AD
100
AcDbEntity
  8
Sketch Lines
  6
Continuous
 62
     7
370
    50
100
AcDbVertex
100
AcDb2dVertex
 10
1.52400004863739
 20
21.80997085571289
 30
0.0
  0
VERTEX
  5
B2
330
AD
100
AcDbEntity
  8
Sketch Lines
  6
Continuous
 62
     7
370
    50
100
AcDbVertex
100
AcDb2dVertex
 10
1.52400004863739
 20
21.37002944946289
 30
0.0
  0
VERTEX
  5
B3
330
AD
100
AcDbEntity
  8
Sketch Lines
  6
Continuous
 62
     7
370
    50
100
AcDbVertex
100
AcDb2dVertex
 10
1.90499997138977
 20
21.59000015258789
 30
0.0
  0
SEQEND
  5
B0
330
AD
100
AcDbEntity
  8
Sketch Lines
  6
Continuous
 62
     7
370
    50
  0
POLYLINE
  5
B4
330
95
100
AcDbEntity
  8
Sketch Lines
  6
Continuous
 62
     7
370
    50
100
AcDb2dPolyline
 66
     1
 10
0.0
 20
0.0
 30
0.0
  0
VERTEX
  5
B5
330
B4
100
AcDbEntity
  8
Sketch Lines
  6
Continuous
 62
     7
370
    50
100
AcDbVertex
100
AcDb2dVertex
 10
54.61000061035156
 20
21.59000015258789
 30
0.0
  0
VERTEX
  5
B6
330
B4
100
AcDbEntity
  8
Sketch Lines
  6
Continuous
 62
     7
370
    50
100
AcDbVertex
100
AcDb2dVertex
 10
53.9749984741211
 20
21.59000015258789
 30
0.0
  0
VERTEX
  5
B8
330
B4
100
AcDbEntity
  8
Sketch Lines
  6
Continuous
 62
     7
370
    50
100
AcDbVertex
100
AcDb2dVertex
 10
54.35599899291992
 20
21.80997085571289
 30
0.0
  0
VERTEX
  5
B9
330
B4
100
AcDbEntity
  8
Sketch Lines
  6
Continuous
 62
     7
370
    50
100
AcDbVertex
100
AcDb2dVertex
 10
54.35599899291992
 20
21.37002944946289
 30
0.0
  0
VERTEX
  5
BA
330
B4
100
AcDbEntity
  8
Sketch Lines
  6
Continuous
 62
     7
370
    50
100
AcDbVertex
100
AcDb2dVertex
 10
53.9749984741211
 20
21.59000015258789
 30
0.0
  0
SEQEND
  5
B7
330
B4
100
AcDbEntity
  8
Sketch Lines
  6
Continuous
 62
     7
370
    50
  0
POLYLINE
  5
BB
330
95
100
AcDbEntity
  8
Sketch Lines
  6
Continuous
 62
     7
370
    50
100
AcDb2dPolyline
 66
     1
 10
0.0
 20
0.0
 30
0.0
  0
VERTEX
  5
BC
330
BB
100
AcDbEntity
  8
Sketch Lines
  6
Continuous
 62
     7
370
    50
100
AcDbVertex
100
AcDb2dVertex
 10
13.97000026702881
 20
1.269999980926513
 30
0.0
  0
VERTEX
  5
BD
330
BB
100
AcDbEntity
  8
Sketch Lines
  6
Continuous
 62
     7
370
    50
100
AcDbVertex
100
AcDb2dVertex
 10
13.97000026702881
 20
0.8633999824523925
 30
0.0
  0
SEQEND
  5
BE
330
BB
100
AcDbEntity
  8
Sketch Lines
  6
Continuous
 62
     7
370
    50
  0
POLYLINE
  5
BF
330
95
100
AcDbEntity
  8
Sketch Lines
  6
Continuous
 62
     7
370
    50
100
AcDb2dPolyline
 66
     1
 10
0.0
 20
0.0
 30
0.0
  0
VERTEX
  5
C0
330
BF
100
AcDbEntity
  8
Sketch Lines
  6
Continuous
 62
     7
370
    50
100
AcDbVertex
100
AcDb2dVertex
 10
13.97000026702881
 20
41.9099998474121
 30
0.0
  0
VERTEX
  5
C1
330
BF
100
AcDbEntity
  8
Sketch Lines
  6
Continuous
 62
     7
370
    50
100
AcDbVertex
100
AcDb2dVertex
 10
13.97000026702881
 20
42.31660079956054
 30
0.0
  0
SEQEND
  5
C2
330
BF
100
AcDbEntity
  8
Sketch Lines
  6
Continuous
 62
     7
370
    50
  0
POLYLINE
  5
C3
330
95
100
AcDbEntity
  8
Sketch Lines
  6
Continuous
 62
     7
370
    50
100
AcDb2dPolyline
 66
     1
 10
0.0
 20
0.0
 30
0.0
  0
VERTEX
  5
C4
330
C3
100
AcDbEntity
  8
Sketch Lines
  6
Continuous
 62
     7
370
    50
100
AcDbVertex
100
AcDb2dVertex
 10
41.9099998474121
 20
1.269999980926513
 30
0.0
  0
VERTEX
  5
C5
330
C3
100
AcDbEntity
  8
Sketch Lines
  6
Continuous
 62
     7
370
    50
100
AcDbVertex
100
AcDb2dVertex
 10
41.9099998474121
 20
0.8633999824523925
 30
0.0
  0
SEQEND
  5
C6
330
C3
100
AcDbEntity
  8
Sketch Lines
  6
Continuous
 62
     7
370
    50
  0
POLYLINE
  5
C7
330
95
100
AcDbEntity
  8
Sketch Lines
  6
Continuous
 62
     7
370
    50
100
AcDb2dPolyline
 66
     1
 10
0.0
 20
0.0
 30
0.0
  0
VERTEX
  5
C8
330
C7
100
AcDbEntity
  8
Sketch Lines
  6
Continuous
 62
     7
370
    50
100
AcDbVertex
100
AcDb2dVertex
 10
41.9099998474121
 20
41.9099998474121
 30
0.0
  0
VERTEX
  5
C9
330
C7
100
AcDbEntity
  8
Sketch Lines
  6
Continuous
 62
     7
370
    50
100
AcDbVertex
100
AcDb2dVertex
 10
41.9099998474121
 20
42.31660079956054
 30
0.0
  0
SEQEND
  5
CA
330
C7
100
AcDbEntity
  8
Sketch Lines
  6
Continuous
 62
     7
370
    50
  0
POLYLINE
  5
D5
330
95
100
AcDbEntity
  8
Sketch Lines
  6
Continuous
 62
     7
370
    50
100
AcDb2dPolyline
 66
     1
 10
0.0
 20
0.0
 30
0.0
  0
VERTEX
  5
D6
330
D5
100
AcDbEntity
  8
Sketch Lines
  6
Continuous
 62
     7
370
    50
100
AcDbVertex
100
AcDb2dVertex
 10
1.90499997138977
 20
10.79500007629394
 30
0.0
  0
VERTEX
  5
D7
330
D5
100
AcDbEntity
  8
Sketch Lines
  6
Continuous
 62
     7
370
    50
100
AcDbVertex
100
AcDb2dVertex
 10
1.498399972915649
 20
10.79500007629394
 30
0.0
  0
SEQEND
  5
D8
330
D5
100
AcDbEntity
  8
Sketch Lines
  6
Continuous
 62
     7
370
    50
  0
POLYLINE
  5
D9
330
95
100
AcDbEntity
  8
Sketch Lines
  6
Continuous
 62
     7
370
    50
100
AcDb2dPolyline
 66
     1
 10
0.0
 20
0.0
 30
0.0
  0
VERTEX
  5
DA
330
D9
100
AcDbEntity
  8
Sketch Lines
  6
Continuous
 62
     7
370
    50
100
AcDbVertex
100
AcDb2dVertex
 10
53.9749984741211
 20
10.79500007629394
 30
0.0
  0
VERTEX
  5
DB
330
D9
100
AcDbEntity
  8
Sketch Lines
  6
Continuous
 62
     7
370
    50
100
AcDbVertex
100
AcDb2dVertex
 10
54.38159942626953
 20
10.79500007629394
 30
0.0
  0
SEQEND
  5
DC
330
D9
100
AcDbEntity
  8
Sketch Lines
  6
Continuous
 62
     7
370
    50
  0
POLYLINE
  5
DD
330
95
100
AcDbEntity
  8
Sketch Lines
  6
Continuous
 62
     7
370
    50
100
AcDb2dPolyline
 66
     1
 10
0.0
 20
0.0
 30
0.0
  0
VERTEX
  5
DE
330
DD
100
AcDbEntity
  8
Sketch Lines
  6
Continuous
 62
     7
370
    50
100
AcDbVertex
100
AcDb2dVertex
 10
1.90499997138977
 20
32.3849983215332
 30
0.0
  0
VERTEX
  5
DF
330
DD
100
AcDbEntity
  8
Sketch Lines
  6
Continuous
 62
     7
370
    50
100
AcDbVertex
100
AcDb2dVertex
 10
1.498399972915649
 20
32.3849983215332
 30
0.0
  0
SEQEND
  5
E0
330
DD
100
AcDbEntity
  8
Sketch Lines
  6
Continuous
 62
     7
370
    50
  0
POLYLINE
  5
E1
330
95
100
AcDbEntity
  8
Sketch Lines
  6
Continuous
 62
     7
370
    50
100
AcDb2dPolyline
 66
     1
 10
0.0
 20
0.0
 30
0.0
  0
VERTEX
  5
E2
330
E1
100
AcDbEntity
  8
Sketch Lines
  6
Continuous
 62
     7
370
    50
100
AcDbVertex
100
AcDb2dVertex
 10
53.9749984741211
 20
32.3849983215332
 30
0.0
  0
VERTEX
  5
E3
330
E1
100
AcDbEntity
  8
Sketch Lines
  6
Continuous
 62
     7
370
    50
100
AcDbVertex
100
AcDb2dVertex
 10
54.38159942626953
 20
32.3849983215332
 30
0.0
  0
SEQEND
  5
E4
330
E1
100
AcDbEntity
  8
Sketch Lines
  6
Continuous
 62
     7
370
    50
  0
ENDBLK
  5
97
330
95
100
AcDbEntity
  8
0
100
AcDbBlockEnd
  0
BLOCK
  5
EF
330
EE
100
AcDbEntity
  8
0
100
AcDbBlockBegin
  2
2dTransTitleBlock1
 70
     0
 10
0.0
 20
0.0
 30
0.0
  3
2dTransTitleBlock1
  1

  0
LINE
  5
F1
330
EE
100
AcDbEntity
  8
Sketch Lines
  6
Continuous
 62
     7
370
    50
100
AcDbLine
 10
34.3154
 20
6.667510837499998
 30
0.0
 11
41.22024038236159
 21
6.667510837499998
 31
0.0
  0
LINE
  5
F2
330
EE
100
AcDbEntity
  8
Sketch Lines
  6
Continuous
 62
     7
370
    50
100
AcDbLine
 10
34.3154
 20
5.715008924999997
 30
0.0
 11
41.22024038236159
 21
5.715008924999997
 31
0.0
  0
LINE
  5
F3
330
EE
100
AcDbEntity
  8
Sketch Lines
  6
Continuous
 62
     7
370
    50
100
AcDbLine
 10
34.3154
 20
4.7625070125
 30
0.0
 11
41.22024038236159
 21
4.7625070125
 31
0.0
  0
LINE
  5
F4
330
EE
100
AcDbEntity
  8
Sketch Lines
  6
Continuous
 62
     7
370
    50
100
AcDbLine
 10
34.3154
 20
3.810005099999999
 30
0.0
 11
41.22024038236159
 21
3.810005099999999
 31
0.0
  0
LINE
  5
F5
330
EE
100
AcDbEntity
  8
Sketch Lines
  6
Continuous
 62
     7
370
    50
100
AcDbLine
 10
34.3154
 20
2.857503187499998
 30
0.0
 11
41.22024038236159
 21
2.857503187499998
 31
0.0
  0
LINE
  5
F6
330
EE
100
AcDbEntity
  8
Sketch Lines
  6
Continuous
 62
     7
370
    50
100
AcDbLine
 10
38.760408925
 20
1.269999999999999
 30
0.0
 11
38.760408925
 21
7.620012749999999
 31
0.0
  0
LINE
  5
F7
330
EE
100
AcDbEntity
  8
Sketch Lines
  6
Continuous
 62
     7
370
    50
100
AcDbLine
 10
52.400236312
 20
1.905001274999998
 30
0.0
 11
52.400236312
 21
3.175003824999999
 31
0.0
  0
LINE
  5
F8
330
EE
100
AcDbEntity
  8
Sketch Lines
  6
Continuous
 62
     7
370
    50
100
AcDbLine
 10
48.717228917
 20
1.905001274999998
 30
0.0
 11
48.717228917
 21
1.269999999999999
 31
0.0
  0
LINE
  5
F9
330
EE
100
AcDbEntity
  8
Sketch Lines
  6
Continuous
 62
     7
370
    50
100
AcDbLine
 10
44.78022101199999
 20
1.905001274999998
 30
0.0
 11
44.78022101199999
 21
3.175003824999999
 31
0.0
  0
LINE
  5
FA
330
EE
100
AcDbEntity
  8
Sketch Lines
  6
Continuous
 62
     7
370
    50
100
AcDbLine
 10
44.145219737
 20
1.905001274999998
 30
0.0
 11
44.145219737
 21
1.269999999999999
 31
0.0
  0
LINE
  5
FB
330
EE
100
AcDbEntity
  8
Sketch Lines
  6
Continuous
 62
     7
370
    50
100
AcDbLine
 10
42.34533426782074
 20
1.905001274999998
 30
0.0
 11
42.34533426782074
 21
3.175003824999999
 31
0.0
  0
LINE
  5
FC
330
EE
100
AcDbEntity
  8
Sketch Lines
  6
Continuous
 62
     7
370
    50
100
AcDbLine
 10
41.22024038236159
 20
1.905001274999998
 30
0.0
 11
34.3154
 21
1.905001274999998
 31
0.0
  0
LINE
  5
FD
330
EE
100
AcDbEntity
  8
Sketch Lines
  6
Continuous
 62
     7
370
    50
100
AcDbLine
 10
53.975
 20
1.905001275000008
 30
0.0
 11
41.22024038236159
 21
1.905001274999998
 31
0.0
  0
LINE
  5
FE
330
EE
100
AcDbEntity
  8
Sketch Lines
  6
Continuous
 62
     7
370
    50
100
AcDbLine
 10
53.975
 20
3.175003825000006
 30
0.0
 11
41.22024038236159
 21
3.175003824999999
 31
0.0
  0
LINE
  5
FF
330
EE
100
AcDbEntity
  8
Sketch Lines
  6
Continuous
 62
     7
370
    50
100
AcDbLine
 10
41.22024038236159
 20
6.045209588
 30
0.0
 11
53.97499999999999
 21
6.045209588000007
 31
0.0
  0
LINE
  5
100
330
EE
100
AcDbEntity
  8
Sketch Lines
  6
Continuous
 62
     7
370
    50
100
AcDbLine
 10
41.22024038236159
 20
1.269999999999999
 30
0.0
 11
41.22024038236159
 21
7.620012749999999
 31
0.0
  0
LINE
  5
101
330
EE
100
AcDbEntity
  8
Sketch Lines
  6
Continuous
 62
     7
370
    50
100
AcDbLine
 10
53.975
 20
7.620012750000006
 30
0.0
 11
34.3154
 21
7.620012749999999
 31
0.0
  0
LINE
  5
102
330
EE
100
AcDbEntity
  8
Sketch Lines
  6
Continuous
 62
     7
370
    50
100
AcDbLine
 10
53.975
 20
1.270000000000003
 30
0.0
 11
53.975
 21
7.620012750000006
 31
0.0
  0
LINE
  5
103
330
EE
100
AcDbEntity
  8
Sketch Lines
  6
Continuous
 62
     7
370
    50
100
AcDbLine
 10
34.3154
 20
1.269999999999999
 30
0.0
 11
53.975
 21
1.270000000000003
 31
0.0
  0
LINE
  5
104
330
EE
100
AcDbEntity
  8
Sketch Lines
  6
Continuous
 62
     7
370
    50
100
AcDbLine
 10
34.3154
 20
7.620012749999999
 30
0.0
 11
34.3154
 21
1.269999999999999
 31
0.0
  0
ENDBLK
  5
F0
330
EE
100
AcDbEntity
  8
0
100
AcDbBlockEnd
  0
BLOCK
  5
160
330
155
100
AcDbEntity
  8
0
100
AcDbBlockBegin
  2
*D4
 70
     1
 10
0.0
 20
0.0
 30
0.0
  3
*D4
  1

  0
LINE
  5
1EE
330
155
100
AcDbEntity
  8
Dimensions
  6
Continuous
 62
    47
370
    25
100
AcDbLine
 10
6.519307961955616
 20
8.779842289316917
 30
0.0
 11
4.592659662365622
 21
8.779842289316917
 31
0.0
  0
LINE
  5
1EF
330
155
100
AcDbEntity
  8
Dimensions
  6
Continuous
 62
    47
370
    25
100
AcDbLine
 10
6.519307961955616
 20
6.709842289316918
 30
0.0
 11
4.592659662365622
 21
6.709842289316918
 31
0.0
  0
LINE
  5
1F0
330
155
100
AcDbEntity
  8
Dimensions
  6
Continuous
 62
    47
370
    25
100
AcDbLine
 10
4.717659662365622
 20
8.681417094695831
 30
0.0
 11
4.717659662365622
 21
8.168836337574331
 31
0.0
  0
LINE
  5
1F1
330
155
100
AcDbEntity
  8
Dimensions
  6
Continuous
 62
    47
370
    25
100
AcDbLine
 10
4.717659662365622
 20
6.808267483938005
 30
0.0
 11
4.717659662365622
 21
7.723663024112344
 31
0.0
  0
SOLID
  5
1F2
330
155
100
AcDbEntity
  8
Dimensions
  6
Continuous
 62
    47
100
AcDbTrace
 10
4.701255463262107
 20
8.681417094695831
 30
0.0
 11
4.734063861469136
 21
8.681417094695831
 31
0.0
 12
4.717659662365622
 22
8.779842289316917
 32
0.0
 13
4.717659662365622
 23
8.779842289316917
 33
0.0
  0
SOLID
  5
1F3
330
155
100
AcDbEntity
  8
Dimensions
  6
Continuous
 62
    47
100
AcDbTrace
 10
4.701255463262107
 20
6.808267483938005
 30
0.0
 11
4.734063861469136
 21
6.808267483938005
 31
0.0
 12
4.717659662365622
 22
6.709842289316918
 32
0.0
 13
4.717659662365622
 23
6.709842289316918
 33
0.0
  0
MTEXT
  5
1F4
330
155
100
AcDbEntity
  8
Dimensions
  6
Continuous
 62
    47
370
    25
100
AcDbMText
 10
4.717659662365621
 20
7.946249680843338
 30
0.0
 40
0.1200000047683716
 41
0.0
 71
     5
 72
     1
  1
\A1;2.070
  7
TextStyle8
 11
0.0000000000000001
 21
1.0
 31
0.0
 73
     1
 44
1.0
  0
POINT
  5
1F5
330
155
100
AcDbEntity
  8
Defpoints
  6
Continuous
 62
     0
100
AcDbPoint
 10
6.581807961955616
 20
8.779842289316917
 30
0.0
  0
POINT
  5
1F6
330
155
100
AcDbEntity
  8
Defpoints
  6
Continuous
 62
     0
100
AcDbPoint
 10
6.581807961955616
 20
6.709842289316918
 30
0.0
  0
POINT
  5
1F7
330
155
100
AcDbEntity
  8
Defpoints
  6
Continuous
 62
     0
100
AcDbPoint
 10
4.717659662365622
 20
6.709842289316918
 30
0.0
  0
ENDBLK
  5
161
330
155
100
AcDbEntity
  8
0
100
AcDbBlockEnd
  0
BLOCK
  5
204
330
1F9
100
AcDbEntity
  8
0
100
AcDbBlockBegin
  2
*D5
 70
     1
 10
0.0
 20
0.0
 30
0.0
  3
*D5
  1

  0
LINE
  5
292
330
1F9
100
AcDbEntity
  8
Dimensions
  6
Continuous
 62
    47
370
    25
100
AcDbLine
 10
6.581807961955616
 20
6.772342289316918
 30
0.0
 11
6.581807961955616
 21
13.13405488774211
 31
0.0
  0
LINE
  5
293
330
1F9
100
AcDbEntity
  8
Dimensions
  6
Continuous
 62
    47
370
    25
100
AcDbLine
 10
15.16180796195561
 20
6.772342289316918
 30
0.0
 11
15.16180796195561
 21
13.13405488774211
 31
0.0
  0
LINE
  5
294
330
1F9
100
AcDbEntity
  8
Dimensions
  6
Continuous
 62
    47
370
    25
100
AcDbLine
 10
6.680233156576703
 20
13.00905488774211
 30
0.0
 11
9.887637291428347
 21
13.00905488774211
 31
0.0
  0
LINE
  5
295
330
1F9
100
AcDbEntity
  8
Dimensions
  6
Continuous
 62
    47
370
    25
100
AcDbLine
 10
15.06338276733452
 20
13.00905488774211
 30
0.0
 11
10.33104089131836
 21
13.00905488774211
 31
0.0
  0
SOLID
  5
296
330
1F9
100
AcDbEntity
  8
Dimensions
  6
Continuous
 62
    47
100
AcDbTrace
 10
6.680233156576703
 20
13.02545908684562
 30
0.0
 11
6.680233156576703
 21
12.9926506886386
 31
0.0
 12
6.581807961955616
 22
13.00905488774211
 32
0.0
 13
6.581807961955616
 23
13.00905488774211
 33
0.0
  0
SOLID
  5
297
330
1F9
100
AcDbEntity
  8
Dimensions
  6
Continuous
 62
    47
100
AcDbTrace
 10
15.06338276733452
 20
13.02545908684562
 30
0.0
 11
15.06338276733452
 21
12.9926506886386
 31
0.0
 12
15.16180796195561
 22
13.00905488774211
 32
0.0
 13
15.16180796195561
 23
13.00905488774211
 33
0.0
  0
MTEXT
  5
298
330
1F9
100
AcDbEntity
  8
Dimensions
  6
Continuous
 62
    47
370
    25
100
AcDbMText
 10
10.10933909137335
 20
13.00905488774211
 30
0.0
 40
0.1200000047683716
 41
0.0
 71
     5
 72
     1
  1
\A1;8.580
  7
TextStyle8
 73
     1
 44
1.0
  0
POINT
  5
299
330
1F9
100
AcDbEntity
  8
Defpoints
  6
Continuous
 62
     0
100
AcDbPoint
 10
6.581807961955616
 20
6.709842289316918
 30
0.0
  0
POINT
  5
29A
330
1F9
100
AcDbEntity
  8
Defpoints
  6
Continuous
 62
     0
100
AcDbPoint
 10
15.16180796195561
 20
6.709842289316918
 30
0.0
  0
POINT
  5
29B
330
1F9
100
AcDbEntity
  8
Defpoints
  6
Continuous
 62
     0
100
AcDbPoint
 10
15.16180796195561
 20
13.00905488774211
 30
0.0
  0
ENDBLK
  5
205
330
1F9
100
AcDbEntity
  8
0
100
AcDbBlockEnd
  0
BLOCK
  5
2A8
330
29D
100
AcDbEntity
  8
0
100
AcDbBlockBegin
  2
*D6
 70
     1
 10
0.0
 20
0.0
 30
0.0
  3
*D6
  1

  0
LINE
  5
336
330
29D
100
AcDbEntity
  8
Dimensions
  6
Continuous
 62
    47
370
    25
100
AcDbLine
 10
6.821807961955617
 20
7.357342289316918
 30
0.0
 11
6.821807961955617
 21
5.833167231189336
 31
0.0
  0
LINE
  5
337
330
29D
100
AcDbEntity
  8
Dimensions
  6
Continuous
 62
    47
370
    25
100
AcDbLine
 10
7.201807961955617
 20
7.357342289316918
 30
0.0
 11
7.201807961955617
 21
5.833167231189336
 31
0.0
  0
LINE
  5
338
330
29D
100
AcDbEntity
  8
Dimensions
  6
Continuous
 62
    47
370
    25
100
AcDbLine
 10
7.10338276733453
 20
5.958167231189336
 30
0.0
 11
6.920233156576703
 21
5.958167231189336
 31
0.0
  0
LINE
  5
339
330
29D
100
AcDbEntity
  8
Dimensions
  6
Continuous
 62
    47
370
    25
100
AcDbLine
 10
6.821807961955617
 20
5.958167231189336
 30
0.0
 11
6.338894517512726
 21
5.958167231189336
 31
0.0
  0
SOLID
  5
33A
330
29D
100
AcDbEntity
  8
Dimensions
  6
Continuous
 62
    47
100
AcDbTrace
 10
7.10338276733453
 20
5.974571430292851
 30
0.0
 11
7.10338276733453
 21
5.941763032085821
 31
0.0
 12
7.201807961955617
 22
5.958167231189336
 32
0.0
 13
7.201807961955617
 23
5.958167231189336
 33
0.0
  0
SOLID
  5
33B
330
29D
100
AcDbEntity
  8
Dimensions
  6
Continuous
 62
    47
100
AcDbTrace
 10
6.920233156576703
 20
5.974571430292851
 30
0.0
 11
6.920233156576703
 21
5.941763032085821
 31
0.0
 12
6.821807961955617
 22
5.958167231189336
 32
0.0
 13
6.821807961955617
 23
5.958167231189336
 33
0.0
  0
MTEXT
  5
33C
330
29D
100
AcDbEntity
  8
Dimensions
  6
Continuous
 62
    47
370
    25
100
AcDbMText
 10
6.117269661636065
 20
5.958167231189336
 30
0.0
 40
0.1200000047683716
 41
0.0
 71
     5
 72
     1
  1
\A1;0.380
  7
TextStyle8
 73
     1
 44
1.0
  0
POINT
  5
33D
330
29D
100
AcDbEntity
  8
Defpoints
  6
Continuous
 62
     0
100
AcDbPoint
 10
6.821807961955617
 20
7.419842289316918
 30
0.0
  0
POINT
  5
33E
330
29D
100
AcDbEntity
  8
Defpoints
  6
Continuous
 62
     0
100
AcDbPoint
 10
7.201807961955617
 20
7.419842289316918
 30
0.0
  0
POINT
  5
33F
330
29D
100
AcDbEntity
  8
Defpoints
  6
Continuous
 62
     0
100
AcDbPoint
 10
7.201807961955617
 20
5.958167231189336
 30
0.0
  0
ENDBLK
  5
2A9
330
29D
100
AcDbEntity
  8
0
100
AcDbBlockEnd
  0
BLOCK
  5
34C
330
341
100
AcDbEntity
  8
0
100
AcDbBlockBegin
  2
*D7
 70
     1
 10
0.0
 20
0.0
 30
0.0
  3
*D7
  1

  0
LINE
  5
3DF
330
341
100
AcDbEntity
  8
Dimensions
  6
Continuous
 62
    47
370
    25
100
AcDbLine
 10
6.759307961955617
 20
6.959842289316917
 30
0.0
 11
5.880168735339699
 21
6.959842289316918
 31
0.0
  0
LINE
  5
3E0
330
341
100
AcDbEntity
  8
Dimensions
  6
Continuous
 62
    47
370
    25
100
AcDbLine
 10
6.759307961955617
 20
7.419842289316918
 30
0.0
 11
5.880168735339699
 21
7.419842289316918
 31
0.0
  0
LINE
  5
3E1
330
341
100
AcDbEntity
  8
Dimensions
  6
Continuous
 62
    47
370
    25
100
AcDbLine
 10
6.005168735339699
 20
7.058267483938003
 30
0.0
 11
6.005168735339699
 21
7.321417094695831
 31
0.0
  0
LINE
  5
3E2
330
341
100
AcDbEntity
  8
Dimensions
  6
Continuous
 62
    47
370
    25
100
AcDbLine
 10
6.005168735339699
 20
7.419842289316918
 30
0.0
 11
6.005168735339699
 21
7.998468473380717
 31
0.0
  0
SOLID
  5
3E3
330
341
100
AcDbEntity
  8
Dimensions
  6
Continuous
 62
    47
100
AcDbTrace
 10
5.988764536236184
 20
7.058267483938004
 30
0.0
 11
6.021572934443214
 21
7.058267483938003
 31
0.0
 12
6.005168735339699
 22
6.959842289316917
 32
0.0
 13
6.005168735339699
 23
6.959842289316917
 33
0.0
  0
SOLID
  5
3E4
330
341
100
AcDbEntity
  8
Dimensions
  6
Continuous
 62
    47
100
AcDbTrace
 10
5.988764536236184
 20
7.321417094695832
 30
0.0
 11
6.021572934443214
 21
7.321417094695831
 31
0.0
 12
6.005168735339699
 22
7.419842289316918
 32
0.0
 13
6.005168735339699
 23
7.419842289316918
 33
0.0
  0
MTEXT
  5
3E5
330
341
100
AcDbEntity
  8
Dimensions
  6
Continuous
 62
    47
370
    25
100
AcDbMText
 10
6.005168735339698
 20
8.22009332925738
 30
0.0
 40
0.1200000047683716
 41
0.0
 71
     5
 72
     1
  1
\A1;0.460
  7
TextStyle8
 11
0.0000000000000001
 21
1.0
 31
0.0
 73
     1
 44
1.0
  0
POINT
  5
3E6
330
341
100
AcDbEntity
  8
Defpoints
  6
Continuous
 62
     0
100
AcDbPoint
 10
6.821807961955617
 20
6.959842289316917
 30
0.0
  0
POINT
  5
3E7
330
341
100
AcDbEntity
  8
Defpoints
  6
Continuous
 62
     0
100
AcDbPoint
 10
6.821807961955617
 20
7.419842289316918
 30
0.0
  0
POINT
  5
3E8
330
341
100
AcDbEntity
  8
Defpoints
  6
Continuous
 62
     0
100
AcDbPoint
 10
6.005168735339699
 20
7.419842289316918
 30
0.0
  0
ENDBLK
  5
34D
330
341
100
AcDbEntity
  8
0
100
AcDbBlockEnd
  0
BLOCK
  5
3F0
330
3EA
100
AcDbEntity
  8
0
100
AcDbBlockBegin
  2
*D8
 70
     1
 10
0.0
 20
0.0
 30
0.0
  3
*D8
  1

  0
LINE
  5
450
330
3EA
100
AcDbEntity
  8
Dimensions
  6
Continuous
 62
    47
370
    25
100
AcDbLine
 10
7.037059327870682
 20
5.433313464480677
 30
0.0
 11
7.262405115584593
 21
5.433313464480677
 31
0.0
  0
LINE
  5
451
330
3EA
100
AcDbEntity
  8
Dimensions
  6
Continuous
 62
    47
370
    25
100
AcDbLine
 10
7.262405115584593
 20
5.433313464480677
 30
0.0
 11
7.64170753738235
 21
6.953757555300817
 31
0.0
  0
MTEXT
  5
452
330
3EA
100
AcDbEntity
  8
Dimensions
  6
Continuous
 62
    47
370
    25
100
AcDbMText
 10
6.753456024940806
 20
5.433313464480679
 30
0.0
 40
0.1200000047683716
 41
0.0
 71
     5
 72
     1
  1
\A1;\U+22050.465
  7
TextStyle8
 73
     1
 44
1.0
  0
SOLID
  5
453
330
3EA
100
AcDbEntity
  8
Dimensions
  6
Continuous
 62
    47
100
AcDbTrace
 10
7.625791136964637
 20
6.957728190762648
 30
0.0
 11
7.657623937800064
 21
6.949786919838986
 31
0.0
 12
7.665531350153335
 22
7.049255957807099
 32
0.0
 13
7.665531350153335
 23
7.049255957807099
 33
0.0
  0
LINE
  5
454
330
3EA
100
AcDbEntity
  8
Dimensions
  6
Continuous
 62
    47
370
    25
100
AcDbLine
 10
7.631807961955608
 20
7.274842289316911
 30
0.0
 11
7.811807961955608
 21
7.274842289316912
 31
0.0
  0
LINE
  5
455
330
3EA
100
AcDbEntity
  8
Dimensions
  6
Continuous
 62
    47
370
    25
100
AcDbLine
 10
7.721807961955608
 20
7.18484228931691
 30
0.0
 11
7.721807961955608
 21
7.364842289316912
 31
0.0
  0
POINT
  5
456
330
3EA
100
AcDbEntity
  8
Defpoints
  6
Continuous
 62
     0
100
AcDbPoint
 10
7.665531350153335
 20
7.049255957807099
 30
0.0
  0
POINT
  5
457
330
3EA
100
AcDbEntity
  8
Defpoints
  6
Continuous
 62
     0
100
AcDbPoint
 10
7.77808457375788
 20
7.500428620826721
 30
0.0
  0
ENDBLK
  5
3F1
330
3EA
100
AcDbEntity
  8
0
100
AcDbBlockEnd
  0
BLOCK
  5
45F
330
459
100
AcDbEntity
  8
0
100
AcDbBlockBegin
  2
*D9
 70
     1
 10
0.0
 20
0.0
 30
0.0
  3
*D9
  1

  0
LINE
  5
4BF
330
459
100
AcDbEntity
  8
Dimensions
  6
Continuous
 62
    47
370
    25
100
AcDbLine
 10
8.09654319027596
 20
5.430847908523931
 30
0.0
 11
8.24021860092094
 21
5.430847908523931
 31
0.0
  0
LINE
  5
4C0
330
459
100
AcDbEntity
  8
Dimensions
  6
Continuous
 62
    47
370
    25
100
AcDbLine
 10
8.24021860092094
 20
5.430847908523931
 30
0.0
 11
8.424822079833246
 21
6.948052795071702
 31
0.0
  0
MTEXT
  5
4C1
330
459
100
AcDbEntity
  8
Dimensions
  6
Continuous
 62
    47
370
    25
100
AcDbMText
 10
7.813555439892858
 20
5.430847908523933
 30
0.0
 40
0.1200000047683716
 41
0.0
 71
     5
 72
     1
  1
\A1;\U+22050.250
  7
TextStyle8
 73
     1
 44
1.0
  0
SOLID
  5
4C2
330
459
100
AcDbEntity
  8
Dimensions
  6
Continuous
 62
    47
100
AcDbTrace
 10
8.408537976203676
 20
6.950034137346329
 30
0.0
 11
8.441106183462814
 21
6.946071452797076
 31
0.0
 12
8.436710133481003
 22
7.045757416849111
 32
0.0
 13
8.436710133481003
 23
7.045757416849111
 33
0.0
  0
LINE
  5
4C3
330
459
100
AcDbEntity
  8
Dimensions
  6
Continuous
 62
    47
370
    25
100
AcDbLine
 10
8.361807961955618
 20
7.169842289316916
 30
0.0
 11
8.541807961955617
 21
7.169842289316915
 31
0.0
  0
LINE
  5
4C4
330
459
100
AcDbEntity
  8
Dimensions
  6
Continuous
 62
    47
370
    25
100
AcDbLine
 10
8.451807961955617
 20
7.079842289316917
 30
0.0
 11
8.451807961955617
 21
7.259842289316915
 31
0.0
  0
POINT
  5
4C5
330
459
100
AcDbEntity
  8
Defpoints
  6
Continuous
 62
     0
100
AcDbPoint
 10
8.436710133481003
 20
7.045757416849111
 30
0.0
  0
POINT
  5
4C6
330
459
100
AcDbEntity
  8
Defpoints
  6
Continuous
 62
     0
100
AcDbPoint
 10
8.466905790430233
 20
7.293927161784717
 30
0.0
  0
ENDBLK
  5
460
330
459
100
AcDbEntity
  8
0
100
AcDbBlockEnd
  0
BLOCK
  5
4CE
330
4C8
100
AcDbEntity
  8
0
100
AcDbBlockBegin
  2
*D10
 70
     1
 10
0.0
 20
0.0
 30
0.0
  3
*D10
  1

  0
LINE
  5
52E
330
4C8
100
AcDbEntity
  8
Dimensions
  6
Continuous
 62
    47
370
    25
100
AcDbLine
 10
8.59742878227963
 20
5.02817515412227
 30
0.0
 11
8.741104192924526
 21
5.028175154122269
 31
0.0
  0
LINE
  5
52F
330
4C8
100
AcDbEntity
  8
Dimensions
  6
Continuous
 62
    47
370
    25
100
AcDbLine
 10
8.741104192924526
 20
5.028175154122269
 30
0.0
 11
8.929932322026678
 21
6.947490599489341
 31
0.0
  0
MTEXT
  5
530
330
4C8
100
AcDbEntity
  8
Dimensions
  6
Continuous
 62
    47
370
    25
100
AcDbMText
 10
8.314441031896526
 20
5.028175154122271
 30
0.0
 40
0.1200000047683716
 41
0.0
 71
     5
 72
     1
  1
\A1;\U+22050.250
  7
TextStyle8
 73
     1
 44
1.0
  0
SOLID
  5
531
330
4C8
100
AcDbEntity
  8
Dimensions
  6
Continuous
 62
    47
100
AcDbTrace
 10
8.913606941188945
 20
6.949096740432931
 30
0.0
 11
8.946257702864413
 21
6.945884458545751
 31
0.0
 12
8.939569167688219
 22
7.045442884515747
 32
0.0
 13
8.939569167688219
 23
7.045442884515747
 33
0.0
  0
LINE
  5
532
330
4C8
100
AcDbEntity
  8
Dimensions
  6
Continuous
 62
    47
370
    25
100
AcDbLine
 10
8.861807961955587
 20
7.169842289316903
 30
0.0
 11
9.041807961955585
 21
7.169842289316903
 31
0.0
  0
LINE
  5
533
330
4C8
100
AcDbEntity
  8
Dimensions
  6
Continuous
 62
    47
370
    25
100
AcDbLine
 10
8.951807961955587
 20
7.079842289316903
 30
0.0
 11
8.951807961955587
 21
7.259842289316901
 31
0.0
  0
POINT
  5
534
330
4C8
100
AcDbEntity
  8
Defpoints
  6
Continuous
 62
     0
100
AcDbPoint
 10
8.939569167688219
 20
7.045442884515747
 30
0.0
  0
POINT
  5
535
330
4C8
100
AcDbEntity
  8
Defpoints
  6
Continuous
 62
     0
100
AcDbPoint
 10
8.96404675622295
 20
7.294241694118058
 30
0.0
  0
ENDBLK
  5
4CF
330
4C8
100
AcDbEntity
  8
0
100
AcDbBlockEnd
  0
BLOCK
  5
542
330
537
100
AcDbEntity
  8
0
100
AcDbBlockBegin
  2
*D11
 70
     1
 10
0.0
 20
0.0
 30
0.0
  3
*D11
  1

  0
LINE
  5
5D0
330
537
100
AcDbEntity
  8
Dimensions
  6
Continuous
 62
    47
370
    25
100
AcDbLine
 10
6.581807961955616
 20
6.647342289316918
 30
0.0
 11
6.581807961955616
 21
6.191141501915343
 31
0.0
  0
LINE
  5
5D1
330
537
100
AcDbEntity
  8
Dimensions
  6
Continuous
 62
    47
370
    25
100
AcDbLine
 10
6.821807961955617
 20
6.897342289316917
 30
0.0
 11
6.821807961955617
 21
6.191141501915343
 31
0.0
  0
LINE
  5
5D2
330
537
100
AcDbEntity
  8
Dimensions
  6
Continuous
 62
    47
370
    25
100
AcDbLine
 10
6.920233156576703
 20
6.316141501915343
 30
0.0
 11
7.018658351197789
 21
6.316141501915343
 31
0.0
  0
LINE
  5
5D3
330
537
100
AcDbEntity
  8
Dimensions
  6
Continuous
 62
    47
370
    25
100
AcDbLine
 10
6.48338276733453
 20
6.316141501915343
 30
0.0
 11
6.291180540264869
 21
6.316141501915343
 31
0.0
  0
SOLID
  5
5D4
330
537
100
AcDbEntity
  8
Dimensions
  6
Continuous
 62
    47
100
AcDbTrace
 10
6.920233156576703
 20
6.332545701018857
 30
0.0
 11
6.920233156576703
 21
6.299737302811828
 31
0.0
 12
6.821807961955617
 22
6.316141501915343
 32
0.0
 13
6.821807961955617
 23
6.316141501915343
 33
0.0
  0
SOLID
  5
5D5
330
537
100
AcDbEntity
  8
Dimensions
  6
Continuous
 62
    47
100
AcDbTrace
 10
6.48338276733453
 20
6.332545701018857
 30
0.0
 11
6.48338276733453
 21
6.299737302811828
 31
0.0
 12
6.581807961955616
 22
6.316141501915343
 32
0.0
 13
6.581807961955616
 23
6.316141501915343
 33
0.0
  0
MTEXT
  5
5D6
330
537
100
AcDbEntity
  8
Dimensions
  6
Continuous
 62
    47
370
    25
100
AcDbMText
 10
6.069555684388207
 20
6.316141501915343
 30
0.0
 40
0.1200000047683716
 41
0.0
 71
     5
 72
     1
  1
\A1;0.240
  7
TextStyle8
 73
     1
 44
1.0
  0
POINT
  5
5D7
330
537
100
AcDbEntity
  8
Defpoints
  6
Continuous
 62
     0
100
AcDbPoint
 10
6.581807961955616
 20
6.709842289316918
 30
0.0
  0
POINT
  5
5D8
330
537
100
AcDbEntity
  8
Defpoints
  6
Continuous
 62
     0
100
AcDbPoint
 10
6.821807961955617
 20
6.959842289316917
 30
0.0
  0
POINT
  5
5D9
330
537
100
AcDbEntity
  8
Defpoints
  6
Continuous
 62
     0
100
AcDbPoint
 10
6.821807961955617
 20
6.316141501915343
 30
0.0
  0
ENDBLK
  5
543
330
537
100
AcDbEntity
  8
0
100
AcDbBlockEnd
  0
BLOCK
  5
5E6
330
5DB
100
AcDbEntity
  8
0
100
AcDbBlockBegin
  2
*D12
 70
     1
 10
0.0
 20
0.0
 30
0.0
  3
*D12
  1

  0
LINE
  5
674
330
5DB
100
AcDbEntity
  8
Dimensions
  6
Continuous
 62
    47
370
    25
100
AcDbLine
 10
7.721807961955617
 20
7.337342289316917
 30
0.0
 11
7.721807961955617
 21
9.423145746608062
 31
0.0
  0
LINE
  5
675
330
5DB
100
AcDbEntity
  8
Dimensions
  6
Continuous
 62
    47
370
    25
100
AcDbLine
 10
6.581807961955616
 20
8.842342289316917
 30
0.0
 11
6.581807961955616
 21
9.423145746608062
 31
0.0
  0
LINE
  5
676
330
5DB
100
AcDbEntity
  8
Dimensions
  6
Continuous
 62
    47
370
    25
100
AcDbLine
 10
7.623382767334531
 20
9.298145746608062
 30
0.0
 11
7.368123677116361
 21
9.298145746608062
 31
0.0
  0
LINE
  5
677
330
5DB
100
AcDbEntity
  8
Dimensions
  6
Continuous
 62
    47
370
    25
100
AcDbLine
 10
6.680233156576702
 20
9.298145746608062
 30
0.0
 11
6.935492246794874
 21
9.298145746608062
 31
0.0
  0
SOLID
  5
678
330
5DB
100
AcDbEntity
  8
Dimensions
  6
Continuous
 62
    47
100
AcDbTrace
 10
7.623382767334531
 20
9.314549945711576
 30
0.0
 11
7.623382767334531
 21
9.281741547504548
 31
0.0
 12
7.721807961955617
 22
9.298145746608062
 32
0.0
 13
7.721807961955617
 23
9.298145746608062
 33
0.0
  0
SOLID
  5
679
330
5DB
100
AcDbEntity
  8
Dimensions
  6
Continuous
 62
    47
100
AcDbTrace
 10
6.680233156576702
 20
9.314549945711576
 30
0.0
 11
6.680233156576702
 21
9.281741547504548
 31
0.0
 12
6.581807961955616
 22
9.298145746608062
 32
0.0
 13
6.581807961955616
 23
9.298145746608062
 33
0.0
  0
MTEXT
  5
67A
330
5DB
100
AcDbEntity
  8
Dimensions
  6
Continuous
 62
    47
370
    25
100
AcDbMText
 10
7.151807961955618
 20
9.298145746608062
 30
0.0
 40
0.1200000047683716
 41
0.0
 71
     5
 72
     1
  1
\A1;1.140
  7
TextStyle8
 73
     1
 44
1.0
  0
POINT
  5
67B
330
5DB
100
AcDbEntity
  8
Defpoints
  6
Continuous
 62
     0
100
AcDbPoint
 10
7.721807961955617
 20
7.274842289316917
 30
0.0
  0
POINT
  5
67C
330
5DB
100
AcDbEntity
  8
Defpoints
  6
Continuous
 62
     0
100
AcDbPoint
 10
6.581807961955616
 20
8.779842289316917
 30
0.0
  0
POINT
  5
67D
330
5DB
100
AcDbEntity
  8
Defpoints
  6
Continuous
 62
     0
100
AcDbPoint
 10
6.581807961955616
 20
9.298145746608062
 30
0.0
  0
ENDBLK
  5
5E7
330
5DB
100
AcDbEntity
  8
0
100
AcDbBlockEnd
  0
BLOCK
  5
68A
330
67F
100
AcDbEntity
  8
0
100
AcDbBlockBegin
  2
*D13
 70
     1
 10
0.0
 20
0.0
 30
0.0
  3
*D13
  1

  0
LINE
  5
718
330
67F
100
AcDbEntity
  8
Dimensions
  6
Continuous
 62
    47
370
    25
100
AcDbLine
 10
8.451807961955617
 20
7.232342289316917
 30
0.0
 11
8.451807961955617
 21
9.836666896136094
 31
0.0
  0
LINE
  5
719
330
67F
100
AcDbEntity
  8
Dimensions
  6
Continuous
 62
    47
370
    25
100
AcDbLine
 10
6.581807961955616
 20
8.842342289316917
 30
0.0
 11
6.581807961955616
 21
9.836666896136094
 31
0.0
  0
LINE
  5
71A
330
67F
100
AcDbEntity
  8
Dimensions
  6
Continuous
 62
    47
370
    25
100
AcDbLine
 10
8.353382767334531
 20
9.711666896136094
 30
0.0
 11
8.130811853132719
 21
9.711666896136094
 31
0.0
  0
LINE
  5
71B
330
67F
100
AcDbEntity
  8
Dimensions
  6
Continuous
 62
    47
370
    25
100
AcDbLine
 10
6.680233156576702
 20
9.711666896136094
 30
0.0
 11
7.698180422811232
 21
9.711666896136094
 31
0.0
  0
SOLID
  5
71C
330
67F
100
AcDbEntity
  8
Dimensions
  6
Continuous
 62
    47
100
AcDbTrace
 10
8.353382767334531
 20
9.728071095239608
 30
0.0
 11
8.353382767334531
 21
9.69526269703258
 31
0.0
 12
8.451807961955617
 22
9.711666896136094
 32
0.0
 13
8.451807961955617
 23
9.711666896136094
 33
0.0
  0
SOLID
  5
71D
330
67F
100
AcDbEntity
  8
Dimensions
  6
Continuous
 62
    47
100
AcDbTrace
 10
6.680233156576702
 20
9.728071095239608
 30
0.0
 11
6.680233156576702
 21
9.69526269703258
 31
0.0
 12
6.581807961955616
 22
9.711666896136094
 32
0.0
 13
6.581807961955616
 23
9.711666896136094
 33
0.0
  0
MTEXT
  5
71E
330
67F
100
AcDbEntity
  8
Dimensions
  6
Continuous
 62
    47
370
    25
100
AcDbMText
 10
7.914496137971976
 20
9.711666896136094
 30
0.0
 40
0.1200000047683716
 41
0.0
 71
     5
 72
     1
  1
\A1;1.870
  7
TextStyle8
 73
     1
 44
1.0
  0
POINT
  5
71F
330
67F
100
AcDbEntity
  8
Defpoints
  6
Continuous
 62
     0
100
AcDbPoint
 10
8.451807961955617
 20
7.169842289316917
 30
0.0
  0
POINT
  5
720
330
67F
100
AcDbEntity
  8
Defpoints
  6
Continuous
 62
     0
100
AcDbPoint
 10
6.581807961955616
 20
8.779842289316917
 30
0.0
  0
POINT
  5
721
330
67F
100
AcDbEntity
  8
Defpoints
  6
Continuous
 62
     0
100
AcDbPoint
 10
6.581807961955616
 20
9.711666896136094
 30
0.0
  0
ENDBLK
  5
68B
330
67F
100
AcDbEntity
  8
0
100
AcDbBlockEnd
  0
BLOCK
  5
72E
330
723
100
AcDbEntity
  8
0
100
AcDbBlockBegin
  2
*D14
 70
     1
 10
0.0
 20
0.0
 30
0.0
  3
*D14
  1

  0
LINE
  5
7BC
330
723
100
AcDbEntity
  8
Dimensions
  6
Continuous
 62
    47
370
    25
100
AcDbLine
 10
6.581807961955616
 20
8.842342289316917
 30
0.0
 11
6.581807961955616
 21
10.34561600324751
 31
0.0
  0
LINE
  5
7BD
330
723
100
AcDbEntity
  8
Dimensions
  6
Continuous
 62
    47
370
    25
100
AcDbLine
 10
8.951807961955616
 20
7.232342289316917
 30
0.0
 11
8.951807961955616
 21
10.34561600324751
 31
0.0
  0
LINE
  5
7BE
330
723
100
AcDbEntity
  8
Dimensions
  6
Continuous
 62
    47
370
    25
100
AcDbLine
 10
6.680233156576702
 20
10.22061600324752
 30
0.0
 11
7.819146753901931
 21
10.22061600324752
 31
0.0
  0
LINE
  5
7BF
330
723
100
AcDbEntity
  8
Dimensions
  6
Continuous
 62
    47
370
    25
100
AcDbLine
 10
8.85338276733453
 20
10.22061600324752
 30
0.0
 11
8.26432006736392
 21
10.22061600324752
 31
0.0
  0
SOLID
  5
7C0
330
723
100
AcDbEntity
  8
Dimensions
  6
Continuous
 62
    47
100
AcDbTrace
 10
6.680233156576702
 20
10.23702020235103
 30
0.0
 11
6.680233156576702
 21
10.204211804144
 31
0.0
 12
6.581807961955616
 22
10.22061600324752
 32
0.0
 13
6.581807961955616
 23
10.22061600324752
 33
0.0
  0
SOLID
  5
7C1
330
723
100
AcDbEntity
  8
Dimensions
  6
Continuous
 62
    47
100
AcDbTrace
 10
8.85338276733453
 20
10.23702020235103
 30
0.0
 11
8.85338276733453
 21
10.204211804144
 31
0.0
 12
8.951807961955616
 22
10.22061600324752
 32
0.0
 13
8.951807961955616
 23
10.22061600324752
 33
0.0
  0
MTEXT
  5
7C2
330
723
100
AcDbEntity
  8
Dimensions
  6
Continuous
 62
    47
370
    25
100
AcDbMText
 10
8.041733410632925
 20
10.22061600324752
 30
0.0
 40
0.1200000047683716
 41
0.0
 71
     5
 72
     1
  1
\A1;2.370
  7
TextStyle8
 73
     1
 44
1.0
  0
POINT
  5
7C3
330
723
100
AcDbEntity
  8
Defpoints
  6
Continuous
 62
     0
100
AcDbPoint
 10
6.581807961955616
 20
8.779842289316917
 30
0.0
  0
POINT
  5
7C4
330
723
100
AcDbEntity
  8
Defpoints
  6
Continuous
 62
     0
100
AcDbPoint
 10
8.951807961955616
 20
7.169842289316917
 30
0.0
  0
POINT
  5
7C5
330
723
100
AcDbEntity
  8
Defpoints
  6
Continuous
 62
     0
100
AcDbPoint
 10
8.951807961955616
 20
10.22061600324752
 30
0.0
  0
ENDBLK
  5
72F
330
723
100
AcDbEntity
  8
0
100
AcDbBlockEnd
  0
BLOCK
  5
7D2
330
7C7
100
AcDbEntity
  8
0
100
AcDbBlockBegin
  2
*D15
 70
     1
 10
0.0
 20
0.0
 30
0.0
  3
*D15
  1

  0
LINE
  5
860
330
7C7
100
AcDbEntity
  8
Dimensions
  6
Continuous
 62
    47
370
    25
100
AcDbLine
 10
6.581807961955616
 20
8.842342289316917
 30
0.0
 11
6.581807961955616
 21
10.71586591136416
 31
0.0
  0
LINE
  5
861
330
7C7
100
AcDbEntity
  8
Dimensions
  6
Continuous
 62
    47
370
    25
100
AcDbLine
 10
9.241807961955617
 20
7.482342289316916
 30
0.0
 11
9.241807961955617
 21
10.71586591136416
 31
0.0
  0
LINE
  5
862
330
7C7
100
AcDbEntity
  8
Dimensions
  6
Continuous
 62
    47
370
    25
100
AcDbLine
 10
6.680233156576702
 20
10.59086591136416
 30
0.0
 11
8.184953912802159
 21
10.59086591136416
 31
0.0
  0
LINE
  5
863
330
7C7
100
AcDbEntity
  8
Dimensions
  6
Continuous
 62
    47
370
    25
100
AcDbLine
 10
9.14338276733453
 20
10.59086591136416
 30
0.0
 11
8.630127226264148
 21
10.59086591136416
 31
0.0
  0
SOLID
  5
864
330
7C7
100
AcDbEntity
  8
Dimensions
  6
Continuous
 62
    47
100
AcDbTrace
 10
6.680233156576702
 20
10.60727011046767
 30
0.0
 11
6.680233156576702
 21
10.57446171226064
 31
0.0
 12
6.581807961955616
 22
10.59086591136416
 32
0.0
 13
6.581807961955616
 23
10.59086591136416
 33
0.0
  0
SOLID
  5
865
330
7C7
100
AcDbEntity
  8
Dimensions
  6
Continuous
 62
    47
100
AcDbTrace
 10
9.14338276733453
 20
10.60727011046767
 30
0.0
 11
9.14338276733453
 21
10.57446171226064
 31
0.0
 12
9.241807961955617
 22
10.59086591136416
 32
0.0
 13
9.241807961955617
 23
10.59086591136416
 33
0.0
  0
MTEXT
  5
866
330
7C7
100
AcDbEntity
  8
Dimensions
  6
Continuous
 62
    47
370
    25
100
AcDbMText
 10
8.407540569533153
 20
10.59086591136416
 30
0.0
 40
0.1200000047683716
 41
0.0
 71
     5
 72
     1
  1
\A1;2.660
  7
TextStyle8
 73
     1
 44
1.0
  0
POINT
  5
867
330
7C7
100
AcDbEntity
  8
Defpoints
  6
Continuous
 62
     0
100
AcDbPoint
 10
6.581807961955616
 20
8.779842289316917
 30
0.0
  0
POINT
  5
868
330
7C7
100
AcDbEntity
  8
Defpoints
  6
Continuous
 62
     0
100
AcDbPoint
 10
9.241807961955617
 20
7.419842289316916
 30
0.0
  0
POINT
  5
869
330
7C7
100
AcDbEntity
  8
Defpoints
  6
Continuous
 62
     0
100
AcDbPoint
 10
9.241807961955617
 20
10.59086591136416
 30
0.0
  0
ENDBLK
  5
7D3
330
7C7
100
AcDbEntity
  8
0
100
AcDbBlockEnd
  0
BLOCK
  5
876
330
86B
100
AcDbEntity
  8
0
100
AcDbBlockBegin
  2
*D16
 70
     1
 10
0.0
 20
0.0
 30
0.0
  3
*D16
  1

  0
LINE
  5
904
330
86B
100
AcDbEntity
  8
Dimensions
  6
Continuous
 62
    47
370
    25
100
AcDbLine
 10
9.741807961955617
 20
6.897342289316917
 30
0.0
 11
9.741807961955617
 21
5.688878089540146
 31
0.0
  0
LINE
  5
905
330
86B
100
AcDbEntity
  8
Dimensions
  6
Continuous
 62
    47
370
    25
100
AcDbLine
 10
9.241807961955617
 20
6.897342289316917
 30
0.0
 11
9.241807961955617
 21
5.688878089540146
 31
0.0
  0
LINE
  5
906
330
86B
100
AcDbEntity
  8
Dimensions
  6
Continuous
 62
    47
370
    25
100
AcDbLine
 10
9.340233156576703
 20
5.813878089540146
 30
0.0
 11
9.64338276733453
 21
5.813878089540146
 31
0.0
  0
LINE
  5
907
330
86B
100
AcDbEntity
  8
Dimensions
  6
Continuous
 62
    47
370
    25
100
AcDbLine
 10
9.741807961955617
 20
5.813878089540146
 30
0.0
 11
10.03195739917669
 21
5.813878089540146
 31
0.0
  0
SOLID
  5
908
330
86B
100
AcDbEntity
  8
Dimensions
  6
Continuous
 62
    47
100
AcDbTrace
 10
9.340233156576703
 20
5.830282288643661
 30
0.0
 11
9.340233156576703
 21
5.797473890436632
 31
0.0
 12
9.241807961955617
 22
5.813878089540146
 32
0.0
 13
9.241807961955617
 23
5.813878089540146
 33
0.0
  0
SOLID
  5
909
330
86B
100
AcDbEntity
  8
Dimensions
  6
Continuous
 62
    47
100
AcDbTrace
 10
9.64338276733453
 20
5.830282288643661
 30
0.0
 11
9.64338276733453
 21
5.797473890436632
 31
0.0
 12
9.741807961955617
 22
5.813878089540146
 32
0.0
 13
9.741807961955617
 23
5.813878089540146
 33
0.0
  0
MTEXT
  5
90A
330
86B
100
AcDbEntity
  8
Dimensions
  6
Continuous
 62
    47
370
    25
100
AcDbMText
 10
10.25358225505335
 20
5.813878089540146
 30
0.0
 40
0.1200000047683716
 41
0.0
 71
     5
 72
     1
  1
\A1;0.500
  7
TextStyle8
 73
     1
 44
1.0
  0
POINT
  5
90B
330
86B
100
AcDbEntity
  8
Defpoints
  6
Continuous
 62
     0
100
AcDbPoint
 10
9.741807961955617
 20
6.959842289316917
 30
0.0
  0
POINT
  5
90C
330
86B
100
AcDbEntity
  8
Defpoints
  6
Continuous
 62
     0
100
AcDbPoint
 10
9.241807961955617
 20
6.959842289316917
 30
0.0
  0
POINT
  5
90D
330
86B
100
AcDbEntity
  8
Defpoints
  6
Continuous
 62
     0
100
AcDbPoint
 10
9.241807961955617
 20
5.813878089540146
 30
0.0
  0
ENDBLK
  5
877
330
86B
100
AcDbEntity
  8
0
100
AcDbBlockEnd
  0
BLOCK
  5
91A
330
90F
100
AcDbEntity
  8
0
100
AcDbBlockBegin
  2
*D17
 70
     1
 10
0.0
 20
0.0
 30
0.0
  3
*D17
  1

  0
LINE
  5
9AD
330
90F
100
AcDbEntity
  8
Dimensions
  6
Continuous
 62
    47
370
    25
100
AcDbLine
 10
9.804307961955617
 20
6.959842289316917
 30
0.0
 11
10.02757852329931
 21
6.959842289316916
 31
0.0
  0
LINE
  5
9AE
330
90F
100
AcDbEntity
  8
Dimensions
  6
Continuous
 62
    47
370
    25
100
AcDbLine
 10
9.804307961955617
 20
7.419842289316918
 30
0.0
 11
10.02757852329931
 21
7.419842289316917
 31
0.0
  0
LINE
  5
9AF
330
90F
100
AcDbEntity
  8
Dimensions
  6
Continuous
 62
    47
370
    25
100
AcDbLine
 10
9.902578523299311
 20
7.321417094695831
 30
0.0
 11
9.902578523299311
 21
7.058267483938003
 31
0.0
  0
LINE
  5
9B0
330
90F
100
AcDbEntity
  8
Dimensions
  6
Continuous
 62
    47
370
    25
100
AcDbLine
 10
9.902578523299311
 20
6.959842289316917
 30
0.0
 11
9.902578523299311
 21
6.467639559896636
 31
0.0
  0
SOLID
  5
9B1
330
90F
100
AcDbEntity
  8
Dimensions
  6
Continuous
 62
    47
100
AcDbTrace
 10
9.886174324195797
 20
7.321417094695831
 30
0.0
 11
9.918982722402825
 21
7.321417094695831
 31
0.0
 12
9.902578523299311
 22
7.419842289316918
 32
0.0
 13
9.902578523299311
 23
7.419842289316918
 33
0.0
  0
SOLID
  5
9B2
330
90F
100
AcDbEntity
  8
Dimensions
  6
Continuous
 62
    47
100
AcDbTrace
 10
9.886174324195797
 20
7.058267483938003
 30
0.0
 11
9.918982722402825
 21
7.058267483938003
 31
0.0
 12
9.902578523299311
 22
6.959842289316917
 32
0.0
 13
9.902578523299311
 23
6.959842289316917
 33
0.0
  0
MTEXT
  5
9B3
330
90F
100
AcDbEntity
  8
Dimensions
  6
Continuous
 62
    47
370
    25
100
AcDbMText
 10
9.902578523299309
 20
6.246014704019976
 30
0.0
 40
0.1200000047683716
 41
0.0
 71
     5
 72
     1
  1
\A1;0.460
  7
TextStyle8
 11
0.0000000000000001
 21
1.0
 31
0.0
 73
     1
 44
1.0
  0
POINT
  5
9B4
330
90F
100
AcDbEntity
  8
Defpoints
  6
Continuous
 62
     0
100
AcDbPoint
 10
9.741807961955617
 20
6.959842289316917
 30
0.0
  0
POINT
  5
9B5
330
90F
100
AcDbEntity
  8
Defpoints
  6
Continuous
 62
     0
100
AcDbPoint
 10
9.741807961955617
 20
7.419842289316918
 30
0.0
  0
POINT
  5
9B6
330
90F
100
AcDbEntity
  8
Defpoints
  6
Continuous
 62
     0
100
AcDbPoint
 10
9.902578523299311
 20
7.419842289316918
 30
0.0
  0
ENDBLK
  5
91B
330
90F
100
AcDbEntity
  8
0
100
AcDbBlockEnd
  0
BLOCK
  5
9C3
330
9B8
100
AcDbEntity
  8
0
100
AcDbBlockBegin
  2
*D18
 70
     1
 10
0.0
 20
0.0
 30
0.0
  3
*D18
  1

  0
LINE
  5
A51
330
9B8
100
AcDbEntity
  8
Dimensions
  6
Continuous
 62
    47
370
    25
100
AcDbLine
 10
6.581807961955616
 20
8.842342289316917
 30
0.0
 11
6.581807961955616
 21
11.04542102552572
 31
0.0
  0
LINE
  5
A52
330
9B8
100
AcDbEntity
  8
Dimensions
  6
Continuous
 62
    47
370
    25
100
AcDbLine
 10
10.27180796195561
 20
7.337342289316917
 30
0.0
 11
10.27180796195561
 21
11.04542102552572
 31
0.0
  0
LINE
  5
A53
330
9B8
100
AcDbEntity
  8
Dimensions
  6
Continuous
 62
    47
370
    25
100
AcDbLine
 10
6.680233156576702
 20
10.92042102552572
 30
0.0
 11
8.710807935417083
 21
10.92042102552572
 31
0.0
  0
LINE
  5
A54
330
9B8
100
AcDbEntity
  8
Dimensions
  6
Continuous
 62
    47
370
    25
100
AcDbLine
 10
10.17338276733453
 20
10.92042102552572
 30
0.0
 11
9.15398070310206
 21
10.92042102552572
 31
0.0
  0
SOLID
  5
A55
330
9B8
100
AcDbEntity
  8
Dimensions
  6
Continuous
 62
    47
100
AcDbTrace
 10
6.680233156576702
 20
10.93682522462924
 30
0.0
 11
6.680233156576702
 21
10.90401682642221
 31
0.0
 12
6.581807961955616
 22
10.92042102552572
 32
0.0
 13
6.581807961955616
 23
10.92042102552572
 33
0.0
  0
SOLID
  5
A56
330
9B8
100
AcDbEntity
  8
Dimensions
  6
Continuous
 62
    47
100
AcDbTrace
 10
10.17338276733453
 20
10.93682522462924
 30
0.0
 11
10.17338276733453
 21
10.90401682642221
 31
0.0
 12
10.27180796195561
 22
10.92042102552572
 32
0.0
 13
10.27180796195561
 23
10.92042102552572
 33
0.0
  0
MTEXT
  5
A57
330
9B8
100
AcDbEntity
  8
Dimensions
  6
Continuous
 62
    47
370
    25
100
AcDbMText
 10
8.932394319259572
 20
10.92042102552572
 30
0.0
 40
0.1200000047683716
 41
0.0
 71
     5
 72
     1
  1
\A1;3.690
  7
TextStyle8
 73
     1
 44
1.0
  0
POINT
  5
A58
330
9B8
100
AcDbEntity
  8
Defpoints
  6
Continuous
 62
     0
100
AcDbPoint
 10
6.581807961955616
 20
8.779842289316917
 30
0.0
  0
POINT
  5
A59
330
9B8
100
AcDbEntity
  8
Defpoints
  6
Continuous
 62
     0
100
AcDbPoint
 10
10.27180796195561
 20
7.274842289316917
 30
0.0
  0
POINT
  5
A5A
330
9B8
100
AcDbEntity
  8
Defpoints
  6
Continuous
 62
     0
100
AcDbPoint
 10
10.27180796195561
 20
10.92042102552572
 30
0.0
  0
ENDBLK
  5
9C4
330
9B8
100
AcDbEntity
  8
0
100
AcDbBlockEnd
  0
BLOCK
  5
A62
330
A5C
100
AcDbEntity
  8
0
100
AcDbBlockBegin
  2
*D19
 70
     1
 10
0.0
 20
0.0
 30
0.0
  3
*D19
  1

  0
LINE
  5
AC2
330
A5C
100
AcDbEntity
  8
Dimensions
  6
Continuous
 62
    47
370
    25
100
AcDbLine
 10
11.27029713075916
 20
5.926357911994871
 30
0.0
 11
11.12723727266096
 21
5.926357911994872
 31
0.0
  0
LINE
  5
AC3
330
A5C
100
AcDbEntity
  8
Dimensions
  6
Continuous
 62
    47
370
    25
100
AcDbLine
 10
11.12723727266096
 20
5.926357911994872
 30
0.0
 11
10.44907559382564
 21
6.995400576027373
 31
0.0
  0
MTEXT
  5
AC4
330
A5C
100
AcDbEntity
  8
Dimensions
  6
Continuous
 62
    47
370
    25
100
AcDbMText
 10
11.55390043368904
 20
5.926357911994872
 30
0.0
 40
0.1200000047683716
 41
0.0
 71
     5
 72
     1
  1
\A1;\U+22050.465
  7
TextStyle8
 73
     1
 44
1.0
  0
SOLID
  5
AC5
330
A5C
100
AcDbEntity
  8
Dimensions
  6
Continuous
 62
    47
100
AcDbTrace
 10
10.46292771985635
 20
7.004187859604055
 30
0.0
 11
10.43522346779493
 21
6.986613292450691
 31
0.0
 12
10.39635189236554
 22
7.07851333221164
 32
0.0
 13
10.39635189236554
 23
7.07851333221164
 33
0.0
  0
LINE
  5
AC6
330
A5C
100
AcDbEntity
  8
Dimensions
  6
Continuous
 62
    47
370
    25
100
AcDbLine
 10
10.18180796195562
 20
7.274842289316921
 30
0.0
 11
10.36180796195562
 21
7.274842289316921
 31
0.0
  0
LINE
  5
AC7
330
A5C
100
AcDbEntity
  8
Dimensions
  6
Continuous
 62
    47
370
    25
100
AcDbLine
 10
10.27180796195562
 20
7.184842289316921
 30
0.0
 11
10.27180796195562
 21
7.36484228931692
 31
0.0
  0
POINT
  5
AC8
330
A5C
100
AcDbEntity
  8
Defpoints
  6
Continuous
 62
     0
100
AcDbPoint
 10
10.39635189236554
 20
7.07851333221164
 30
0.0
  0
POINT
  5
AC9
330
A5C
100
AcDbEntity
  8
Defpoints
  6
Continuous
 62
     0
100
AcDbPoint
 10
10.14726403154569
 20
7.471171246422201
 30
0.0
  0
ENDBLK
  5
A63
330
A5C
100
AcDbEntity
  8
0
100
AcDbBlockEnd
  0
BLOCK
  5
AD6
330
ACB
100
AcDbEntity
  8
0
100
AcDbBlockBegin
  2
*D20
 70
     1
 10
0.0
 20
0.0
 30
0.0
  3
*D20
  1

  0
LINE
  5
B64
330
ACB
100
AcDbEntity
  8
Dimensions
  6
Continuous
 62
    47
370
    25
100
AcDbLine
 10
6.581807961955616
 20
8.842342289316917
 30
0.0
 11
6.581807961955616
 21
11.42452732868699
 31
0.0
  0
LINE
  5
B65
330
ACB
100
AcDbEntity
  8
Dimensions
  6
Continuous
 62
    47
370
    25
100
AcDbLine
 10
11.14180796195561
 20
7.415342289316917
 30
0.0
 11
11.14180796195561
 21
11.42452732868699
 31
0.0
  0
LINE
  5
B66
330
ACB
100
AcDbEntity
  8
Dimensions
  6
Continuous
 62
    47
370
    25
100
AcDbLine
 10
6.680233156576702
 20
11.29952732868699
 30
0.0
 11
9.281067340340957
 21
11.29952732868699
 31
0.0
  0
LINE
  5
B67
330
ACB
100
AcDbEntity
  8
Dimensions
  6
Continuous
 62
    47
370
    25
100
AcDbLine
 10
11.04338276733453
 20
11.29952732868699
 30
0.0
 11
9.728856752126731
 21
11.29952732868699
 31
0.0
  0
SOLID
  5
B68
330
ACB
100
AcDbEntity
  8
Dimensions
  6
Continuous
 62
    47
100
AcDbTrace
 10
6.680233156576702
 20
11.31593152779051
 30
0.0
 11
6.680233156576702
 21
11.28312312958348
 31
0.0
 12
6.581807961955616
 22
11.29952732868699
 32
0.0
 13
6.581807961955616
 23
11.29952732868699
 33
0.0
  0
SOLID
  5
B69
330
ACB
100
AcDbEntity
  8
Dimensions
  6
Continuous
 62
    47
100
AcDbTrace
 10
11.04338276733453
 20
11.31593152779051
 30
0.0
 11
11.04338276733453
 21
11.28312312958348
 31
0.0
 12
11.14180796195561
 22
11.29952732868699
 32
0.0
 13
11.14180796195561
 23
11.29952732868699
 33
0.0
  0
MTEXT
  5
B6A
330
ACB
100
AcDbEntity
  8
Dimensions
  6
Continuous
 62
    47
370
    25
100
AcDbMText
 10
9.504962046233844
 20
11.29952732868699
 30
0.0
 40
0.1200000047683716
 41
0.0
 71
     5
 72
     1
  1
\A1;4.560
  7
TextStyle8
 73
     1
 44
1.0
  0
POINT
  5
B6B
330
ACB
100
AcDbEntity
  8
Defpoints
  6
Continuous
 62
     0
100
AcDbPoint
 10
6.581807961955616
 20
8.779842289316917
 30
0.0
  0
POINT
  5
B6C
330
ACB
100
AcDbEntity
  8
Defpoints
  6
Continuous
 62
     0
100
AcDbPoint
 10
11.14180796195561
 20
7.352842289316917
 30
0.0
  0
POINT
  5
B6D
330
ACB
100
AcDbEntity
  8
Defpoints
  6
Continuous
 62
     0
100
AcDbPoint
 10
11.14180796195561
 20
11.29952732868699
 30
0.0
  0
ENDBLK
  5
AD7
330
ACB
100
AcDbEntity
  8
0
100
AcDbBlockEnd
  0
BLOCK
  5
B7A
330
B6F
100
AcDbEntity
  8
0
100
AcDbBlockBegin
  2
*D21
 70
     1
 10
0.0
 20
0.0
 30
0.0
  3
*D21
  1

  0
LINE
  5
C08
330
B6F
100
AcDbEntity
  8
Dimensions
  6
Continuous
 62
    47
370
    25
100
AcDbLine
 10
6.581807961955616
 20
8.842342289316917
 30
0.0
 11
6.581807961955616
 21
11.681607409415
 31
0.0
  0
LINE
  5
C09
330
B6F
100
AcDbEntity
  8
Dimensions
  6
Continuous
 62
    47
370
    25
100
AcDbLine
 10
11.99180796195561
 20
7.415342289316917
 30
0.0
 11
11.99180796195561
 21
11.681607409415
 31
0.0
  0
LINE
  5
C0A
330
B6F
100
AcDbEntity
  8
Dimensions
  6
Continuous
 62
    47
370
    25
100
AcDbLine
 10
6.680233156576702
 20
11.556607409415
 30
0.0
 11
9.951332871827167
 21
11.556607409415
 31
0.0
  0
LINE
  5
C0B
330
B6F
100
AcDbEntity
  8
Dimensions
  6
Continuous
 62
    47
370
    25
100
AcDbLine
 10
11.89338276733453
 20
11.556607409415
 30
0.0
 11
10.39458258358048
 21
11.556607409415
 31
0.0
  0
SOLID
  5
C0C
330
B6F
100
AcDbEntity
  8
Dimensions
  6
Continuous
 62
    47
100
AcDbTrace
 10
6.680233156576702
 20
11.57301160851852
 30
0.0
 11
6.680233156576702
 21
11.54020321031149
 31
0.0
 12
6.581807961955616
 22
11.556607409415
 32
0.0
 13
6.581807961955616
 23
11.556607409415
 33
0.0
  0
SOLID
  5
C0D
330
B6F
100
AcDbEntity
  8
Dimensions
  6
Continuous
 62
    47
100
AcDbTrace
 10
11.89338276733453
 20
11.57301160851852
 30
0.0
 11
11.89338276733453
 21
11.54020321031149
 31
0.0
 12
11.99180796195561
 22
11.556607409415
 32
0.0
 13
11.99180796195561
 23
11.556607409415
 33
0.0
  0
MTEXT
  5
C0E
330
B6F
100
AcDbEntity
  8
Dimensions
  6
Continuous
 62
    47
370
    25
100
AcDbMText
 10
10.17295772770382
 20
11.556607409415
 30
0.0
 40
0.1200000047683716
 41
0.0
 71
     5
 72
     1
  1
\A1;5.410
  7
TextStyle8
 73
     1
 44
1.0
  0
POINT
  5
C0F
330
B6F
100
AcDbEntity
  8
Defpoints
  6
Continuous
 62
     0
100
AcDbPoint
 10
6.581807961955616
 20
8.779842289316917
 30
0.0
  0
POINT
  5
C10
330
B6F
100
AcDbEntity
  8
Defpoints
  6
Continuous
 62
     0
100
AcDbPoint
 10
11.99180796195561
 20
7.352842289316917
 30
0.0
  0
POINT
  5
C11
330
B6F
100
AcDbEntity
  8
Defpoints
  6
Continuous
 62
     0
100
AcDbPoint
 10
11.99180796195561
 20
11.556607409415
 30
0.0
  0
ENDBLK
  5
B7B
330
B6F
100
AcDbEntity
  8
0
100
AcDbBlockEnd
  0
BLOCK
  5
C1E
330
C13
100
AcDbEntity
  8
0
100
AcDbBlockBegin
  2
*D22
 70
     1
 10
0.0
 20
0.0
 30
0.0
  3
*D22
  1

  0
LINE
  5
CAC
330
C13
100
AcDbEntity
  8
Dimensions
  6
Continuous
 62
    47
370
    25
100
AcDbLine
 10
6.581807961955616
 20
8.842342289316917
 30
0.0
 11
6.581807961955616
 21
11.95198662256795
 31
0.0
  0
LINE
  5
CAD
330
C13
100
AcDbEntity
  8
Dimensions
  6
Continuous
 62
    47
370
    25
100
AcDbLine
 10
12.84180796195561
 20
7.415342289316917
 30
0.0
 11
12.84180796195561
 21
11.95198662256795
 31
0.0
  0
LINE
  5
CAE
330
C13
100
AcDbEntity
  8
Dimensions
  6
Continuous
 62
    47
370
    25
100
AcDbLine
 10
6.680233156576702
 20
11.82698662256795
 30
0.0
 11
10.60311611794114
 21
11.82698662256795
 31
0.0
  0
LINE
  5
CAF
330
C13
100
AcDbEntity
  8
Dimensions
  6
Continuous
 62
    47
370
    25
100
AcDbLine
 10
12.74338276733453
 20
11.82698662256795
 30
0.0
 11
11.04698138224124
 21
11.82698662256795
 31
0.0
  0
SOLID
  5
CB0
330
C13
100
AcDbEntity
  8
Dimensions
  6
Continuous
 62
    47
100
AcDbTrace
 10
6.680233156576702
 20
11.84339082167146
 30
0.0
 11
6.680233156576702
 21
11.81058242346444
 31
0.0
 12
6.581807961955616
 22
11.82698662256795
 32
0.0
 13
6.581807961955616
 23
11.82698662256795
 33
0.0
  0
SOLID
  5
CB1
330
C13
100
AcDbEntity
  8
Dimensions
  6
Continuous
 62
    47
100
AcDbTrace
 10
12.74338276733453
 20
11.84339082167146
 30
0.0
 11
12.74338276733453
 21
11.81058242346444
 31
0.0
 12
12.84180796195561
 22
11.82698662256795
 32
0.0
 13
12.84180796195561
 23
11.82698662256795
 33
0.0
  0
MTEXT
  5
CB2
330
C13
100
AcDbEntity
  8
Dimensions
  6
Continuous
 62
    47
370
    25
100
AcDbMText
 10
10.82504875009119
 20
11.82698662256795
 30
0.0
 40
0.1200000047683716
 41
0.0
 71
     5
 72
     1
  1
\A1;6.260
  7
TextStyle8
 73
     1
 44
1.0
  0
POINT
  5
CB3
330
C13
100
AcDbEntity
  8
Defpoints
  6
Continuous
 62
     0
100
AcDbPoint
 10
6.581807961955616
 20
8.779842289316917
 30
0.0
  0
POINT
  5
CB4
330
C13
100
AcDbEntity
  8
Defpoints
  6
Continuous
 62
     0
100
AcDbPoint
 10
12.84180796195561
 20
7.352842289316917
 30
0.0
  0
POINT
  5
CB5
330
C13
100
AcDbEntity
  8
Defpoints
  6
Continuous
 62
     0
100
AcDbPoint
 10
12.84180796195561
 20
11.82698662256795
 30
0.0
  0
ENDBLK
  5
C1F
330
C13
100
AcDbEntity
  8
0
100
AcDbBlockEnd
  0
BLOCK
  5
CBD
330
CB7
100
AcDbEntity
  8
0
100
AcDbBlockBegin
  2
*D23
 70
     1
 10
0.0
 20
0.0
 30
0.0
  3
*D23
  1

  0
LINE
  5
D1D
330
CB7
100
AcDbEntity
  8
Dimensions
  6
Continuous
 62
    47
370
    25
100
AcDbLine
 10
11.68381826690724
 20
6.339879061522903
 30
0.0
 11
11.54075840880904
 21
6.339879061522903
 31
0.0
  0
LINE
  5
D1E
330
CB7
100
AcDbEntity
  8
Dimensions
  6
Continuous
 62
    47
370
    25
100
AcDbLine
 10
11.54075840880904
 20
6.339879061522903
 30
0.0
 11
11.30155207122776
 21
6.947240767058587
 31
0.0
  0
MTEXT
  5
D1F
330
CB7
100
AcDbEntity
  8
Dimensions
  6
Continuous
 62
    47
370
    25
100
AcDbMText
 10
11.96742156983712
 20
6.339879061522905
 30
0.0
 40
0.1200000047683716
 41
0.0
 71
     5
 72
     1
  1
\A1;\U+22050.675
  7
TextStyle8
 73
     1
 44
1.0
  0
SOLID
  5
D20
330
CB7
100
AcDbEntity
  8
Dimensions
  6
Continuous
 62
    47
100
AcDbTrace
 10
11.31681516730459
 20
6.953252060295243
 30
0.0
 11
11.28628897515093
 21
6.94122947382193
 31
0.0
 12
11.26548431180782
 22
7.038819343519592
 32
0.0
 13
11.26548431180782
 23
7.038819343519592
 33
0.0
  0
LINE
  5
D21
330
CB7
100
AcDbEntity
  8
Dimensions
  6
Continuous
 62
    47
370
    25
100
AcDbLine
 10
11.05180796195561
 20
7.352842289316924
 30
0.0
 11
11.23180796195562
 21
7.352842289316924
 31
0.0
  0
LINE
  5
D22
330
CB7
100
AcDbEntity
  8
Dimensions
  6
Continuous
 62
    47
370
    25
100
AcDbLine
 10
11.14180796195561
 20
7.262842289316925
 30
0.0
 11
11.14180796195561
 21
7.442842289316924
 31
0.0
  0
POINT
  5
D23
330
CB7
100
AcDbEntity
  8
Defpoints
  6
Continuous
 62
     0
100
AcDbPoint
 10
11.26548431180782
 20
7.038819343519592
 30
0.0
  0
POINT
  5
D24
330
CB7
100
AcDbEntity
  8
Defpoints
  6
Continuous
 62
     0
100
AcDbPoint
 10
11.01813161210341
 20
7.666865235114256
 30
0.0
  0
ENDBLK
  5
CBE
330
CB7
100
AcDbEntity
  8
0
100
AcDbBlockEnd
  0
BLOCK
  5
D2C
330
D26
100
AcDbEntity
  8
0
100
AcDbBlockBegin
  2
*D24
 70
     1
 10
0.0
 20
0.0
 30
0.0
  3
*D24
  1

  0
LINE
  5
D8C
330
D26
100
AcDbEntity
  8
Dimensions
  6
Continuous
 62
    47
370
    25
100
AcDbLine
 10
13.14704690250816
 20
5.926357911994871
 30
0.0
 11
13.00398704440996
 21
5.926357911994871
 31
0.0
  0
LINE
  5
D8D
330
D26
100
AcDbEntity
  8
Dimensions
  6
Continuous
 62
    47
370
    25
100
AcDbLine
 10
13.00398704440996
 20
5.926357911994871
 30
0.0
 11
12.24407106859595
 21
6.997322809775223
 31
0.0
  0
MTEXT
  5
D8E
330
D26
100
AcDbEntity
  8
Dimensions
  6
Continuous
 62
    47
370
    25
100
AcDbMText
 10
13.43065020543804
 20
5.926357911994872
 30
0.0
 40
0.1200000047683716
 41
0.0
 71
     5
 72
     1
  1
\A1;\U+22050.675
  7
TextStyle8
 73
     1
 44
1.0
  0
SOLID
  5
D8F
330
D26
100
AcDbEntity
  8
Dimensions
  6
Continuous
 62
    47
100
AcDbTrace
 10
12.25744953902974
 20
7.006815663776002
 30
0.0
 11
12.23069259816217
 21
6.987829955774444
 31
0.0
 12
12.18711394459128
 22
7.077593632377928
 32
0.0
 13
12.18711394459128
 23
7.077593632377928
 33
0.0
  0
LINE
  5
D90
330
D26
100
AcDbEntity
  8
Dimensions
  6
Continuous
 62
    47
370
    25
100
AcDbLine
 10
11.90180796195562
 20
7.352842289316922
 30
0.0
 11
12.08180796195562
 21
7.352842289316921
 31
0.0
  0
LINE
  5
D91
330
D26
100
AcDbEntity
  8
Dimensions
  6
Continuous
 62
    47
370
    25
100
AcDbLine
 10
11.99180796195562
 20
7.262842289316922
 30
0.0
 11
11.99180796195562
 21
7.442842289316921
 31
0.0
  0
POINT
  5
D92
330
D26
100
AcDbEntity
  8
Defpoints
  6
Continuous
 62
     0
100
AcDbPoint
 10
12.18711394459128
 20
7.077593632377928
 30
0.0
  0
POINT
  5
D93
330
D26
100
AcDbEntity
  8
Defpoints
  6
Continuous
 62
     0
100
AcDbPoint
 10
11.79650197931996
 20
7.628090946255914
 30
0.0
  0
ENDBLK
  5
D2D
330
D26
100
AcDbEntity
  8
0
100
AcDbBlockEnd
  0
BLOCK
  5
D9B
330
D95
100
AcDbEntity
  8
0
100
AcDbBlockBegin
  2
*D25
 70
     1
 10
0.0
 20
0.0
 30
0.0
  3
*D25
  1

  0
LINE
  5
DFB
330
D95
100
AcDbEntity
  8
Dimensions
  6
Continuous
 62
    47
370
    25
100
AcDbLine
 10
13.49694940232577
 20
6.419402359509065
 30
0.0
 11
13.35388954422753
 21
6.419402359509065
 31
0.0
  0
LINE
  5
DFC
330
D95
100
AcDbEntity
  8
Dimensions
  6
Continuous
 62
    47
370
    25
100
AcDbLine
 10
13.35388954422753
 20
6.419402359509065
 30
0.0
 11
13.05147644424789
 21
6.970651364727277
 31
0.0
  0
MTEXT
  5
DFD
330
D95
100
AcDbEntity
  8
Dimensions
  6
Continuous
 62
    47
370
    25
100
AcDbMText
 10
13.78055270525565
 20
6.419402359509062
 30
0.0
 40
0.1200000047683716
 41
0.0
 71
     5
 72
     1
  1
\A1;\U+22050.675
  7
TextStyle8
 73
     1
 44
1.0
  0
SOLID
  5
DFE
330
D95
100
AcDbEntity
  8
Dimensions
  6
Continuous
 62
    47
100
AcDbTrace
 10
13.06585858159596
 20
6.978541350375489
 30
0.0
 11
13.03709430689982
 21
6.962761379079066
 31
0.0
 12
13.00413653035862
 22
7.056944188815696
 32
0.0
 13
13.00413653035862
 23
7.056944188815696
 33
0.0
  0
LINE
  5
DFF
330
D95
100
AcDbEntity
  8
Dimensions
  6
Continuous
 62
    47
370
    25
100
AcDbLine
 10
12.7518079619556
 20
7.35284228931691
 30
0.0
 11
12.9318079619556
 21
7.352842289316911
 31
0.0
  0
LINE
  5
E00
330
D95
100
AcDbEntity
  8
Dimensions
  6
Continuous
 62
    47
370
    25
100
AcDbLine
 10
12.8418079619556
 20
7.262842289316911
 30
0.0
 11
12.8418079619556
 21
7.442842289316911
 31
0.0
  0
POINT
  5
E01
330
D95
100
AcDbEntity
  8
Defpoints
  6
Continuous
 62
     0
100
AcDbPoint
 10
13.00413653035862
 20
7.056944188815696
 30
0.0
  0
POINT
  5
E02
330
D95
100
AcDbEntity
  8
Defpoints
  6
Continuous
 62
     0
100
AcDbPoint
 10
12.67947939355258
 20
7.648740389818125
 30
0.0
  0
ENDBLK
  5
D9C
330
D95
100
AcDbEntity
  8
0
100
AcDbBlockEnd
  0
BLOCK
  5
E0F
330
E04
100
AcDbEntity
  8
0
100
AcDbBlockBegin
  2
*D26
 70
     1
 10
0.0
 20
0.0
 30
0.0
  3
*D26
  1

  0
LINE
  5
E9D
330
E04
100
AcDbEntity
  8
Dimensions
  6
Continuous
 62
    47
370
    25
100
AcDbLine
 10
6.581807961955616
 20
8.842342289316917
 30
0.0
 11
6.581807961955616
 21
12.28173205309644
 31
0.0
  0
LINE
  5
E9E
330
E04
100
AcDbEntity
  8
Dimensions
  6
Continuous
 62
    47
370
    25
100
AcDbLine
 10
13.71180796195561
 20
7.337342289316918
 30
0.0
 11
13.71180796195561
 21
12.28173205309644
 31
0.0
  0
LINE
  5
E9F
330
E04
100
AcDbEntity
  8
Dimensions
  6
Continuous
 62
    47
370
    25
100
AcDbLine
 10
6.680233156576702
 20
12.15673205309644
 30
0.0
 11
11.46273714908602
 21
12.15673205309644
 31
0.0
  0
LINE
  5
EA0
330
E04
100
AcDbEntity
  8
Dimensions
  6
Continuous
 62
    47
370
    25
100
AcDbLine
 10
13.61338276733452
 20
12.15673205309644
 30
0.0
 11
11.90506353201918
 21
12.15673205309644
 31
0.0
  0
SOLID
  5
EA1
330
E04
100
AcDbEntity
  8
Dimensions
  6
Continuous
 62
    47
100
AcDbTrace
 10
6.680233156576702
 20
12.17313625219996
 30
0.0
 11
6.680233156576702
 21
12.14032785399293
 31
0.0
 12
6.581807961955616
 22
12.15673205309644
 32
0.0
 13
6.581807961955616
 23
12.15673205309644
 33
0.0
  0
SOLID
  5
EA2
330
E04
100
AcDbEntity
  8
Dimensions
  6
Continuous
 62
    47
100
AcDbTrace
 10
13.61338276733452
 20
12.17313625219996
 30
0.0
 11
13.61338276733452
 21
12.14032785399293
 31
0.0
 12
13.71180796195561
 22
12.15673205309644
 32
0.0
 13
13.71180796195561
 23
12.15673205309644
 33
0.0
  0
MTEXT
  5
EA3
330
E04
100
AcDbEntity
  8
Dimensions
  6
Continuous
 62
    47
370
    25
100
AcDbMText
 10
11.6839003405526
 20
12.15673205309644
 30
0.0
 40
0.1200000047683716
 41
0.0
 71
     5
 72
     1
  1
\A1;7.130
  7
TextStyle8
 73
     1
 44
1.0
  0
POINT
  5
EA4
330
E04
100
AcDbEntity
  8
Defpoints
  6
Continuous
 62
     0
100
AcDbPoint
 10
6.581807961955616
 20
8.779842289316917
 30
0.0
  0
POINT
  5
EA5
330
E04
100
AcDbEntity
  8
Defpoints
  6
Continuous
 62
     0
100
AcDbPoint
 10
13.71180796195561
 20
7.274842289316918
 30
0.0
  0
POINT
  5
EA6
330
E04
100
AcDbEntity
  8
Defpoints
  6
Continuous
 62
     0
100
AcDbPoint
 10
13.71180796195561
 20
12.15673205309644
 30
0.0
  0
ENDBLK
  5
E10
330
E04
100
AcDbEntity
  8
0
100
AcDbBlockEnd
  0
BLOCK
  5
EB3
330
EA8
100
AcDbEntity
  8
0
100
AcDbBlockBegin
  2
*D27
 70
     1
 10
0.0
 20
0.0
 30
0.0
  3
*D27
  1

  0
LINE
  5
F41
330
EA8
100
AcDbEntity
  8
Dimensions
  6
Continuous
 62
    47
370
    25
100
AcDbLine
 10
6.581807961955616
 20
8.842342289316917
 30
0.0
 11
6.581807961955616
 21
12.60407766605446
 31
0.0
  0
LINE
  5
F42
330
EA8
100
AcDbEntity
  8
Dimensions
  6
Continuous
 62
    47
370
    25
100
AcDbLine
 10
14.58180796195561
 20
7.415342289316917
 30
0.0
 11
14.58180796195561
 21
12.60407766605446
 31
0.0
  0
LINE
  5
F43
330
EA8
100
AcDbEntity
  8
Dimensions
  6
Continuous
 62
    47
370
    25
100
AcDbLine
 10
6.680233156576702
 20
12.47907766605446
 30
0.0
 11
12.38466876739948
 21
12.47907766605446
 31
0.0
  0
LINE
  5
F44
330
EA8
100
AcDbEntity
  8
Dimensions
  6
Continuous
 62
    47
370
    25
100
AcDbLine
 10
14.48338276733453
 20
12.47907766605446
 30
0.0
 11
12.82807236728949
 21
12.47907766605446
 31
0.0
  0
SOLID
  5
F45
330
EA8
100
AcDbEntity
  8
Dimensions
  6
Continuous
 62
    47
100
AcDbTrace
 10
6.680233156576702
 20
12.49548186515798
 30
0.0
 11
6.680233156576702
 21
12.46267346695095
 31
0.0
 12
6.581807961955616
 22
12.47907766605446
 32
0.0
 13
6.581807961955616
 23
12.47907766605446
 33
0.0
  0
SOLID
  5
F46
330
EA8
100
AcDbEntity
  8
Dimensions
  6
Continuous
 62
    47
100
AcDbTrace
 10
14.48338276733453
 20
12.49548186515798
 30
0.0
 11
14.48338276733453
 21
12.46267346695095
 31
0.0
 12
14.58180796195561
 22
12.47907766605446
 32
0.0
 13
14.58180796195561
 23
12.47907766605446
 33
0.0
  0
MTEXT
  5
F47
330
EA8
100
AcDbEntity
  8
Dimensions
  6
Continuous
 62
    47
370
    25
100
AcDbMText
 10
12.60637056734448
 20
12.47907766605446
 30
0.0
 40
0.1200000047683716
 41
0.0
 71
     5
 72
     1
  1
\A1;8.000
  7
TextStyle8
 73
     1
 44
1.0
  0
POINT
  5
F48
330
EA8
100
AcDbEntity
  8
Defpoints
  6
Continuous
 62
     0
100
AcDbPoint
 10
6.581807961955616
 20
8.779842289316917
 30
0.0
  0
POINT
  5
F49
330
EA8
100
AcDbEntity
  8
Defpoints
  6
Continuous
 62
     0
100
AcDbPoint
 10
14.58180796195561
 20
7.352842289316917
 30
0.0
  0
POINT
  5
F4A
330
EA8
100
AcDbEntity
  8
Defpoints
  6
Continuous
 62
     0
100
AcDbPoint
 10
14.58180796195561
 20
12.47907766605446
 30
0.0
  0
ENDBLK
  5
EB4
330
EA8
100
AcDbEntity
  8
0
100
AcDbBlockEnd
  0
BLOCK
  5
F52
330
F4C
100
AcDbEntity
  8
0
100
AcDbBlockBegin
  2
*D28
 70
     1
 10
0.0
 20
0.0
 30
0.0
  3
*D28
  1

  0
LINE
  5
FB2
330
F4C
100
AcDbEntity
  8
Dimensions
  6
Continuous
 62
    47
370
    25
100
AcDbLine
 10
14.84884542434836
 20
5.92635791199487
 30
0.0
 11
14.70578556625017
 21
5.92635791199487
 31
0.0
  0
LINE
  5
FB3
330
F4C
100
AcDbEntity
  8
Dimensions
  6
Continuous
 62
    47
370
    25
100
AcDbLine
 10
14.70578556625017
 20
5.92635791199487
 30
0.0
 11
13.90815824110191
 21
7.008462762486916
 31
0.0
  0
MTEXT
  5
FB4
330
F4C
100
AcDbEntity
  8
Dimensions
  6
Continuous
 62
    47
370
    25
100
AcDbMText
 10
15.13244872727824
 20
5.926357911994872
 30
0.0
 40
0.1200000047683716
 41
0.0
 71
     5
 72
     1
  1
\A1;\U+22050.465
  7
TextStyle8
 73
     1
 44
1.0
  0
SOLID
  5
FB5
330
F4C
100
AcDbEntity
  8
Dimensions
  6
Continuous
 62
    47
100
AcDbTrace
 10
13.92136286518688
 20
7.018195986567466
 30
0.0
 11
13.89495361701693
 21
6.998729538406367
 31
0.0
 12
13.84975889661861
 22
7.087690506996779
 32
0.0
 13
13.84975889661861
 23
7.087690506996779
 33
0.0
  0
LINE
  5
FB6
330
F4C
100
AcDbEntity
  8
Dimensions
  6
Continuous
 62
    47
370
    25
100
AcDbLine
 10
13.62180796195561
 20
7.274842289316916
 30
0.0
 11
13.80180796195561
 21
7.274842289316918
 31
0.0
  0
LINE
  5
FB7
330
F4C
100
AcDbEntity
  8
Dimensions
  6
Continuous
 62
    47
370
    25
100
AcDbLine
 10
13.71180796195561
 20
7.184842289316916
 30
0.0
 11
13.71180796195561
 21
7.364842289316917
 31
0.0
  0
POINT
  5
FB8
330
F4C
100
AcDbEntity
  8
Defpoints
  6
Continuous
 62
     0
100
AcDbPoint
 10
13.84975889661861
 20
7.087690506996779
 30
0.0
  0
POINT
  5
FB9
330
F4C
100
AcDbEntity
  8
Defpoints
  6
Continuous
 62
     0
100
AcDbPoint
 10
13.57385702729261
 20
7.461994071637054
 30
0.0
  0
ENDBLK
  5
F53
330
F4C
100
AcDbEntity
  8
0
100
AcDbBlockEnd
  0
BLOCK
  5
FC1
330
FBB
100
AcDbEntity
  8
0
100
AcDbBlockBegin
  2
*D29
 70
     1
 10
0.0
 20
0.0
 30
0.0
  3
*D29
  1

  0
LINE
  5
1021
330
FBB
100
AcDbEntity
  8
Dimensions
  6
Continuous
 62
    47
370
    25
100
AcDbLine
 10
15.19874792416597
 20
6.451211678703525
 30
0.0
 11
15.05568806606776
 21
6.451211678703526
 31
0.0
  0
LINE
  5
1022
330
FBB
100
AcDbEntity
  8
Dimensions
  6
Continuous
 62
    47
370
    25
100
AcDbLine
 10
15.05568806606776
 20
6.451211678703526
 30
0.0
 11
14.78461656301974
 21
6.966967378704885
 31
0.0
  0
MTEXT
  5
1023
330
FBB
100
AcDbEntity
  8
Dimensions
  6
Continuous
 62
    47
370
    25
100
AcDbMText
 10
15.48235122709584
 20
6.451211678703528
 30
0.0
 40
0.1200000047683716
 41
0.0
 71
     5
 72
     1
  1
\A1;\U+22050.675
  7
TextStyle8
 73
     1
 44
1.0
  0
SOLID
  5
1024
330
FBB
100
AcDbEntity
  8
Dimensions
  6
Continuous
 62
    47
100
AcDbTrace
 10
14.79913733158471
 20
6.974599221766062
 30
0.0
 11
14.77009579445477
 21
6.959335535643708
 31
0.0
 12
14.73882550465268
 22
7.054091990094681
 32
0.0
 13
14.73882550465268
 23
7.054091990094681
 33
0.0
  0
LINE
  5
1025
330
FBB
100
AcDbEntity
  8
Dimensions
  6
Continuous
 62
    47
370
    25
100
AcDbLine
 10
14.49180796195561
 20
7.352842289316916
 30
0.0
 11
14.67180796195561
 21
7.352842289316915
 31
0.0
  0
LINE
  5
1026
330
FBB
100
AcDbEntity
  8
Dimensions
  6
Continuous
 62
    47
370
    25
100
AcDbLine
 10
14.58180796195561
 20
7.262842289316916
 30
0.0
 11
14.58180796195561
 21
7.442842289316915
 31
0.0
  0
POINT
  5
1027
330
FBB
100
AcDbEntity
  8
Defpoints
  6
Continuous
 62
     0
100
AcDbPoint
 10
14.73882550465268
 20
7.054091990094681
 30
0.0
  0
POINT
  5
1028
330
FBB
100
AcDbEntity
  8
Defpoints
  6
Continuous
 62
     0
100
AcDbPoint
 10
14.42479041925855
 20
7.651592588539149
 30
0.0
  0
ENDBLK
  5
FC2
330
FBB
100
AcDbEntity
  8
0
100
AcDbBlockEnd
  0
BLOCK
  5
1035
330
102A
100
AcDbEntity
  8
0
100
AcDbBlockBegin
  2
*D30
 70
     1
 10
0.0
 20
0.0
 30
0.0
  3
*D30
  1

  0
LINE
  5
10C8
330
102A
100
AcDbEntity
  8
Dimensions
  6
Continuous
 62
    47
370
    25
100
AcDbLine
 10
15.22430796195561
 20
6.709842289316918
 30
0.0
 11
16.22224749509619
 21
6.709842289316918
 31
0.0
  0
LINE
  5
10C9
330
102A
100
AcDbEntity
  8
Dimensions
  6
Continuous
 62
    47
370
    25
100
AcDbLine
 10
15.22430796195561
 20
7.274842289316918
 30
0.0
 11
16.22224749509619
 21
7.274842289316918
 31
0.0
  0
LINE
  5
10CA
330
102A
100
AcDbEntity
  8
Dimensions
  6
Continuous
 62
    47
370
    25
100
AcDbLine
 10
16.09724749509619
 20
6.808267483938004
 30
0.0
 11
16.09724749509619
 21
7.176417094695832
 31
0.0
  0
LINE
  5
10CB
330
102A
100
AcDbEntity
  8
Dimensions
  6
Continuous
 62
    47
370
    25
100
AcDbLine
 10
16.09724749509619
 20
7.274842289316918
 30
0.0
 11
16.09724749509619
 21
7.490765815623652
 31
0.0
  0
SOLID
  5
10CC
330
102A
100
AcDbEntity
  8
Dimensions
  6
Continuous
 62
    47
100
AcDbTrace
 10
16.08084329599268
 20
6.808267483938004
 30
0.0
 11
16.11365169419971
 21
6.808267483938004
 31
0.0
 12
16.09724749509619
 22
6.709842289316918
 32
0.0
 13
16.09724749509619
 23
6.709842289316918
 33
0.0
  0
SOLID
  5
10CD
330
102A
100
AcDbEntity
  8
Dimensions
  6
Continuous
 62
    47
100
AcDbTrace
 10
16.08084329599268
 20
7.176417094695832
 30
0.0
 11
16.11365169419971
 21
7.176417094695832
 31
0.0
 12
16.09724749509619
 22
7.274842289316918
 32
0.0
 13
16.09724749509619
 23
7.274842289316918
 33
0.0
  0
MTEXT
  5
10CE
330
102A
100
AcDbEntity
  8
Dimensions
  6
Continuous
 62
    47
370
    25
100
AcDbMText
 10
16.09724749509619
 20
7.713006224047089
 30
0.0
 40
0.1200000047683716
 41
0.0
 71
     5
 72
     1
  1
\A1;0.565
  7
TextStyle8
 11
0.0000000000000001
 21
1.0
 31
0.0
 73
     1
 44
1.0
  0
POINT
  5
10CF
330
102A
100
AcDbEntity
  8
Defpoints
  6
Continuous
 62
     0
100
AcDbPoint
 10
15.16180796195561
 20
6.709842289316918
 30
0.0
  0
POINT
  5
10D0
330
102A
100
AcDbEntity
  8
Defpoints
  6
Continuous
 62
     0
100
AcDbPoint
 10
15.16180796195561
 20
7.274842289316918
 30
0.0
  0
POINT
  5
10D1
330
102A
100
AcDbEntity
  8
Defpoints
  6
Continuous
 62
     0
100
AcDbPoint
 10
16.09724749509619
 20
7.274842289316918
 30
0.0
  0
ENDBLK
  5
1036
330
102A
100
AcDbEntity
  8
0
100
AcDbBlockEnd
  0
BLOCK
  5
10DE
330
10D3
100
AcDbEntity
  8
0
100
AcDbBlockBegin
  2
*D31
 70
     1
 10
0.0
 20
0.0
 30
0.0
  3
*D31
  1

  0
LINE
  5
1172
330
10D3
100
AcDbEntity
  8
Dimensions
  6
Continuous
 62
    47
370
    25
100
AcDbLine
 10
6.519307961955616
 20
6.709842289316918
 30
0.0
 11
5.538660248947963
 21
6.709842289316918
 31
0.0
  0
LINE
  5
1173
330
10D3
100
AcDbEntity
  8
Dimensions
  6
Continuous
 62
    47
370
    25
100
AcDbLine
 10
6.759307961955617
 20
6.959842289316917
 30
0.0
 11
5.538660248947963
 21
6.959842289316918
 31
0.0
  0
LINE
  5
1174
330
10D3
100
AcDbEntity
  8
Dimensions
  6
Continuous
 62
    47
370
    25
100
AcDbLine
 10
5.663660248947963
 20
6.611417094695832
 30
0.0
 11
5.663660248947963
 21
6.512991900074746
 31
0.0
  0
LINE
  5
1175
330
10D3
100
AcDbEntity
  8
Dimensions
  6
Continuous
 62
    47
370
    25
100
AcDbLine
 10
5.663660248947963
 20
7.058267483938004
 30
0.0
 11
5.663660248947963
 21
7.998468473380718
 31
0.0
  0
SOLID
  5
1176
330
10D3
100
AcDbEntity
  8
Dimensions
  6
Continuous
 62
    47
100
AcDbTrace
 10
5.647256049844449
 20
6.611417094695832
 30
0.0
 11
5.680064448051478
 21
6.611417094695832
 31
0.0
 12
5.663660248947963
 22
6.709842289316918
 32
0.0
 13
5.663660248947963
 23
6.709842289316918
 33
0.0
  0
SOLID
  5
1177
330
10D3
100
AcDbEntity
  8
Dimensions
  6
Continuous
 62
    47
100
AcDbTrace
 10
5.647256049844449
 20
7.058267483938004
 30
0.0
 11
5.680064448051478
 21
7.058267483938004
 31
0.0
 12
5.663660248947963
 22
6.959842289316918
 32
0.0
 13
5.663660248947963
 23
6.959842289316918
 33
0.0
  0
MTEXT
  5
1178
330
10D3
100
AcDbEntity
  8
Dimensions
  6
Continuous
 62
    47
370
    25
100
AcDbMText
 10
5.663660248947962
 20
8.22009332925738
 30
0.0
 40
0.1200000047683716
 41
0.0
 71
     5
 72
     1
  1
\A1;0.250
  7
TextStyle8
 11
0.0000000000000001
 21
1.0
 31
0.0
 73
     1
 44
1.0
  0
POINT
  5
1179
330
10D3
100
AcDbEntity
  8
Defpoints
  6
Continuous
 62
     0
100
AcDbPoint
 10
6.581807961955616
 20
6.709842289316918
 30
0.0
  0
POINT
  5
117A
330
10D3
100
AcDbEntity
  8
Defpoints
  6
Continuous
 62
     0
100
AcDbPoint
 10
6.821807961955617
 20
6.959842289316917
 30
0.0
  0
POINT
  5
117B
330
10D3
100
AcDbEntity
  8
Defpoints
  6
Continuous
 62
     0
100
AcDbPoint
 10
5.663660248947963
 20
6.959842289316918
 30
0.0
  0
ENDBLK
  5
10DF
330
10D3
100
AcDbEntity
  8
0
100
AcDbBlockEnd
  0
BLOCK
  5
1188
330
117D
100
AcDbEntity
  8
0
100
AcDbBlockBegin
  2
*D32
 70
     1
 10
0.0
 20
0.0
 30
0.0
  3
*D32
  1

  0
LINE
  5
121C
330
117D
100
AcDbEntity
  8
Dimensions
  6
Continuous
 62
    47
370
    25
100
AcDbLine
 10
9.157910498809984
 20
6.709842289316918
 30
0.0
 11
9.220410498809988
 21
6.709842289316918
 31
0.0
  0
LINE
  5
121D
330
117D
100
AcDbEntity
  8
Dimensions
  6
Continuous
 62
    47
370
    25
100
AcDbLine
 10
9.179307961955617
 20
6.959842289316917
 30
0.0
 11
8.970410498809988
 21
6.959842289316917
 31
0.0
  0
LINE
  5
121E
330
117D
100
AcDbEntity
  8
Dimensions
  6
Continuous
 62
    47
370
    25
100
AcDbLine
 10
9.095410498809988
 20
7.058267483938003
 30
0.0
 11
9.095410498809988
 21
7.156692678559089
 31
0.0
  0
LINE
  5
121F
330
117D
100
AcDbEntity
  8
Dimensions
  6
Continuous
 62
    47
370
    25
100
AcDbLine
 10
9.095410498809988
 20
6.611417094695831
 30
0.0
 11
9.095410498809988
 21
5.642651477707869
 31
0.0
  0
SOLID
  5
1220
330
117D
100
AcDbEntity
  8
Dimensions
  6
Continuous
 62
    47
100
AcDbTrace
 10
9.079006299706474
 20
7.058267483938003
 30
0.0
 11
9.111814697913501
 21
7.058267483938003
 31
0.0
 12
9.095410498809988
 22
6.959842289316917
 32
0.0
 13
9.095410498809988
 23
6.959842289316917
 33
0.0
  0
SOLID
  5
1221
330
117D
100
AcDbEntity
  8
Dimensions
  6
Continuous
 62
    47
100
AcDbTrace
 10
9.079006299706474
 20
6.611417094695831
 30
0.0
 11
9.111814697913501
 21
6.611417094695831
 31
0.0
 12
9.095410498809988
 22
6.709842289316918
 32
0.0
 13
9.095410498809988
 23
6.709842289316918
 33
0.0
  0
MTEXT
  5
1222
330
117D
100
AcDbEntity
  8
Dimensions
  6
Continuous
 62
    47
370
    25
100
AcDbMText
 10
9.095410498809986
 20
5.421026621831209
 30
0.0
 40
0.1200000047683716
 41
0.0
 71
     5
 72
     1
  1
\A1;0.250
  7
TextStyle8
 11
0.0000000000000001
 21
1.0
 31
0.0
 73
     1
 44
1.0
  0
POINT
  5
1223
330
117D
100
AcDbEntity
  8
Defpoints
  6
Continuous
 62
     0
100
AcDbPoint
 10
9.095410498809984
 20
6.709842289316918
 30
0.0
  0
POINT
  5
1224
330
117D
100
AcDbEntity
  8
Defpoints
  6
Continuous
 62
     0
100
AcDbPoint
 10
9.241807961955617
 20
6.959842289316917
 30
0.0
  0
POINT
  5
1225
330
117D
100
AcDbEntity
  8
Defpoints
  6
Continuous
 62
     0
100
AcDbPoint
 10
9.095410498809988
 20
6.959842289316917
 30
0.0
  0
ENDBLK
  5
1189
330
117D
100
AcDbEntity
  8
0
100
AcDbBlockEnd
  0
BLOCK
  5
1232
330
1227
100
AcDbEntity
  8
0
100
AcDbBlockBegin
  2
*D33
 70
     1
 10
0.0
 20
0.0
 30
0.0
  3
*D33
  1

  0
LINE
  5
12C5
330
1227
100
AcDbEntity
  8
Dimensions
  6
Continuous
 62
    47
370
    25
100
AcDbLine
 10
15.22430796195561
 20
7.352842289316919
 30
0.0
 11
16.58563508145181
 21
7.352842289316919
 31
0.0
  0
LINE
  5
12C6
330
1227
100
AcDbEntity
  8
Dimensions
  6
Continuous
 62
    47
370
    25
100
AcDbLine
 10
15.22430796195561
 20
6.709842289316918
 30
0.0
 11
16.58563508145181
 21
6.709842289316918
 31
0.0
  0
LINE
  5
12C7
330
1227
100
AcDbEntity
  8
Dimensions
  6
Continuous
 62
    47
370
    25
100
AcDbLine
 10
16.4606350814518
 20
7.254417094695833
 30
0.0
 11
16.4606350814518
 21
6.808267483938004
 31
0.0
  0
LINE
  5
12C8
330
1227
100
AcDbEntity
  8
Dimensions
  6
Continuous
 62
    47
370
    25
100
AcDbLine
 10
16.4606350814518
 20
6.709842289316918
 30
0.0
 11
16.4606350814518
 21
6.493495570634276
 31
0.0
  0
SOLID
  5
12C9
330
1227
100
AcDbEntity
  8
Dimensions
  6
Continuous
 62
    47
100
AcDbTrace
 10
16.44423088234829
 20
7.254417094695833
 30
0.0
 11
16.47703928055532
 21
7.254417094695833
 31
0.0
 12
16.4606350814518
 22
7.352842289316919
 32
0.0
 13
16.4606350814518
 23
7.352842289316919
 33
0.0
  0
SOLID
  5
12CA
330
1227
100
AcDbEntity
  8
Dimensions
  6
Continuous
 62
    47
100
AcDbTrace
 10
16.44423088234829
 20
6.808267483938004
 30
0.0
 11
16.47703928055532
 21
6.808267483938004
 31
0.0
 12
16.4606350814518
 22
6.709842289316918
 32
0.0
 13
16.4606350814518
 23
6.709842289316918
 33
0.0
  0
MTEXT
  5
12CB
330
1227
100
AcDbEntity
  8
Dimensions
  6
Continuous
 62
    47
370
    25
100
AcDbMText
 10
16.4606350814518
 20
6.27167835458675
 30
0.0
 40
0.1200000047683716
 41
0.0
 71
     5
 72
     1
  1
\A1;0.643
  7
TextStyle8
 11
0.0000000000000001
 21
1.0
 31
0.0
 73
     1
 44
1.0
  0
POINT
  5
12CC
330
1227
100
AcDbEntity
  8
Defpoints
  6
Continuous
 62
     0
100
AcDbPoint
 10
15.16180796195561
 20
7.352842289316919
 30
0.0
  0
POINT
  5
12CD
330
1227
100
AcDbEntity
  8
Defpoints
  6
Continuous
 62
     0
100
AcDbPoint
 10
15.16180796195561
 20
6.709842289316918
 30
0.0
  0
POINT
  5
12CE
330
1227
100
AcDbEntity
  8
Defpoints
  6
Continuous
 62
     0
100
AcDbPoint
 10
16.4606350814518
 20
6.709842289316918
 30
0.0
  0
ENDBLK
  5
1233
330
1227
100
AcDbEntity
  8
0
100
AcDbBlockEnd
  0
BLOCK
  5
12DB
330
12D0
100
AcDbEntity
  8
0
100
AcDbBlockBegin
  2
*D34
 70
     1
 10
0.0
 20
0.0
 30
0.0
  3
*D34
  1

  0
LINE
  5
136E
330
12D0
100
AcDbEntity
  8
Dimensions
  6
Continuous
 62
    47
370
    25
100
AcDbLine
 10
8.264307961955616
 20
7.169842289316917
 30
0.0
 11
8.006334473197926
 21
7.169842289316917
 31
0.0
  0
LINE
  5
136F
330
12D0
100
AcDbEntity
  8
Dimensions
  6
Continuous
 62
    47
370
    25
100
AcDbLine
 10
8.193834473197924
 20
6.709842289316918
 30
0.0
 11
8.256334473197926
 21
6.709842289316918
 31
0.0
  0
LINE
  5
1370
330
12D0
100
AcDbEntity
  8
Dimensions
  6
Continuous
 62
    47
370
    25
100
AcDbLine
 10
8.131334473197926
 20
7.071417094695831
 30
0.0
 11
8.131334473197926
 21
6.808267483938004
 31
0.0
  0
LINE
  5
1371
330
12D0
100
AcDbEntity
  8
Dimensions
  6
Continuous
 62
    47
370
    25
100
AcDbLine
 10
8.131334473197926
 20
6.709842289316918
 30
0.0
 11
8.131334473197926
 21
6.447996986511189
 31
0.0
  0
SOLID
  5
1372
330
12D0
100
AcDbEntity
  8
Dimensions
  6
Continuous
 62
    47
100
AcDbTrace
 10
8.114930274094412
 20
7.071417094695831
 30
0.0
 11
8.147738672301439
 21
7.071417094695831
 31
0.0
 12
8.131334473197926
 22
7.169842289316917
 32
0.0
 13
8.131334473197926
 23
7.169842289316917
 33
0.0
  0
SOLID
  5
1373
330
12D0
100
AcDbEntity
  8
Dimensions
  6
Continuous
 62
    47
100
AcDbTrace
 10
8.114930274094412
 20
6.808267483938004
 30
0.0
 11
8.147738672301439
 21
6.808267483938004
 31
0.0
 12
8.131334473197926
 22
6.709842289316918
 32
0.0
 13
8.131334473197926
 23
6.709842289316918
 33
0.0
  0
MTEXT
  5
1374
330
12D0
100
AcDbEntity
  8
Dimensions
  6
Continuous
 62
    47
370
    25
100
AcDbMText
 10
8.131334473197924
 20
6.226372130634529
 30
0.0
 40
0.1200000047683716
 41
0.0
 71
     5
 72
     1
  1
\A1;0.460
  7
TextStyle8
 11
0.0000000000000001
 21
1.0
 31
0.0
 73
     1
 44
1.0
  0
POINT
  5
1375
330
12D0
100
AcDbEntity
  8
Defpoints
  6
Continuous
 62
     0
100
AcDbPoint
 10
8.326807961955616
 20
7.169842289316917
 30
0.0
  0
POINT
  5
1376
330
12D0
100
AcDbEntity
  8
Defpoints
  6
Continuous
 62
     0
100
AcDbPoint
 10
8.131334473197924
 20
6.709842289316918
 30
0.0
  0
POINT
  5
1377
330
12D0
100
AcDbEntity
  8
Defpoints
  6
Continuous
 62
     0
100
AcDbPoint
 10
8.131334473197926
 20
6.709842289316918
 30
0.0
  0
ENDBLK
  5
12DC
330
12D0
100
AcDbEntity
  8
0
100
AcDbBlockEnd
  0
ENDSEC
  0
SECTION
  2
ENTITIES
  0
LINE
  5
123
330
1F
100
AcDbEntity
  8
Sketch Lines
  6
ACAD_ISO08W100
 62
     7
370
    25
100
AcDbLine
 10
10.80430796195561
 20
7.352842289316917
 30
0.0
 11
15.16180796195561
 21
7.352842289316919
 31
0.0
  0
LINE
  5
124
330
1F
100
AcDbEntity
  8
Sketch Lines
  6
Continuous
 62
     7
370
    25
100
AcDbLine
 10
8.326807961955616
 20
7.169842289316917
 30
0.0
 11
9.076807961955616
 21
7.169842289316917
 31
0.0
  0
LINE
  5
125
330
1F
100
AcDbEntity
  8
Sketch Lines
  6
ACAD_ISO08W100
 62
     7
370
    25
100
AcDbLine
 10
7.489307961955617
 20
7.274842289316915
 30
0.0
 11
15.16180796195561
 21
7.274842289316918
 31
0.0
  0
CIRCLE
  5
126
330
1F
100
AcDbEntity
  8
Sketch Lines
  6
Continuous
 62
     7
370
    50
100
AcDbCircle
 10
14.58180796195561
 20
7.352842289316917
 30
0.0
 40
0.3375
  0
CIRCLE
  5
127
330
1F
100
AcDbEntity
  8
Sketch Lines
  6
Continuous
 62
     7
370
    50
100
AcDbCircle
 10
13.71180796195561
 20
7.274842289316918
 30
0.0
 40
0.2325
  0
CIRCLE
  5
128
330
1F
100
AcDbEntity
  8
Sketch Lines
  6
Continuous
 62
     7
370
    50
100
AcDbCircle
 10
12.84180796195561
 20
7.352842289316917
 30
0.0
 40
0.3375
  0
CIRCLE
  5
129
330
1F
100
AcDbEntity
  8
Sketch Lines
  6
Continuous
 62
     7
370
    50
100
AcDbCircle
 10
11.99180796195561
 20
7.352842289316917
 30
0.0
 40
0.3375
  0
CIRCLE
  5
12A
330
1F
100
AcDbEntity
  8
Sketch Lines
  6
Continuous
 62
     7
370
    50
100
AcDbCircle
 10
11.14180796195561
 20
7.352842289316917
 30
0.0
 40
0.3375
  0
CIRCLE
  5
12B
330
1F
100
AcDbEntity
  8
Sketch Lines
  6
Continuous
 62
     7
370
    50
100
AcDbCircle
 10
10.27180796195561
 20
7.274842289316917
 30
0.0
 40
0.2325
  0
LINE
  5
12C
330
1F
100
AcDbEntity
  8
Sketch Lines
  6
Continuous
 62
     7
370
    50
100
AcDbLine
 10
9.241807961955617
 20
6.959842289316917
 30
0.0
 11
9.241807961955617
 21
7.419842289316916
 31
0.0
  0
LINE
  5
12D
330
1F
100
AcDbEntity
  8
Sketch Lines
  6
Continuous
 62
     7
370
    50
100
AcDbLine
 10
9.741807961955617
 20
6.959842289316917
 30
0.0
 11
9.241807961955617
 21
6.959842289316917
 31
0.0
  0
LINE
  5
12E
330
1F
100
AcDbEntity
  8
Sketch Lines
  6
Continuous
 62
     7
370
    50
100
AcDbLine
 10
9.741807961955617
 20
7.419842289316918
 30
0.0
 11
9.741807961955617
 21
6.959842289316917
 31
0.0
  0
LINE
  5
12F
330
1F
100
AcDbEntity
  8
Sketch Lines
  6
Continuous
 62
     7
370
    50
100
AcDbLine
 10
9.241807961955617
 20
7.419842289316918
 30
0.0
 11
9.741807961955617
 21
7.419842289316918
 31
0.0
  0
CIRCLE
  5
130
330
1F
100
AcDbEntity
  8
Sketch Lines
  6
Continuous
 62
     7
370
    50
100
AcDbCircle
 10
8.451807961955617
 20
7.169842289316917
 30
0.0
 40
0.125
  0
CIRCLE
  5
131
330
1F
100
AcDbEntity
  8
Sketch Lines
  6
Continuous
 62
     7
370
    50
100
AcDbCircle
 10
8.951807961955616
 20
7.169842289316917
 30
0.0
 40
0.125
  0
CIRCLE
  5
132
330
1F
100
AcDbEntity
  8
Sketch Lines
  6
Continuous
 62
     7
370
    50
100
AcDbCircle
 10
7.721807961955617
 20
7.274842289316917
 30
0.0
 40
0.2325
  0
LINE
  5
133
330
1F
100
AcDbEntity
  8
Sketch Lines
  6
Continuous
 62
     7
370
    50
100
AcDbLine
 10
6.821807961955617
 20
6.959842289316917
 30
0.0
 11
6.821807961955617
 21
7.419842289316916
 31
0.0
  0
LINE
  5
134
330
1F
100
AcDbEntity
  8
Sketch Lines
  6
Continuous
 62
     7
370
    50
100
AcDbLine
 10
7.201807961955617
 20
6.959842289316917
 30
0.0
 11
6.821807961955617
 21
6.959842289316917
 31
0.0
  0
LINE
  5
135
330
1F
100
AcDbEntity
  8
Sketch Lines
  6
Continuous
 62
     7
370
    50
100
AcDbLine
 10
7.201807961955617
 20
7.419842289316918
 30
0.0
 11
7.201807961955617
 21
6.959842289316917
 31
0.0
  0
LINE
  5
136
330
1F
100
AcDbEntity
  8
Sketch Lines
  6
Continuous
 62
     7
370
    50
100
AcDbLine
 10
6.821807961955617
 20
7.419842289316918
 30
0.0
 11
7.201807961955617
 21
7.419842289316918
 31
0.0
  0
LINE
  5
137
330
1F
100
AcDbEntity
  8
Sketch Lines
  6
Continuous
 62
     7
370
    50
100
AcDbLine
 10
6.581807961955616
 20
8.779842289316917
 30
0.0
 11
6.581807961955616
 21
6.709842289316918
 31
0.0
  0
LINE
  5
138
330
1F
100
AcDbEntity
  8
Sketch Lines
  6
Continuous
 62
     7
370
    50
100
AcDbLine
 10
15.16180796195561
 20
8.779842289316919
 30
0.0
 11
6.581807961955616
 21
8.779842289316917
 31
0.0
  0
LINE
  5
139
330
1F
100
AcDbEntity
  8
Sketch Lines
  6
Continuous
 62
     7
370
    50
100
AcDbLine
 10
15.16180796195561
 20
6.709842289316918
 30
0.0
 11
15.16180796195561
 21
8.779842289316919
 31
0.0
  0
LINE
  5
13A
330
1F
100
AcDbEntity
  8
Sketch Lines
  6
Continuous
 62
     7
370
    50
100
AcDbLine
 10
6.581807961955616
 20
6.709842289316918
 30
0.0
 11
15.16180796195561
 21
6.709842289316918
 31
0.0
  0
MTEXT
  5
CC
330
1B
100
AcDbEntity
 67
     1
  8
Sketch Lines
  6
Continuous
 62
     7
370
    50
100
AcDbMText
 10
19.20336881068747
 20
16.53999999999999
 30
0.0
 40
0.1200787429734478
 41
0.0
 71
     7
 72
     1
  1
1
  7
TextStyle13
 73
     1
 44
1.0
  0
MTEXT
  5
CE
330
1B
100
AcDbEntity
 67
     1
  8
Sketch Lines
  6
Continuous
 62
     7
370
    50
100
AcDbMText
 10
19.20336881068747
 20
0.3399212570265522
 30
0.0
 40
0.1200787429734478
 41
0.0
 71
     7
 72
     1
  1
1
  7
TextStyle13
 73
     1
 44
2.120391845703125
  0
MTEXT
  5
CF
330
1B
100
AcDbEntity
 67
     1
  8
Sketch Lines
  6
Continuous
 62
     7
370
    50
100
AcDbMText
 10
13.70336881068747
 20
16.53999999999999
 30
0.0
 40
0.1200787429734478
 41
0.0
 71
     7
 72
     1
  1
2
  7
TextStyle13
 73
     1
 44
1.0
  0
MTEXT
  5
D0
330
1B
100
AcDbEntity
 67
     1
  8
Sketch Lines
  6
Continuous
 62
     7
370
    50
100
AcDbMText
 10
13.70336881068747
 20
0.3399212570265522
 30
0.0
 40
0.1200787429734478
 41
0.0
 71
     7
 72
     1
  1
2
  7
TextStyle13
 73
     1
 44
1.0
  0
MTEXT
  5
D1
330
1B
100
AcDbEntity
 67
     1
  8
Sketch Lines
  6
Continuous
 62
     7
370
    50
100
AcDbMText
 10
8.203368810687479
 20
16.53999999999999
 30
0.0
 40
0.1200787429734478
 41
0.0
 71
     7
 72
     1
  1
3
  7
TextStyle13
 73
     1
 44
1.0
  0
MTEXT
  5
D2
330
1B
100
AcDbEntity
 67
     1
  8
Sketch Lines
  6
Continuous
 62
     7
370
    50
100
AcDbMText
 10
8.203368810687479
 20
0.3399212570265522
 30
0.0
 40
0.1200787429734478
 41
0.0
 71
     7
 72
     1
  1
3
  7
TextStyle13
 73
     1
 44
1.0
  0
MTEXT
  5
D3
330
1B
100
AcDbEntity
 67
     1
  8
Sketch Lines
  6
Continuous
 62
     7
370
    50
100
AcDbMText
 10
2.703368810687479
 20
16.53999999999999
 30
0.0
 40
0.1200787429734478
 41
0.0
 71
     7
 72
     1
  1
4
  7
TextStyle13
 73
     1
 44
1.0
  0
MTEXT
  5
D4
330
1B
100
AcDbEntity
 67
     1
  8
Sketch Lines
  6
Continuous
 62
     7
370
    50
100
AcDbMText
 10
2.703368810687479
 20
0.3399212570265522
 30
0.0
 40
0.1200787429734478
 41
0.0
 71
     7
 72
     1
  1
4
  7
TextStyle13
 73
     1
 44
1.0
  0
MTEXT
  5
E5
330
1B
100
AcDbEntity
 67
     1
  8
Sketch Lines
  6
Continuous
 62
     7
370
    50
100
AcDbMText
 10
0.5937652403538622
 20
2.064960628513275
 30
0.0
 40
0.1200787429734478
 41
0.0
 71
     7
 72
     1
  1
A
  7
TextStyle13
 73
     1
 44
1.0
  0
MTEXT
  5
E6
330
1B
100
AcDbEntity
 67
     1
  8
Sketch Lines
  6
Continuous
 62
     7
370
    50
100
AcDbMText
 10
21.2938439833273
 20
2.064960628513275
 30
0.0
 40
0.1200787429734478
 41
0.0
 71
     7
 72
     1
  1
A
  7
TextStyle13
 73
     1
 44
1.0
  0
MTEXT
  5
E7
330
1B
100
AcDbEntity
 67
     1
  8
Sketch Lines
  6
Continuous
 62
     7
370
    50
100
AcDbMText
 10
0.5939940494439733
 20
6.314960628513275
 30
0.0
 40
0.1200787429734478
 41
0.0
 71
     7
 72
     1
  1
B
  7
TextStyle13
 73
     1
 44
1.0
  0
MTEXT
  5
E8
330
1B
100
AcDbEntity
 67
     1
  8
Sketch Lines
  6
Continuous
 62
     7
370
    50
100
AcDbMText
 10
21.29407279241742
 20
6.314960628513275
 30
0.0
 40
0.1200787429734478
 41
0.0
 71
     7
 72
     1
  1
B
  7
TextStyle13
 73
     1
 44
1.0
  0
MTEXT
  5
E9
330
1B
100
AcDbEntity
 67
     1
  8
Sketch Lines
  6
Continuous
 62
     7
370
    50
100
AcDbMText
 10
0.5893721140369656
 20
10.56496062851327
 30
0.0
 40
0.1200787429734478
 41
0.0
 71
     7
 72
     1
  1
C
  7
TextStyle13
 73
     1
 44
1.0
  0
MTEXT
  5
EA
330
1B
100
AcDbEntity
 67
     1
  8
Sketch Lines
  6
Continuous
 62
     7
370
    50
100
AcDbMText
 10
21.28945085701041
 20
10.56496062851327
 30
0.0
 40
0.1200787429734478
 41
0.0
 71
     7
 72
     1
  1
C
  7
TextStyle13
 73
     1
 44
1.0
  0
MTEXT
  5
EB
330
1B
100
AcDbEntity
 67
     1
  8
Sketch Lines
  6
Continuous
 62
     7
370
    50
100
AcDbMText
 10
0.5893721140369656
 20
14.81496062851327
 30
0.0
 40
0.1200787429734478
 41
0.0
 71
     7
 72
     1
  1
D
  7
TextStyle13
 73
     1
 44
1.0
  0
MTEXT
  5
EC
330
1B
100
AcDbEntity
 67
     1
  8
Sketch Lines
  6
Continuous
 62
     7
370
    50
100
AcDbMText
 10
21.28945085701041
 20
14.81496062851327
 30
0.0
 40
0.1200787429734478
 41
0.0
 71
     7
 72
     1
  1
D
  7
TextStyle13
 73
     1
 44
1.0
  0
INSERT
  5
ED
330
1B
100
AcDbEntity
 67
     1
  8
Sketch Lines
100
AcDbBlockReference
  2
2dTransBorder1
 10
0.0
 20
0.0
 30
0.0
 41
0.3937007874015748
 42
0.3937007874015748
 43
0.3937007874015748
  0
MTEXT
  5
105
330
1B
100
AcDbEntity
 67
     1
  8
Sketch Lines
  6
Continuous
 62
     7
370
    50
100
AcDbMText
 10
16.26360094331391
 20
2.248747790582464
 30
0.0
 40
0.1000000031914298
 41
0.0
 71
     7
 72
     1
  1
TITLE
  7
TextStyle6
 73
     1
 44
1.0
  0
MTEXT
  5
106
330
1B
100
AcDbEntity
 67
     1
  8
Sketch Lines
  6
Continuous
 62
     7
370
    50
100
AcDbMText
 10
16.30753931858016
 20
1.11967791354319
 30
0.0
 40
0.1000000031914298
 41
0.0
 71
     7
 72
     1
  1
SIZE
  7
TextStyle6
 73
     1
 44
1.0
  0
MTEXT
  5
107
330
1B
100
AcDbEntity
 67
     1
  8
Sketch Lines
  6
Continuous
 62
     7
370
    50
100
AcDbMText
 10
17.65803242604435
 20
1.122337190899826
 30
0.0
 40
0.1000000031914298
 41
0.0
 71
     7
 72
     1
  1
DWG NO
  7
TextStyle6
 73
     1
 44
1.0
  0
MTEXT
  5
108
330
1B
100
AcDbEntity
 67
     1
  8
Sketch Lines
  6
Continuous
 62
     7
370
    50
100
AcDbMText
 10
20.78592530205483
 20
1.126522833844178
 30
0.0
 40
0.1000000031914298
 41
0.0
 71
     7
 72
     1
  1
REV
  7
TextStyle6
 73
     1
 44
1.0
  0
MTEXT
  5
109
330
1B
100
AcDbEntity
 67
     1
  8
Sketch Lines
  6
Continuous
 62
     7
370
    50
100
AcDbMText
 10
16.24355597169667
 20
0.634999515990913
 30
0.0
 40
0.1000000031914298
 41
0.0
 71
     7
 72
     1
  1
SCALE
  7
TextStyle6
 73
     1
 44
1.0
  0
MTEXT
  5
10A
330
1B
100
AcDbEntity
 67
     1
  8
Sketch Lines
  6
Continuous
 62
     7
370
    50
100
AcDbMText
 10
19.19896633858267
 20
0.5410368687533691
 30
0.0
 40
0.1000000031914298
 41
0.0
 71
     7
 72
     1
  1
SHEET
  7
TextStyle6
 73
     1
 44
1.0
  0
MTEXT
  5
10B
330
1B
100
AcDbEntity
 67
     1
  8
Sketch Lines
  6
Continuous
 62
     7
370
    50
100
AcDbMText
 10
20.32101358267716
 20
0.5410368687533691
 30
0.0
 40
0.1000000031914298
 41
0.0
 71
     7
 72
     1
  1
OF
  7
TextStyle6
 73
     1
 44
1.0
  0
MTEXT
  5
10C
330
1B
100
AcDbEntity
 67
     1
  8
Sketch Lines
  6
Continuous
 62
     7
370
    50
100
AcDbMText
 10
13.52501470542676
 20
2.880304914401787
 30
0.0
 40
0.1000000031914298
 41
0.0
 71
     7
 72
     1
  1
DRAWN
  7
TextStyle6
 73
     1
 44
1.0
  0
MTEXT
  5
10D
330
1B
100
AcDbEntity
 67
     1
  8
Sketch Lines
  6
Continuous
 62
     7
370
    50
100
AcDbMText
 10
13.52501470542676
 20
2.504536117469579
 30
0.0
 40
0.1000000031914298
 41
0.0
 71
     7
 72
     1
  1
CHECKED
  7
TextStyle6
 73
     1
 44
1.0
  0
MTEXT
  5
10E
330
1B
100
AcDbEntity
 67
     1
  8
Sketch Lines
  6
Continuous
 62
     7
370
    50
100
AcDbMText
 10
13.55493528787524
 20
2.129069075993677
 30
0.0
 40
0.1000000031914298
 41
0.0
 71
     7
 72
     1
  1
QA
  7
TextStyle6
 73
     1
 44
1.0
  0
MTEXT
  5
10F
330
1B
100
AcDbEntity
 67
     1
  8
Sketch Lines
  6
Continuous
 62
     7
370
    50
100
AcDbMText
 10
13.54033043549451
 20
1.746254649175994
 30
0.0
 40
0.1000000031914298
 41
0.0
 71
     7
 72
     1
  1
MFG
  7
TextStyle6
 73
     1
 44
1.0
  0
MTEXT
  5
110
330
1B
100
AcDbEntity
 67
     1
  8
Sketch Lines
  6
Continuous
 62
     7
370
    50
100
AcDbMText
 10
13.54535333089935
 20
1.367071612312191
 30
0.0
 40
0.1000000031914298
 41
0.0
 71
     7
 72
     1
  1
APPROVED
  7
TextStyle6
 73
     1
 44
1.0
  0
MTEXT
  5
111
330
1B
100
AcDbEntity
 67
     1
  8
Sketch Lines
  6
Continuous
 62
     7
370
    50
100
AcDbMText
 10
16.29529599882902
 20
1.579742091143915
 30
0.0
 40
0.187999995674674
 41
0.0
 71
     7
 72
     1
  1
 
  7
TextStyle7
 73
     1
 44
1.0
  0
MTEXT
  5
112
330
1B
100
AcDbEntity
 67
     1
  8
Sketch Lines
  6
Continuous
 62
     7
370
    50
100
AcDbMText
 10
17.68028532493105
 20
1.07159075670184
 30
0.0
 40
0.187999995674674
 41
0.0
 71
     7
 72
     1
  1
x0xb0x IO panel march 
  7
TextStyle7
 73
     1
 44
1.0
  0
MTEXT
  5
113
330
1B
100
AcDbEntity
 67
     1
  8
Sketch Lines
  6
Continuous
 62
     7
370
    50
100
AcDbMText
 10
17.68028532493105
 20
0.7757347067678891
 30
0.0
 40
0.187999995674674
 41
0.0
 71
     7
 72
     1
  1
2
  7
TextStyle7
 73
     1
 44
1.0
  0
MTEXT
  5
114
330
1B
100
AcDbEntity
 67
     1
  8
Sketch Lines
  6
Continuous
 62
     7
370
    50
100
AcDbMText
 10
19.92569636785119
 20
0.5440468490940529
 30
0.0
 40
0.1249999981226883
 41
0.0
 71
     7
 72
     1
  1
1 
  7
TextStyle5
 73
     1
 44
1.0
  0
MTEXT
  5
115
330
1B
100
AcDbEntity
 67
     1
  8
Sketch Lines
  6
Continuous
 62
     7
370
    50
100
AcDbMText
 10
20.67207256304086
 20
0.5393600393700786
 30
0.0
 40
0.1249999981226883
 41
0.0
 71
     7
 72
     1
  1
1 
  7
TextStyle5
 73
     1
 44
1.0
  0
MTEXT
  5
116
330
1B
100
AcDbEntity
 67
     1
  8
Sketch Lines
  6
Continuous
 62
     7
370
    50
100
AcDbMText
 10
20.91575401960985
 20
0.8627661563288354
 30
0.0
 40
0.1249999981226883
 41
0.0
 71
     7
 72
     1
  1
 
  7
TextStyle5
 73
     1
 44
1.0
  0
MTEXT
  5
117
330
1B
100
AcDbEntity
 67
     1
  8
Sketch Lines
  6
Continuous
 62
     7
370
    50
100
AcDbMText
 10
16.36578720022541
 20
0.8193041463434283
 30
0.0
 40
0.187999995674674
 41
0.0
 71
     7
 72
     1
  1
C
  7
TextStyle7
 73
     1
 44
1.0
  0
MTEXT
  5
118
330
1B
100
AcDbEntity
 67
     1
  8
Sketch Lines
  6
Continuous
 62
     7
370
    50
100
AcDbMText
 10
18.7165360769886
 20
2.621435537589921
 30
0.0
 40
0.1249999981226883
 41
0.0
 71
     7
 72
     1
  1
 
  7
TextStyle5
 73
     1
 44
1.0
  0
MTEXT
  5
119
330
1B
100
AcDbEntity
 67
     1
  8
Sketch Lines
  6
Continuous
 62
     7
370
    50
100
AcDbMText
 10
13.54146691356362
 20
2.696368027432062
 30
0.0
 40
0.1249999981226883
 41
0.0
 71
     7
 72
     1
  1
ladyada
  7
TextStyle5
 73
     1
 44
1.0
  0
MTEXT
  5
11A
330
1B
100
AcDbEntity
 67
     1
  8
Sketch Lines
  6
Continuous
 62
     7
370
    50
100
AcDbMText
 10
15.28193807709318
 20
2.647212922752661
 30
0.0
 40
0.1249999981226883
 41
0.0
 71
     7
 72
     1
  1
3/2/2005
  7
TextStyle5
 73
     1
 44
1.0
  0
MTEXT
  5
11B
330
1B
100
AcDbEntity
 67
     1
  8
Sketch Lines
  6
Continuous
 62
     7
370
    50
100
AcDbMText
 10
13.53487426991275
 20
2.26495796978931
 30
0.0
 40
0.1249999981226883
 41
0.0
 71
     7
 72
     1
  1
 
  7
TextStyle5
 73
     1
 44
1.0
  0
MTEXT
  5
11C
330
1B
100
AcDbEntity
 67
     1
  8
Sketch Lines
  6
Continuous
 62
     7
370
    50
100
AcDbMText
 10
15.28193807709318
 20
2.276701940627965
 30
0.0
 40
0.1249999981226883
 41
0.0
 71
     7
 72
     1
  1
 
  7
TextStyle5
 73
     1
 44
1.0
  0
MTEXT
  5
11D
330
1B
100
AcDbEntity
 67
     1
  8
Sketch Lines
  6
Continuous
 62
     7
370
    50
100
AcDbMText
 10
13.54010794250497
 20
1.139110843483421
 30
0.0
 40
0.1249999981226883
 41
0.0
 71
     7
 72
     1
  1
 
  7
TextStyle5
 73
     1
 44
1.0
  0
MTEXT
  5
11E
330
1B
100
AcDbEntity
 67
     1
  8
Sketch Lines
  6
Continuous
 62
     7
370
    50
100
AcDbMText
 10
15.28193807709318
 20
1.138552291249812
 30
0.0
 40
0.1249999981226883
 41
0.0
 71
     7
 72
     1
  1
 
  7
TextStyle5
 73
     1
 44
1.0
  0
MTEXT
  5
11F
330
1B
100
AcDbEntity
 67
     1
  8
Sketch Lines
  6
Continuous
 62
     7
370
    50
100
AcDbMText
 10
13.53887430804344
 20
1.517944472099422
 30
0.0
 40
0.1249999981226883
 41
0.0
 71
     7
 72
     1
  1
 
  7
TextStyle5
 73
     1
 44
1.0
  0
MTEXT
  5
120
330
1B
100
AcDbEntity
 67
     1
  8
Sketch Lines
  6
Continuous
 62
     7
370
    50
100
AcDbMText
 10
15.28576485188654
 20
1.515928417530885
 30
0.0
 40
0.1249999981226883
 41
0.0
 71
     7
 72
     1
  1
 
  7
TextStyle5
 73
     1
 44
1.0
  0
MTEXT
  5
121
330
1B
100
AcDbEntity
 67
     1
  8
Sketch Lines
  6
Continuous
 62
     7
370
    50
100
AcDbMText
 10
17.03579340890319
 20
0.5503071998810127
 30
0.0
 40
0.1249999981226883
 41
0.0
 71
     7
 72
     1
  1
 
  7
TextStyle5
 73
     1
 44
2.180377960205078
  0
INSERT
  5
122
330
1B
100
AcDbEntity
 67
     1
  8
Sketch Lines
100
AcDbBlockReference
  2
2dTransTitleBlock1
 10
0.0
 20
0.0
 30
0.0
 41
0.3937007874015748
 42
0.3937007874015748
 43
0.3937007874015748
  0
LINE
  5
13B
330
1B
100
AcDbEntity
 67
     1
  8
Sketch Lines
  6
ACAD_ISO08W100
 62
     7
370
    25
100
AcDbLine
 10
10.80430796195561
 20
7.352842289316917
 30
0.0
 11
15.16180796195561
 21
7.352842289316919
 31
0.0
  0
LINE
  5
13C
330
1B
100
AcDbEntity
 67
     1
  8
Sketch Lines
  6
Continuous
 62
     7
370
    25
100
AcDbLine
 10
8.326807961955616
 20
7.169842289316917
 30
0.0
 11
9.076807961955616
 21
7.169842289316917
 31
0.0
  0
LINE
  5
13D
330
1B
100
AcDbEntity
 67
     1
  8
Sketch Lines
  6
ACAD_ISO08W100
 62
     7
370
    25
100
AcDbLine
 10
7.489307961955617
 20
7.274842289316915
 30
0.0
 11
15.16180796195561
 21
7.274842289316918
 31
0.0
  0
CIRCLE
  5
13E
330
1B
100
AcDbEntity
 67
     1
  8
Sketch Lines
  6
Continuous
 62
     7
370
    50
100
AcDbCircle
 10
14.58180796195561
 20
7.352842289316917
 30
0.0
 40
0.3375
  0
CIRCLE
  5
13F
330
1B
100
AcDbEntity
 67
     1
  8
Sketch Lines
  6
Continuous
 62
     7
370
    50
100
AcDbCircle
 10
13.71180796195561
 20
7.274842289316918
 30
0.0
 40
0.2325
  0
CIRCLE
  5
140
330
1B
100
AcDbEntity
 67
     1
  8
Sketch Lines
  6
Continuous
 62
     7
370
    50
100
AcDbCircle
 10
12.84180796195561
 20
7.352842289316917
 30
0.0
 40
0.3375
  0
CIRCLE
  5
141
330
1B
100
AcDbEntity
 67
     1
  8
Sketch Lines
  6
Continuous
 62
     7
370
    50
100
AcDbCircle
 10
11.99180796195561
 20
7.352842289316917
 30
0.0
 40
0.3375
  0
CIRCLE
  5
142
330
1B
100
AcDbEntity
 67
     1
  8
Sketch Lines
  6
Continuous
 62
     7
370
    50
100
AcDbCircle
 10
11.14180796195561
 20
7.352842289316917
 30
0.0
 40
0.3375
  0
CIRCLE
  5
143
330
1B
100
AcDbEntity
 67
     1
  8
Sketch Lines
  6
Continuous
 62
     7
370
    50
100
AcDbCircle
 10
10.27180796195561
 20
7.274842289316917
 30
0.0
 40
0.2325
  0
LINE
  5
144
330
1B
100
AcDbEntity
 67
     1
  8
Sketch Lines
  6
Continuous
 62
     7
370
    50
100
AcDbLine
 10
9.241807961955617
 20
6.959842289316917
 30
0.0
 11
9.241807961955617
 21
7.419842289316916
 31
0.0
  0
LINE
  5
145
330
1B
100
AcDbEntity
 67
     1
  8
Sketch Lines
  6
Continuous
 62
     7
370
    50
100
AcDbLine
 10
9.741807961955617
 20
6.959842289316917
 30
0.0
 11
9.241807961955617
 21
6.959842289316917
 31
0.0
  0
LINE
  5
146
330
1B
100
AcDbEntity
 67
     1
  8
Sketch Lines
  6
Continuous
 62
     7
370
    50
100
AcDbLine
 10
9.741807961955617
 20
7.419842289316918
 30
0.0
 11
9.741807961955617
 21
6.959842289316917
 31
0.0
  0
LINE
  5
147
330
1B
100
AcDbEntity
 67
     1
  8
Sketch Lines
  6
Continuous
 62
     7
370
    50
100
AcDbLine
 10
9.241807961955617
 20
7.419842289316918
 30
0.0
 11
9.741807961955617
 21
7.419842289316918
 31
0.0
  0
CIRCLE
  5
148
330
1B
100
AcDbEntity
 67
     1
  8
Sketch Lines
  6
Continuous
 62
     7
370
    50
100
AcDbCircle
 10
8.451807961955617
 20
7.169842289316917
 30
0.0
 40
0.125
  0
CIRCLE
  5
149
330
1B
100
AcDbEntity
 67
     1
  8
Sketch Lines
  6
Continuous
 62
     7
370
    50
100
AcDbCircle
 10
8.951807961955616
 20
7.169842289316917
 30
0.0
 40
0.125
  0
CIRCLE
  5
14A
330
1B
100
AcDbEntity
 67
     1
  8
Sketch Lines
  6
Continuous
 62
     7
370
    50
100
AcDbCircle
 10
7.721807961955617
 20
7.274842289316917
 30
0.0
 40
0.2325
  0
LINE
  5
14B
330
1B
100
AcDbEntity
 67
     1
  8
Sketch Lines
  6
Continuous
 62
     7
370
    50
100
AcDbLine
 10
6.821807961955617
 20
6.959842289316917
 30
0.0
 11
6.821807961955617
 21
7.419842289316916
 31
0.0
  0
LINE
  5
14C
330
1B
100
AcDbEntity
 67
     1
  8
Sketch Lines
  6
Continuous
 62
     7
370
    50
100
AcDbLine
 10
7.201807961955617
 20
6.959842289316917
 30
0.0
 11
6.821807961955617
 21
6.959842289316917
 31
0.0
  0
LINE
  5
14D
330
1B
100
AcDbEntity
 67
     1
  8
Sketch Lines
  6
Continuous
 62
     7
370
    50
100
AcDbLine
 10
7.201807961955617
 20
7.419842289316918
 30
0.0
 11
7.201807961955617
 21
6.959842289316917
 31
0.0
  0
LINE
  5
14E
330
1B
100
AcDbEntity
 67
     1
  8
Sketch Lines
  6
Continuous
 62
     7
370
    50
100
AcDbLine
 10
6.821807961955617
 20
7.419842289316918
 30
0.0
 11
7.201807961955617
 21
7.419842289316918
 31
0.0
  0
LINE
  5
14F
330
1B
100
AcDbEntity
 67
     1
  8
Sketch Lines
  6
Continuous
 62
     7
370
    50
100
AcDbLine
 10
6.581807961955616
 20
8.779842289316917
 30
0.0
 11
6.581807961955616
 21
6.709842289316918
 31
0.0
  0
LINE
  5
150
330
1B
100
AcDbEntity
 67
     1
  8
Sketch Lines
  6
Continuous
 62
     7
370
    50
100
AcDbLine
 10
15.16180796195561
 20
8.779842289316919
 30
0.0
 11
6.581807961955616
 21
8.779842289316917
 31
0.0
  0
LINE
  5
151
330
1B
100
AcDbEntity
 67
     1
  8
Sketch Lines
  6
Continuous
 62
     7
370
    50
100
AcDbLine
 10
15.16180796195561
 20
6.709842289316918
 30
0.0
 11
15.16180796195561
 21
8.779842289316919
 31
0.0
  0
LINE
  5
152
330
1B
100
AcDbEntity
 67
     1
  8
Sketch Lines
  6
Continuous
 62
     7
370
    50
100
AcDbLine
 10
6.581807961955616
 20
6.709842289316918
 30
0.0
 11
15.16180796195561
 21
6.709842289316918
 31
0.0
  0
DIMENSION
  5
153
330
1B
100
AcDbEntity
 67
     1
  8
Dimensions
  6
Continuous
 62
     7
370
    25
100
AcDbDimension
  2
*D4
 10
4.717659662365622
 20
6.709842289316918
 30
0.0
 11
4.717659662365621
 21
7.946249680843338
 31
0.0
 70
   160
  1
<>
 71
     5
 42
2.069999999999999
  3
ANSI - ALIGNED
100
AcDbAlignedDimension
 13
6.581807961955616
 23
8.779842289316917
 33
0.0
 14
6.581807961955616
 24
6.709842289316918
 34
0.0
 50
90.0
100
AcDbRotatedDimension
1001
ACAD
1000
DSTYLE
1002
{
1070
    74
1070
     0
1070
   271
1070
     3
1070
   144
1040
1.0
1070
   340
1005
5F
1070
    47
1040
0.0
1070
    48
1040
0.0
1002
}
  0
DIMENSION
  5
1F8
330
1B
100
AcDbEntity
 67
     1
  8
Dimensions
  6
Continuous
 62
     7
370
    25
100
AcDbDimension
  2
*D5
 10
15.16180796195561
 20
13.00905488774211
 30
0.0
 11
10.10933909137335
 21
13.00905488774211
 31
0.0
 70
   160
  1
<>
 71
     5
 42
8.579999999999998
  3
ANSI - ALIGNED
100
AcDbAlignedDimension
 13
6.581807961955616
 23
6.709842289316918
 33
0.0
 14
15.16180796195561
 24
6.709842289316918
 34
0.0
 50
180.0
100
AcDbRotatedDimension
1001
ACAD
1000
DSTYLE
1002
{
1070
    74
1070
     0
1070
   271
1070
     3
1070
   144
1040
1.0
1070
   340
1005
5F
1070
    47
1040
0.0
1070
    48
1040
0.0
1002
}
  0
DIMENSION
  5
29C
330
1B
100
AcDbEntity
 67
     1
  8
Dimensions
  6
Continuous
 62
     7
370
    25
100
AcDbDimension
  2
*D6
 10
7.201807961955617
 20
5.958167231189336
 30
0.0
 11
6.117269661636065
 21
5.958167231189336
 31
0.0
 70
   160
  1
<>
 71
     5
 42
0.3799999999999999
  3
ANSI - ALIGNED
100
AcDbAlignedDimension
 13
6.821807961955617
 23
7.419842289316918
 33
0.0
 14
7.201807961955617
 24
7.419842289316918
 34
0.0
 50
180.0
100
AcDbRotatedDimension
1001
ACAD
1000
DSTYLE
1002
{
1070
    74
1070
     0
1070
   271
1070
     3
1070
   144
1040
1.0
1070
   340
1005
5F
1070
    47
1040
0.0
1070
    48
1040
0.0
1002
}
  0
DIMENSION
  5
340
330
1B
100
AcDbEntity
 67
     1
  8
Dimensions
  6
Continuous
 62
     7
370
    25
100
AcDbDimension
  2
*D7
 10
6.005168735339699
 20
7.419842289316918
 30
0.0
 11
6.005168735339698
 21
8.22009332925738
 31
0.0
 70
   160
  1
<>
 71
     5
 42
0.4600000000000009
  3
ANSI - ALIGNED
100
AcDbAlignedDimension
 13
6.821807961955617
 23
6.959842289316917
 33
0.0
 14
6.821807961955617
 24
7.419842289316918
 34
0.0
 50
90.0
100
AcDbRotatedDimension
1001
ACAD
1000
DSTYLE
1002
{
1070
    74
1070
     0
1070
   271
1070
     3
1070
   144
1040
1.0
1070
   340
1005
5F
1070
    47
1040
0.0
1070
    48
1040
0.0
1002
}
  0
DIMENSION
  5
3E9
330
1B
100
AcDbEntity
 67
     1
  8
Dimensions
  6
Continuous
 62
     7
370
    25
100
AcDbDimension
  2
*D8
 10
7.77808457375788
 20
7.500428620826721
 30
0.0
 11
6.753456024940806
 21
5.433313464480679
 31
0.0
 70
   163
  1
<>
 71
     5
 42
0.4649999999999928
  3
ANSI - ALIGNED
100
AcDbDiametricDimension
 15
7.665531350153335
 25
7.049255957807099
 35
0.0
 40
0.0
1001
ACAD
1000
DSTYLE
1002
{
1070
   271
1070
     3
1070
   144
1040
1.0
1070
   340
1005
5F
1070
    47
1040
0.0
1070
    48
1040
0.0
1002
}
  0
DIMENSION
  5
458
330
1B
100
AcDbEntity
 67
     1
  8
Dimensions
  6
Continuous
 62
     7
370
    25
100
AcDbDimension
  2
*D9
 10
8.466905790430233
 20
7.293927161784717
 30
0.0
 11
7.813555439892858
 21
5.430847908523933
 31
0.0
 70
   163
  1
<>
 71
     5
 42
0.2499999999999982
  3
ANSI - ALIGNED
100
AcDbDiametricDimension
 15
8.436710133481003
 25
7.045757416849111
 35
0.0
 40
0.0
1001
ACAD
1000
DSTYLE
1002
{
1070
   271
1070
     3
1070
   144
1040
1.0
1070
   340
1005
5F
1070
    47
1040
0.0
1070
    48
1040
0.0
1002
}
  0
DIMENSION
  5
4C7
330
1B
100
AcDbEntity
 67
     1
  8
Dimensions
  6
Continuous
 62
     7
370
    25
100
AcDbDimension
  2
*D10
 10
8.96404675622295
 20
7.294241694118058
 30
0.0
 11
8.314441031896526
 21
5.028175154122271
 31
0.0
 70
   163
  1
<>
 71
     5
 42
0.2500000000000053
  3
ANSI - ALIGNED
100
AcDbDiametricDimension
 15
8.939569167688219
 25
7.045442884515747
 35
0.0
 40
0.0
1001
ACAD
1000
DSTYLE
1002
{
1070
   271
1070
     3
1070
   144
1040
1.0
1070
   340
1005
5F
1070
    47
1040
0.0
1070
    48
1040
0.0
1002
}
  0
DIMENSION
  5
536
330
1B
100
AcDbEntity
 67
     1
  8
Dimensions
  6
Continuous
 62
     7
370
    25
100
AcDbDimension
  2
*D11
 10
6.821807961955617
 20
6.316141501915343
 30
0.0
 11
6.069555684388207
 21
6.316141501915343
 31
0.0
 70
   160
  1
<>
 71
     5
 42
0.2400000000000002
  3
ANSI - ALIGNED
100
AcDbAlignedDimension
 13
6.581807961955616
 23
6.709842289316918
 33
0.0
 14
6.821807961955617
 24
6.959842289316917
 34
0.0
 50
0.0000000000000175
100
AcDbRotatedDimension
1001
ACAD
1000
DSTYLE
1002
{
1070
    74
1070
     0
1070
   271
1070
     3
1070
   144
1040
1.0
1070
   340
1005
5F
1070
    47
1040
0.0
1070
    48
1040
0.0
1002
}
  0
DIMENSION
  5
5DA
330
1B
100
AcDbEntity
 67
     1
  8
Dimensions
  6
Continuous
 62
     7
370
    25
100
AcDbDimension
  2
*D12
 10
6.581807961955616
 20
9.298145746608062
 30
0.0
 11
7.151807961955618
 21
9.298145746608062
 31
0.0
 70
   160
  1
<>
 71
     5
 42
1.140000000000001
  3
ANSI - ALIGNED
100
AcDbAlignedDimension
 13
7.721807961955617
 23
7.274842289316917
 33
0.0
 14
6.581807961955616
 24
8.779842289316917
 34
0.0
 50
0.0000000000000175
100
AcDbRotatedDimension
1001
ACAD
1000
DSTYLE
1002
{
1070
    74
1070
     0
1070
   271
1070
     3
1070
   144
1040
1.0
1070
   340
1005
5F
1070
    47
1040
0.0
1070
    48
1040
0.0
1002
}
  0
DIMENSION
  5
67E
330
1B
100
AcDbEntity
 67
     1
  8
Dimensions
  6
Continuous
 62
     7
370
    25
100
AcDbDimension
  2
*D13
 10
6.581807961955616
 20
9.711666896136094
 30
0.0
 11
7.914496137971976
 21
9.711666896136094
 31
0.0
 70
   160
  1
<>
 71
     5
 42
1.870000000000001
  3
ANSI - ALIGNED
100
AcDbAlignedDimension
 13
8.451807961955617
 23
7.169842289316917
 33
0.0
 14
6.581807961955616
 24
8.779842289316917
 34
0.0
 50
0.0000000000000175
100
AcDbRotatedDimension
1001
ACAD
1000
DSTYLE
1002
{
1070
    74
1070
     0
1070
   271
1070
     3
1070
   144
1040
1.0
1070
   340
1005
5F
1070
    47
1040
0.0
1070
    48
1040
0.0
1002
}
  0
DIMENSION
  5
722
330
1B
100
AcDbEntity
 67
     1
  8
Dimensions
  6
Continuous
 62
     7
370
    25
100
AcDbDimension
  2
*D14
 10
8.951807961955616
 20
10.22061600324752
 30
0.0
 11
8.041733410632925
 21
10.22061600324752
 31
0.0
 70
   160
  1
<>
 71
     5
 42
2.37
  3
ANSI - ALIGNED
100
AcDbAlignedDimension
 13
6.581807961955616
 23
8.779842289316917
 33
0.0
 14
8.951807961955616
 24
7.169842289316917
 34
0.0
 50
0.0000000000000175
100
AcDbRotatedDimension
1001
ACAD
1000
DSTYLE
1002
{
1070
    74
1070
     0
1070
   271
1070
     3
1070
   144
1040
1.0
1070
   340
1005
5F
1070
    47
1040
0.0
1070
    48
1040
0.0
1002
}
  0
DIMENSION
  5
7C6
330
1B
100
AcDbEntity
 67
     1
  8
Dimensions
  6
Continuous
 62
     7
370
    25
100
AcDbDimension
  2
*D15
 10
9.241807961955617
 20
10.59086591136416
 30
0.0
 11
8.407540569533153
 21
10.59086591136416
 31
0.0
 70
   160
  1
<>
 71
     5
 42
2.660000000000001
  3
ANSI - ALIGNED
100
AcDbAlignedDimension
 13
6.581807961955616
 23
8.779842289316917
 33
0.0
 14
9.241807961955617
 24
7.419842289316916
 34
0.0
 50
0.0000000000000175
100
AcDbRotatedDimension
1001
ACAD
1000
DSTYLE
1002
{
1070
    74
1070
     0
1070
   271
1070
     3
1070
   144
1040
1.0
1070
   340
1005
5F
1070
    47
1040
0.0
1070
    48
1040
0.0
1002
}
  0
DIMENSION
  5
86A
330
1B
100
AcDbEntity
 67
     1
  8
Dimensions
  6
Continuous
 62
     7
370
    25
100
AcDbDimension
  2
*D16
 10
9.241807961955617
 20
5.813878089540146
 30
0.0
 11
10.25358225505335
 21
5.813878089540146
 31
0.0
 70
   160
  1
<>
 71
     5
 42
0.5
  3
ANSI - ALIGNED
100
AcDbAlignedDimension
 13
9.741807961955617
 23
6.959842289316917
 33
0.0
 14
9.241807961955617
 24
6.959842289316917
 34
0.0
 50
180.0
100
AcDbRotatedDimension
1001
ACAD
1000
DSTYLE
1002
{
1070
    74
1070
     0
1070
   271
1070
     3
1070
   144
1040
1.0
1070
   340
1005
5F
1070
    47
1040
0.0
1070
    48
1040
0.0
1002
}
  0
DIMENSION
  5
90E
330
1B
100
AcDbEntity
 67
     1
  8
Dimensions
  6
Continuous
 62
     7
370
    25
100
AcDbDimension
  2
*D17
 10
9.902578523299311
 20
7.419842289316918
 30
0.0
 11
9.902578523299309
 21
6.246014704019976
 31
0.0
 70
   160
  1
<>
 71
     5
 42
0.4600000000000009
  3
ANSI - ALIGNED
100
AcDbAlignedDimension
 13
9.741807961955617
 23
6.959842289316917
 33
0.0
 14
9.741807961955617
 24
7.419842289316918
 34
0.0
 50
270.0
100
AcDbRotatedDimension
1001
ACAD
1000
DSTYLE
1002
{
1070
    74
1070
     0
1070
   271
1070
     3
1070
   144
1040
1.0
1070
   340
1005
5F
1070
    47
1040
0.0
1070
    48
1040
0.0
1002
}
  0
DIMENSION
  5
9B7
330
1B
100
AcDbEntity
 67
     1
  8
Dimensions
  6
Continuous
 62
     7
370
    25
100
AcDbDimension
  2
*D18
 10
10.27180796195561
 20
10.92042102552572
 30
0.0
 11
8.932394319259572
 21
10.92042102552572
 31
0.0
 70
   160
  1
<>
 71
     5
 42
3.69
  3
ANSI - ALIGNED
100
AcDbAlignedDimension
 13
6.581807961955616
 23
8.779842289316917
 33
0.0
 14
10.27180796195561
 24
7.274842289316917
 34
0.0
 50
0.0000000000000175
100
AcDbRotatedDimension
1001
ACAD
1000
DSTYLE
1002
{
1070
    74
1070
     0
1070
   271
1070
     3
1070
   144
1040
1.0
1070
   340
1005
5F
1070
    47
1040
0.0
1070
    48
1040
0.0
1002
}
  0
DIMENSION
  5
A5B
330
1B
100
AcDbEntity
 67
     1
  8
Dimensions
  6
Continuous
 62
     7
370
    25
100
AcDbDimension
  2
*D19
 10
10.14726403154569
 20
7.471171246422201
 30
0.0
 11
11.55390043368904
 21
5.926357911994872
 31
0.0
 70
   163
  1
<>
 71
     5
 42
0.4649999999999972
  3
ANSI - ALIGNED
100
AcDbDiametricDimension
 15
10.39635189236554
 25
7.07851333221164
 35
0.0
 40
0.0
1001
ACAD
1000
DSTYLE
1002
{
1070
   271
1070
     3
1070
   144
1040
1.0
1070
   340
1005
5F
1070
    47
1040
0.0
1070
    48
1040
0.0
1002
}
  0
DIMENSION
  5
ACA
330
1B
100
AcDbEntity
 67
     1
  8
Dimensions
  6
Continuous
 62
     7
370
    25
100
AcDbDimension
  2
*D20
 10
11.14180796195561
 20
11.29952732868699
 30
0.0
 11
9.504962046233844
 21
11.29952732868699
 31
0.0
 70
   160
  1
<>
 71
     5
 42
4.560000000000001
  3
ANSI - ALIGNED
100
AcDbAlignedDimension
 13
6.581807961955616
 23
8.779842289316917
 33
0.0
 14
11.14180796195561
 24
7.352842289316917
 34
0.0
 50
0.0000000000000175
100
AcDbRotatedDimension
1001
ACAD
1000
DSTYLE
1002
{
1070
    74
1070
     0
1070
   271
1070
     3
1070
   144
1040
1.0
1070
   340
1005
5F
1070
    47
1040
0.0
1070
    48
1040
0.0
1002
}
  0
DIMENSION
  5
B6E
330
1B
100
AcDbEntity
 67
     1
  8
Dimensions
  6
Continuous
 62
     7
370
    25
100
AcDbDimension
  2
*D21
 10
11.99180796195561
 20
11.556607409415
 30
0.0
 11
10.17295772770382
 21
11.556607409415
 31
0.0
 70
   160
  1
<>
 71
     5
 42
5.410000000000001
  3
ANSI - ALIGNED
100
AcDbAlignedDimension
 13
6.581807961955616
 23
8.779842289316917
 33
0.0
 14
11.99180796195561
 24
7.352842289316917
 34
0.0
 50
0.0000000000000175
100
AcDbRotatedDimension
1001
ACAD
1000
DSTYLE
1002
{
1070
    74
1070
     0
1070
   271
1070
     3
1070
   144
1040
1.0
1070
   340
1005
5F
1070
    47
1040
0.0
1070
    48
1040
0.0
1002
}
  0
DIMENSION
  5
C12
330
1B
100
AcDbEntity
 67
     1
  8
Dimensions
  6
Continuous
 62
     7
370
    25
100
AcDbDimension
  2
*D22
 10
12.84180796195561
 20
11.82698662256795
 30
0.0
 11
10.82504875009119
 21
11.82698662256795
 31
0.0
 70
   160
  1
<>
 71
     5
 42
6.259999999999998
  3
ANSI - ALIGNED
100
AcDbAlignedDimension
 13
6.581807961955616
 23
8.779842289316917
 33
0.0
 14
12.84180796195561
 24
7.352842289316917
 34
0.0
 50
0.0000000000000175
100
AcDbRotatedDimension
1001
ACAD
1000
DSTYLE
1002
{
1070
    74
1070
     0
1070
   271
1070
     3
1070
   144
1040
1.0
1070
   340
1005
5F
1070
    47
1040
0.0
1070
    48
1040
0.0
1002
}
  0
DIMENSION
  5
CB6
330
1B
100
AcDbEntity
 67
     1
  8
Dimensions
  6
Continuous
 62
     7
370
    25
100
AcDbDimension
  2
*D23
 10
11.01813161210341
 20
7.666865235114256
 30
0.0
 11
11.96742156983712
 21
6.339879061522905
 31
0.0
 70
   163
  1
<>
 71
     5
 42
0.674999999999999
  3
ANSI - ALIGNED
100
AcDbDiametricDimension
 15
11.26548431180782
 25
7.038819343519592
 35
0.0
 40
0.0
1001
ACAD
1000
DSTYLE
1002
{
1070
   271
1070
     3
1070
   144
1040
1.0
1070
   340
1005
5F
1070
    47
1040
0.0
1070
    48
1040
0.0
1002
}
  0
DIMENSION
  5
D25
330
1B
100
AcDbEntity
 67
     1
  8
Dimensions
  6
Continuous
 62
     7
370
    25
100
AcDbDimension
  2
*D24
 10
11.79650197931996
 20
7.628090946255914
 30
0.0
 11
13.43065020543804
 21
5.926357911994872
 31
0.0
 70
   163
  1
<>
 71
     5
 42
0.6750000000000016
  3
ANSI - ALIGNED
100
AcDbDiametricDimension
 15
12.18711394459128
 25
7.077593632377928
 35
0.0
 40
0.0
1001
ACAD
1000
DSTYLE
1002
{
1070
   271
1070
     3
1070
   144
1040
1.0
1070
   340
1005
5F
1070
    47
1040
0.0
1070
    48
1040
0.0
1002
}
  0
DIMENSION
  5
D94
330
1B
100
AcDbEntity
 67
     1
  8
Dimensions
  6
Continuous
 62
     7
370
    25
100
AcDbDimension
  2
*D25
 10
12.67947939355258
 20
7.648740389818125
 30
0.0
 11
13.78055270525565
 21
6.419402359509062
 31
0.0
 70
   163
  1
<>
 71
     5
 42
0.6749999999999999
  3
ANSI - ALIGNED
100
AcDbDiametricDimension
 15
13.00413653035862
 25
7.056944188815696
 35
0.0
 40
0.0
1001
ACAD
1000
DSTYLE
1002
{
1070
   271
1070
     3
1070
   144
1040
1.0
1070
   340
1005
5F
1070
    47
1040
0.0
1070
    48
1040
0.0
1002
}
  0
DIMENSION
  5
E03
330
1B
100
AcDbEntity
 67
     1
  8
Dimensions
  6
Continuous
 62
     7
370
    25
100
AcDbDimension
  2
*D26
 10
13.71180796195561
 20
12.15673205309644
 30
0.0
 11
11.6839003405526
 21
12.15673205309644
 31
0.0
 70
   160
  1
<>
 71
     5
 42
7.129999999999999
  3
ANSI - ALIGNED
100
AcDbAlignedDimension
 13
6.581807961955616
 23
8.779842289316917
 33
0.0
 14
13.71180796195561
 24
7.274842289316918
 34
0.0
 50
0.0000000000000175
100
AcDbRotatedDimension
1001
ACAD
1000
DSTYLE
1002
{
1070
    74
1070
     0
1070
   271
1070
     3
1070
   144
1040
1.0
1070
   340
1005
5F
1070
    47
1040
0.0
1070
    48
1040
0.0
1002
}
  0
DIMENSION
  5
EA7
330
1B
100
AcDbEntity
 67
     1
  8
Dimensions
  6
Continuous
 62
     7
370
    25
100
AcDbDimension
  2
*D27
 10
14.58180796195561
 20
12.47907766605446
 30
0.0
 11
12.60637056734448
 21
12.47907766605446
 31
0.0
 70
   160
  1
<>
 71
     5
 42
8.0
  3
ANSI - ALIGNED
100
AcDbAlignedDimension
 13
6.581807961955616
 23
8.779842289316917
 33
0.0
 14
14.58180796195561
 24
7.352842289316917
 34
0.0
 50
0.0000000000000175
100
AcDbRotatedDimension
1001
ACAD
1000
DSTYLE
1002
{
1070
    74
1070
     0
1070
   271
1070
     3
1070
   144
1040
1.0
1070
   340
1005
5F
1070
    47
1040
0.0
1070
    48
1040
0.0
1002
}
  0
DIMENSION
  5
F4B
330
1B
100
AcDbEntity
 67
     1
  8
Dimensions
  6
Continuous
 62
     7
370
    25
100
AcDbDimension
  2
*D28
 10
13.57385702729261
 20
7.461994071637054
 30
0.0
 11
15.13244872727824
 21
5.926357911994872
 31
0.0
 70
   163
  1
<>
 71
     5
 42
0.4649999999999963
  3
ANSI - ALIGNED
100
AcDbDiametricDimension
 15
13.84975889661861
 25
7.087690506996779
 35
0.0
 40
0.0
1001
ACAD
1000
DSTYLE
1002
{
1070
   271
1070
     3
1070
   144
1040
1.0
1070
   340
1005
5F
1070
    47
1040
0.0
1070
    48
1040
0.0
1002
}
  0
DIMENSION
  5
FBA
330
1B
100
AcDbEntity
 67
     1
  8
Dimensions
  6
Continuous
 62
     7
370
    25
100
AcDbDimension
  2
*D29
 10
14.42479041925855
 20
7.651592588539149
 30
0.0
 11
15.48235122709584
 21
6.451211678703528
 31
0.0
 70
   163
  1
<>
 71
     5
 42
0.6749999999999972
  3
ANSI - ALIGNED
100
AcDbDiametricDimension
 15
14.73882550465268
 25
7.054091990094681
 35
0.0
 40
0.0
1001
ACAD
1000
DSTYLE
1002
{
1070
   271
1070
     3
1070
   144
1040
1.0
1070
   340
1005
5F
1070
    47
1040
0.0
1070
    48
1040
0.0
1002
}
  0
DIMENSION
  5
1029
330
1B
100
AcDbEntity
 67
     1
  8
Dimensions
  6
Continuous
 62
     7
370
    25
100
AcDbDimension
  2
*D30
 10
16.09724749509619
 20
7.274842289316918
 30
0.0
 11
16.09724749509619
 21
7.713006224047089
 31
0.0
 70
   160
  1
<>
 71
     5
 42
0.5650000000000004
  3
ANSI - ALIGNED
100
AcDbAlignedDimension
 13
15.16180796195561
 23
6.709842289316918
 33
0.0
 14
15.16180796195561
 24
7.274842289316918
 34
0.0
 50
90.0
100
AcDbRotatedDimension
1001
ACAD
1000
DSTYLE
1002
{
1070
    74
1070
     0
1070
   271
1070
     3
1070
   144
1040
1.0
1070
   340
1005
5F
1070
    47
1040
0.0
1070
    48
1040
0.0
1002
}
  0
DIMENSION
  5
10D2
330
1B
100
AcDbEntity
 67
     1
  8
Dimensions
  6
Continuous
 62
     7
370
    25
100
AcDbDimension
  2
*D31
 10
5.663660248947963
 20
6.959842289316918
 30
0.0
 11
5.663660248947962
 21
8.22009332925738
 31
0.0
 70
   160
  1
<>
 71
     5
 42
0.2499999999999991
  3
ANSI - ALIGNED
100
AcDbAlignedDimension
 13
6.581807961955616
 23
6.709842289316918
 33
0.0
 14
6.821807961955617
 24
6.959842289316917
 34
0.0
 50
90.0
100
AcDbRotatedDimension
1001
ACAD
1000
DSTYLE
1002
{
1070
    74
1070
     0
1070
   271
1070
     3
1070
   144
1040
1.0
1070
   340
1005
5F
1070
    47
1040
0.0
1070
    48
1040
0.0
1002
}
  0
DIMENSION
  5
117C
330
1B
100
AcDbEntity
 67
     1
  8
Dimensions
  6
Continuous
 62
     7
370
    25
100
AcDbDimension
  2
*D32
 10
9.095410498809988
 20
6.959842289316917
 30
0.0
 11
9.095410498809986
 21
5.421026621831209
 31
0.0
 70
   160
  1
<>
 71
     5
 42
0.2499999999999991
  3
ANSI - ALIGNED
100
AcDbAlignedDimension
 13
9.095410498809984
 23
6.709842289316918
 33
0.0
 14
9.241807961955617
 24
6.959842289316917
 34
0.0
 50
90.0
100
AcDbRotatedDimension
1001
ACAD
1000
DSTYLE
1002
{
1070
    74
1070
     0
1070
   271
1070
     3
1070
   144
1040
1.0
1070
   340
1005
5F
1070
    47
1040
0.0
1070
    48
1040
0.0
1002
}
  0
DIMENSION
  5
1226
330
1B
100
AcDbEntity
 67
     1
  8
Dimensions
  6
Continuous
 62
     7
370
    25
100
AcDbDimension
  2
*D33
 10
16.4606350814518
 20
6.709842289316918
 30
0.0
 11
16.4606350814518
 21
6.27167835458675
 31
0.0
 70
   160
  1
<>
 71
     5
 42
0.6430000000000016
  3
ANSI - ALIGNED
100
AcDbAlignedDimension
 13
15.16180796195561
 23
7.352842289316919
 33
0.0
 14
15.16180796195561
 24
6.709842289316918
 34
0.0
 50
90.0
100
AcDbRotatedDimension
1001
ACAD
1000
DSTYLE
1002
{
1070
    74
1070
     0
1070
   271
1070
     3
1070
   144
1040
1.0
1070
   340
1005
5F
1070
    47
1040
0.0
1070
    48
1040
0.0
1002
}
  0
DIMENSION
  5
12CF
330
1B
100
AcDbEntity
 67
     1
  8
Dimensions
  6
Continuous
 62
     7
370
    25
100
AcDbDimension
  2
*D34
 10
8.131334473197926
 20
6.709842289316918
 30
0.0
 11
8.131334473197924
 21
6.226372130634529
 31
0.0
 70
   160
  1
<>
 71
     5
 42
0.4599999999999991
  3
ANSI - ALIGNED
100
AcDbAlignedDimension
 13
8.326807961955616
 23
7.169842289316917
 33
0.0
 14
8.131334473197924
 24
6.709842289316918
 34
0.0
 50
90.0
100
AcDbRotatedDimension
1001
ACAD
1000
DSTYLE
1002
{
1070
    74
1070
     0
1070
   271
1070
     3
1070
   144
1040
1.0
1070
   340
1005
5F
1070
    47
1040
0.0
1070
    48
1040
0.0
1002
}
  0
MTEXT
  5
1378
330
1B
100
AcDbEntity
 67
     1
  8
Sketch Lines
 62
   177
370
   200
100
AcDbMText
 10
16.3338333880994
 20
2.901621649103587
 30
0.0
 40
0.1200787429734478
 41
0.0
 71
     1
 72
     1
  1
{all dimensions in inches}
  7
DEFAULT-ANSI
 73
     1
 44
0.8000000119209289
  0
ENDSEC
  0
SECTION
  2
OBJECTS
  0
DICTIONARY
  5
C
330
0
100
AcDbDictionary
281
     1
  3
ACAD_GROUP
350
D
  3
ACAD_LAYOUT
350
1A
  3
ACAD_MLINESTYLE
350
17
  3
ACAD_PLOTSETTINGS
350
19
  3
ACAD_PLOTSTYLENAME
350
E
  3
AcDbVariableDictionary
350
137F
  3
DWGPROPS
350
137E
  0
DICTIONARY
  5
D
102
{ACAD_REACTORS
330
C
102
}
330
C
100
AcDbDictionary
281
     1
  0
DICTIONARY
  5
1A
102
{ACAD_REACTORS
330
C
102
}
330
C
100
AcDbDictionary
281
     1
  3
Layout1
350
1E
  3
Layout2
350
26
  3
Model
350
22
  0
DICTIONARY
  5
17
102
{ACAD_REACTORS
330
C
102
}
330
C
100
AcDbDictionary
281
     1
  3
Standard
350
18
  0
DICTIONARY
  5
19
102
{ACAD_REACTORS
330
C
102
}
330
C
100
AcDbDictionary
281
     1
  0
ACDBDICTIONARYWDFLT
  5
E
102
{ACAD_REACTORS
330
C
102
}
330
C
100
AcDbDictionary
281
     1
  3
Normal
350
F
100
AcDbDictionaryWithDefault
340
F
  0
DICTIONARY
  5
137F
102
{ACAD_REACTORS
330
C
102
}
330
C
100
AcDbDictionary
281
     1
  3
DIMASSOC
350
1381
  3
HIDETEXT
350
1380
  0
XRECORD
  5
137E
102
{ACAD_REACTORS
330
C
102
}
330
C
100
AcDbXrecord
280
     1
  1
DWGPROPS COOKIE
  2

  3

  4
ladyada
  6

  7

  8

  9

300
=
301
=
302
=
303
=
304
=
305
=
306
=
307
=
308
=
309
=
 40
0.0000479861111111
 41
2453432.895546226
 42
2453432.895546226
  1

 90
        0
  0
LAYOUT
  5
1E
102
{ACAD_REACTORS
330
1A
102
}
330
1A
100
AcDbPlotSettings
  1

  2

  4

  6

 40
0.0
 41
0.0
 42
0.0
 43
0.0
 44
0.0
 45
0.0
 46
0.0
 47
0.0
 48
0.0
 49
0.0
140
0.0
141
0.0
142
1.0
143
1.0
 70
   688
 72
     0
 73
     0
 74
     5
  7

 75
    16
147
1.0
148
0.0
149
0.0
100
AcDbLayout
  1
Layout1
 70
     1
 71
     1
 10
0.0
 20
0.0
 11
27.94
 21
21.59
 12
0.0
 22
0.0
 32
0.0
 14
0.0
 24
0.0
 34
0.0
 15
27.94
 25
21.59
 35
0.0
146
0.0
 13
0.0
 23
0.0
 33
0.0
 16
1.0
 26
0.0
 36
0.0
 17
0.0
 27
1.0
 37
0.0
 76
     0
330
1B
  0
LAYOUT
  5
26
102
{ACAD_REACTORS
330
1A
102
}
330
1A
100
AcDbPlotSettings
  1

  2

  4

  6

 40
0.0
 41
0.0
 42
0.0
 43
0.0
 44
0.0
 45
0.0
 46
0.0
 47
0.0
 48
0.0
 49
0.0
140
0.0
141
0.0
142
1.0
143
1.0
 70
   688
 72
     0
 73
     0
 74
     5
  7

 75
    16
147
1.0
148
0.0
149
0.0
100
AcDbLayout
  1
Layout2
 70
     1
 71
     2
 10
0.0
 20
0.0
 11
12.0
 21
9.0
 12
0.0
 22
0.0
 32
0.0
 14
0.0
 24
0.0
 34
0.0
 15
0.0
 25
0.0
 35
0.0
146
0.0
 13
0.0
 23
0.0
 33
0.0
 16
1.0
 26
0.0
 36
0.0
 17
0.0
 27
1.0
 37
0.0
 76
     0
330
23
  0
LAYOUT
  5
22
102
{ACAD_REACTORS
330
1A
102
}
330
1A
100
AcDbPlotSettings
  1

  2

  4

  6

 40
0.0
 41
0.0
 42
0.0
 43
0.0
 44
0.0
 45
0.0
 46
0.0
 47
0.0
 48
0.0
 49
0.0
140
0.0
141
0.0
142
1.0
143
1.0
 70
  1712
 72
     0
 73
     0
 74
     0
  7

 75
     0
147
1.0
148
0.0
149
0.0
100
AcDbLayout
  1
Model
 70
     1
 71
     0
 10
0.0
 20
0.0
 11
12.0
 21
9.0
 12
0.0
 22
0.0
 32
0.0
 14
0.0
 24
0.0
 34
0.0
 15
0.0
 25
0.0
 35
0.0
146
0.0
 13
0.0
 23
0.0
 33
0.0
 16
1.0
 26
0.0
 36
0.0
 17
0.0
 27
1.0
 37
0.0
 76
     0
330
1F
  0
MLINESTYLE
  5
18
102
{ACAD_REACTORS
330
17
102
}
330
17
100
AcDbMlineStyle
  2
STANDARD
 70
     0
  3

 62
   256
 51
90.0
 52
90.0
 71
     2
 49
0.5
 62
   256
  6
BYLAYER
 49
-0.5
 62
   256
  6
BYLAYER
  0
ACDBPLACEHOLDER
  5
F
102
{ACAD_REACTORS
330
E
102
}
330
E
  0
DICTIONARYVAR
  5
1381
102
{ACAD_REACTORS
330
137F
102
}
330
137F
100
DictionaryVariables
280
     0
  1
2
  0
DICTIONARYVAR
  5
1380
102
{ACAD_REACTORS
330
137F
102
}
330
137F
100
DictionaryVariables
280
     0
  1
1
  0
ENDSEC
  0
EOF
